<?xml version="1.0" encoding="utf-8"?>
<svg version="1.1" viewBox="544 1384 1035 664" width="1035" height="664" xmlns="http://www.w3.org/2000/svg">
  <g id="Canvas_1" stroke-opacity="1" fill="none" stroke="none" stroke-dasharray="none" fill-opacity="1">
    <title>Canvas 1</title>
    <g id="Canvas_1_Layer_1">
      <title>Layer 1</title>
      <g id="Graphic_52" transform="matrix(0.590725, 0, 0, 0.512031, 504.207397, 779.95343)" style="">
        <path d="M 688 1387 L 1548 1387 C 1563.464 1387 1576 1399.536 1576 1415 L 1576 2017 C 1576 2032.464 1563.464 2045 1548 2045 L 688 2045 C 672.536 2045 660 2032.464 660 2017 L 660 1415 C 660 1399.536 672.536 1387 688 1387 Z" fill="white"/>
        <path d="M 688 1387 L 1548 1387 C 1563.464 1387 1576 1399.536 1576 1415 L 1576 2017 C 1576 2032.464 1563.464 2045 1548 2045 L 688 2045 C 672.536 2045 660 2032.464 660 2017 L 660 1415 C 660 1399.536 672.536 1387 688 1387 Z" stroke="#02329a" stroke-linecap="round" stroke-linejoin="round" stroke-dasharray="12.0,12.0" stroke-width="6"/>
      </g>
      <g id="Graphic_51">
        <ellipse cx="1215.0398" cy="1664" rx="182.188307647503" ry="119.000190150325" fill="#a4f8fd"/>
        <ellipse cx="1215.0398" cy="1664" rx="182.188307647503" ry="119.000190150325" stroke="#02329a" stroke-linecap="round" stroke-linejoin="round" stroke-width="1"/>
      </g>
      <g id="Graphic_50" style="" transform="matrix(0.651656, 0, 0, 0.711523, 380.767365, 498.411041)">
        <path d="M 928 1600.265 L 1083.0796 1600.265 C 1088.6025 1600.265 1093.0796 1604.7422 1093.0796 1610.265 L 1093.0796 1717.735 C 1093.0796 1723.2578 1088.6025 1727.735 1083.0796 1727.735 L 928 1727.735 C 922.4772 1727.735 918 1723.2578 918 1717.735 L 918 1610.265 C 918 1604.7422 922.4772 1600.265 928 1600.265 Z" fill="#ebdea6"/>
        <path d="M 928 1600.265 L 1083.0796 1600.265 C 1088.6025 1600.265 1093.0796 1604.7422 1093.0796 1610.265 L 1093.0796 1717.735 C 1093.0796 1723.2578 1088.6025 1727.735 1083.0796 1727.735 L 928 1727.735 C 922.4772 1727.735 918 1723.2578 918 1717.735 L 918 1610.265 C 918 1604.7422 922.4772 1600.265 928 1600.265 Z" stroke="#e3a92e" stroke-linecap="round" stroke-linejoin="round" stroke-width="1"/>
      </g>
      <g id="Graphic_45" transform="matrix(1, 0, 0, 1, -126.460144, -191.035538)">
        <text transform="translate(1056.1982 1953.094)" fill="#250060" style="white-space: pre;">
          <tspan font-family="Century Gothic" font-size="60" font-weight="700" fill="#250060" x="0" y="60">Host</tspan>
        </text>
      </g>
      <g id="Graphic_44">
        <text transform="translate(1125.0586 1628)" fill="#250060" style="white-space: pre;">
          <tspan font-family="Century Gothic" font-size="60" font-weight="700" fill="#250060" x="0" y="60">nginx1</tspan>
        </text>
      </g>
      <g id="Graphic_43" transform="matrix(1, 0, 0, 1, 34.081455, 14.350087)">
        <text transform="translate(971.9363 1627.5)" fill="#250060" style="white-space: pre;">
          <tspan font-family="Century Gothic" font-size="60" font-weight="700" fill="#250060" x="0" y="60">80</tspan>
        </text>
      </g>
    </g>
  </g>
</svg>