<?xml version="1.0" encoding="UTF-8" standalone="no"?>
<!DOCTYPE svg PUBLIC "-//W3C//DTD SVG 1.1//EN" "http://www.w3.org/Graphics/SVG/1.1/DTD/svg11.dtd">
<svg xmlns="http://www.w3.org/2000/svg" xmlns:xl="http://www.w3.org/1999/xlink" xmlns:dc="http://purl.org/dc/elements/1.1/" version="1.1" viewBox="-962 338 2795 1382" width="2795" height="1382">
  <defs>
    <marker orient="auto" overflow="visible" markerUnits="strokeWidth" id="FilledBall_Marker" stroke-linejoin="miter" stroke-miterlimit="10" viewBox="-1 -2 4 4" markerWidth="4" markerHeight="4" color="#02329a">
      <g>
        <circle cx=".9999995" cy="0" r="0.999999116227774" fill="currentColor" stroke="currentColor" stroke-width="1"/>
      </g>
    </marker>
    <marker orient="auto" overflow="visible" markerUnits="strokeWidth" id="FilledBall_Marker_2" stroke-linejoin="miter" stroke-miterlimit="10" viewBox="-3 -2 4 4" markerWidth="4" markerHeight="4" color="#02329a">
      <g>
        <circle cx="-.9999995" cy="0" r="0.999999116227774" fill="currentColor" stroke="currentColor" stroke-width="1"/>
      </g>
    </marker>
    <marker orient="auto" overflow="visible" markerUnits="strokeWidth" id="FilledBall_Marker_3" stroke-linejoin="miter" stroke-miterlimit="10" viewBox="-4 -3 5 6" markerWidth="5" markerHeight="6" color="#02329a">
      <g>
        <circle cx="-1.1999995" cy="0" r="1.19999893947333" fill="currentColor" stroke="currentColor" stroke-width="1"/>
      </g>
    </marker>
    <linearGradient x1="0" x2="1" id="Gradient" gradientUnits="userSpaceOnUse">
      <stop offset="0" stop-color="#a31fa9"/>
      <stop offset=".07" stop-color="#8b17a0"/>
      <stop offset="1" stop-color="#2c75e4"/>
    </linearGradient>
    <linearGradient id="Obj_Gradient" xl:href="#Gradient" gradientTransform="translate(267.01365 1445.2156) scale(178.27412)"/>
    <linearGradient x1="0" x2="1" id="Gradient_2" gradientUnits="userSpaceOnUse">
      <stop offset="0" stop-color="#8d139b"/>
      <stop offset=".17" stop-color="#851ba1"/>
      <stop offset="1" stop-color="#2979e4"/>
    </linearGradient>
    <linearGradient id="Obj_Gradient_2" xl:href="#Gradient_2" gradientTransform="translate(260.661 1438.641) rotate(-11.018619) scale(194.68682)"/>
    <linearGradient id="Obj_Gradient_3" xl:href="#Gradient" gradientTransform="translate(267.01378 1410.4379) scale(178.3463)"/>
    <linearGradient x1="0" x2="1" id="Gradient_3" gradientUnits="userSpaceOnUse">
      <stop offset="0" stop-color="#8d139b"/>
      <stop offset=".17" stop-color="#851ba1"/>
      <stop offset="1" stop-color="#2979e4"/>
    </linearGradient>
    <linearGradient id="Obj_Gradient_4" xl:href="#Gradient_3" gradientTransform="translate(260.66046 1403.8411) rotate(-11.00425) scale(194.6784)"/>
    <linearGradient id="Obj_Gradient_5" xl:href="#Gradient" gradientTransform="translate(267.01353 1375.7302) scale(178.27424)"/>
    <linearGradient x1="0" x2="1" id="Gradient_4" gradientUnits="userSpaceOnUse">
      <stop offset="0" stop-color="#8d139b"/>
      <stop offset=".17" stop-color="#851ba1"/>
      <stop offset="1" stop-color="#2979e4"/>
    </linearGradient>
    <linearGradient id="Obj_Gradient_6" xl:href="#Gradient_4" gradientTransform="translate(260.65938 1369.0983) rotate(-11.00425) scale(194.6806)"/>
    <linearGradient id="Obj_Gradient_7" xl:href="#Gradient" gradientTransform="translate(267.0137 1340.9815) scale(178.27408)"/>
    <linearGradient x1="0" x2="1" id="Gradient_5" gradientUnits="userSpaceOnUse">
      <stop offset="0" stop-color="#267fe5"/>
      <stop offset=".17" stop-color="#2c87e7"/>
      <stop offset="1" stop-color="#6ee1f8"/>
    </linearGradient>
    <linearGradient id="Obj_Gradient_8" xl:href="#Gradient_5" gradientTransform="translate(260.66122 1334.3635) rotate(-11.00425) scale(194.67684)"/>
    <linearGradient x1="0" x2="1" id="Gradient_6" gradientUnits="userSpaceOnUse">
      <stop offset="0" stop-color="#6de0f6"/>
      <stop offset=".16" stop-color="#68d8f5"/>
      <stop offset="1" stop-color="#2c75e4"/>
    </linearGradient>
    <linearGradient id="Obj_Gradient_9" xl:href="#Gradient_6" gradientTransform="translate(289.11127 1315.7155) scale(134.03082)"/>
    <linearGradient id="Obj_Gradient_10" xl:href="#Gradient" gradientTransform="translate(57.707485 855.5175) scale(178.27412)"/>
    <linearGradient id="Obj_Gradient_11" xl:href="#Gradient_2" gradientTransform="translate(51.35482 848.9428) rotate(-11.018619) scale(194.68682)"/>
    <linearGradient id="Obj_Gradient_12" xl:href="#Gradient" gradientTransform="translate(57.70761 820.7398) scale(178.3463)"/>
    <linearGradient id="Obj_Gradient_13" xl:href="#Gradient_3" gradientTransform="translate(51.35429 814.143) rotate(-11.00425) scale(194.6784)"/>
    <linearGradient id="Obj_Gradient_14" xl:href="#Gradient" gradientTransform="translate(57.707365 786.0321) scale(178.27424)"/>
    <linearGradient id="Obj_Gradient_15" xl:href="#Gradient_4" gradientTransform="translate(51.35321 779.4002) rotate(-11.00425) scale(194.6806)"/>
    <linearGradient id="Obj_Gradient_16" xl:href="#Gradient" gradientTransform="translate(57.70753 751.2834) scale(178.27408)"/>
    <linearGradient id="Obj_Gradient_17" xl:href="#Gradient_5" gradientTransform="translate(51.35505 744.6654) rotate(-11.00425) scale(194.67684)"/>
    <linearGradient id="Obj_Gradient_18" xl:href="#Gradient_6" gradientTransform="translate(79.8051 726.0174) scale(134.03082)"/>
    <linearGradient id="Obj_Gradient_19" xl:href="#Gradient" gradientTransform="translate(474.01365 854.39) scale(178.27412)"/>
    <linearGradient id="Obj_Gradient_20" xl:href="#Gradient_2" gradientTransform="translate(467.661 847.8153) rotate(-11.018619) scale(194.68682)"/>
    <linearGradient id="Obj_Gradient_21" xl:href="#Gradient" gradientTransform="translate(474.0138 819.6123) scale(178.3463)"/>
    <linearGradient id="Obj_Gradient_22" xl:href="#Gradient_3" gradientTransform="translate(467.66046 813.0155) rotate(-11.00425) scale(194.6784)"/>
    <linearGradient id="Obj_Gradient_23" xl:href="#Gradient" gradientTransform="translate(474.01353 784.9046) scale(178.27424)"/>
    <linearGradient id="Obj_Gradient_24" xl:href="#Gradient_4" gradientTransform="translate(467.6594 778.27275) rotate(-11.00425) scale(194.6806)"/>
    <linearGradient id="Obj_Gradient_25" xl:href="#Gradient" gradientTransform="translate(474.0137 750.1559) scale(178.27408)"/>
    <linearGradient id="Obj_Gradient_26" xl:href="#Gradient_5" gradientTransform="translate(467.6612 743.5379) rotate(-11.00425) scale(194.67684)"/>
    <linearGradient id="Obj_Gradient_27" xl:href="#Gradient_6" gradientTransform="translate(496.11127 724.8899) scale(134.03082)"/>
    <linearGradient x1="0" x2="1" id="Gradient_7" gradientUnits="userSpaceOnUse">
      <stop offset="0" stop-color="#267fe5"/>
      <stop offset=".17" stop-color="#2c87e7"/>
      <stop offset="1" stop-color="#6ee1f8"/>
    </linearGradient>
    <linearGradient id="Obj_Gradient_28" xl:href="#Gradient_7" gradientTransform="translate(-973.1285 999.6439) rotate(11.803709) scale(354.37696)"/>
    <linearGradient id="Obj_Gradient_29" xl:href="#Gradient_7" gradientTransform="translate(1467.2465 1031.2948) rotate(11.803709) scale(354.37696)"/>
    <font-face font-family="Century Gothic" font-size="60" panose-1="2 11 7 2 2 2 2 2 2 4" units-per-em="1000" underline-position="-75.19531" underline-thickness="49.80469" slope="0" x-height="531.25" cap-height="718.2617" ascent="1005.8594" descent="-220.21484" font-weight="700">
      <font-face-src>
        <font-face-name name="CenturyGothic-Bold"/>
      </font-face-src>
    </font-face>
    <font-face font-family="Century Gothic" font-size="40" panose-1="2 11 7 2 2 2 2 2 2 4" units-per-em="1000" underline-position="-75.19531" underline-thickness="49.80469" slope="0" x-height="531.25" cap-height="718.2617" ascent="1005.8594" descent="-220.21484" font-weight="700">
      <font-face-src>
        <font-face-name name="CenturyGothic-Bold"/>
      </font-face-src>
    </font-face>
  </defs>
  <metadata> Produced by OmniGraffle 7.18.5\n2023-01-02 09:01:38 +0000</metadata>
  <g id="Canvas_1" stroke="none" stroke-dasharray="none" stroke-opacity="1" fill="none" fill-opacity="1">
    <title>Canvas 1</title>
    <g id="Canvas_1_Layer_1">
      <title>Layer 1</title>
      <g id="Graphic_119">
        <path d="M -173.32203 344.4596 L 1055.678 344.4596 C 1094.3379 344.4596 1125.678 375.7997 1125.678 414.4596 L 1125.678 1643.4596 C 1125.678 1682.1196 1094.3379 1713.4596 1055.678 1713.4596 L -173.32203 1713.4596 C -211.98197 1713.4596 -243.32203 1682.1196 -243.32203 1643.4596 L -243.32203 414.4596 C -243.32203 375.7997 -211.98197 344.4596 -173.32203 344.4596 Z" fill="white"/>
        <path d="M -173.32203 344.4596 L 1055.678 344.4596 C 1094.3379 344.4596 1125.678 375.7997 1125.678 414.4596 L 1125.678 1643.4596 C 1125.678 1682.1196 1094.3379 1713.4596 1055.678 1713.4596 L -173.32203 1713.4596 C -211.98197 1713.4596 -243.32203 1682.1196 -243.32203 1643.4596 L -243.32203 414.4596 C -243.32203 375.7997 -211.98197 344.4596 -173.32203 344.4596 Z" stroke="#0048dc" stroke-linecap="round" stroke-linejoin="round" stroke-width="12"/>
      </g>
      <g id="Line_118">
        <line x1="-618.322" y1="1084.5404" x2="1460.9976" y2="1084.5404" marker-end="url(#FilledBall_Marker)" marker-start="url(#FilledBall_Marker_2)" stroke="#02329a" stroke-linecap="round" stroke-linejoin="round" stroke-width="6"/>
      </g>
      <g id="Line_117">
        <line x1="145.67796" y1="915.4423" x2="145.67794" y2="1084.5404" marker-start="url(#FilledBall_Marker_3)" stroke="#02329a" stroke-linecap="round" stroke-linejoin="round" stroke-width="4"/>
      </g>
      <g id="Line_116">
        <line x1="563.17797" y1="916.4423" x2="563.17797" y2="1085.5404" marker-start="url(#FilledBall_Marker_3)" stroke="#02329a" stroke-linecap="round" stroke-linejoin="round" stroke-width="4"/>
      </g>
      <g id="Line_115">
        <line x1="355.67797" y1="1253.6385" x2="355.67797" y2="1084.5404" marker-start="url(#FilledBall_Marker_3)" stroke="#02329a" stroke-linecap="round" stroke-linejoin="round" stroke-width="4"/>
      </g>
      <g id="Line_114">
        <line x1="769.678" y1="1254.6385" x2="769.678" y2="1085.5404" marker-start="url(#FilledBall_Marker_3)" stroke="#02329a" stroke-linecap="round" stroke-linejoin="round" stroke-width="4"/>
      </g>
      <g id="Group_109">
        <g id="Graphic_113">
          <path d="M -310.9003 884.1754 L -123.37557 964.5655 L -154.56604 973.0073 L -340.32203 892.6172 Z" fill="#c0644b"/>
        </g>
        <g id="Graphic_112">
          <path d="M -123.37557 964.5655 L -123.37557 1206.4636 L -154.56604 1214.9054 L -154.56604 973.0073 Z" fill="#ab5842"/>
        </g>
        <g id="Graphic_111">
          <path d="M -340.32203 892.6172 L -340.32203 1134.5152 L -154.56604 1214.9054 L -154.56604 973.0073 Z" fill="#a1523e"/>
        </g>
        <g id="Graphic_110">
          <path d="M -154.56604 1001.4 L -123.37557 992.7009 L -123.37557 990.1804 L -154.56604 998.6865 L -216.04252 971.8456 L -216.10282 946.3754 L -185.49925 937.9336 L -188.71517 936.5628 L -219.2906 945.0046 L -219.2303 970.4748 L -278.18228 944.9524 L -278.2104 919.4943 L -248.19777 911.0525 L -251.4137 909.6817 L -281.39418 918.1235 L -281.36604 943.5776 L -340.32203 918.0592 L -340.32203 920.9254 L -312.2671 933.0615 L -312.2671 957.0724 L -340.32203 944.9323 L -340.32203 947.7985 L -312.2671 959.9386 L -309.0994 961.3134 L -281.3138 973.337 L -281.28163 997.36 L -309.0994 985.3203 L -312.2671 983.9455 L -340.32203 971.8054 L -340.32203 974.6716 L -312.2671 986.8117 L -312.2671 1010.8266 L -340.32203 998.6865 L -340.32203 1001.5527 L -312.2671 1013.6928 L -309.0994 1015.0636 L -281.24143 1027.1234 L -281.20927 1051.1463 L -309.0994 1039.0866 L -312.2671 1037.7158 L -340.32203 1025.5757 L -340.32203 1028.4419 L -312.2671 1040.582 L -312.2671 1064.5929 L -340.32203 1052.4528 L -340.32203 1055.319 L -312.2671 1067.4591 L -309.0994 1068.8299 L -281.1731 1080.9138 L -281.14093 1104.9367 L -309.0994 1092.8368 L -312.2671 1091.466 L -340.32203 1079.3259 L -340.32203 1082.2001 L -312.2671 1094.3403 L -312.2671 1118.3512 L -340.32203 1106.211 L -340.32203 1109.0772 L -312.2671 1121.1933 L -309.0994 1122.568 L -281.10073 1134.6841 L -281.0525 1160.1462 L -277.88078 1161.521 L -277.91696 1136.0669 L -249.80976 1148.2312 L -246.63805 1149.602 L -218.70772 1161.6938 L -218.61526 1187.176 L -215.43953 1188.5509 L -215.532 1163.0646 L -187.36046 1175.257 L -184.19278 1176.6278 L -154.55398 1189.2825 L -123.36351 1180.8407 L -123.36351 1178.3202 L -154.56604 1186.7178 L -184.20484 1173.7536 L -184.20484 1149.7547 L -154.56604 1162.4054 L -123.37557 1153.9636 L -123.37557 1151.4471 L -154.56604 1159.917 L -184.20484 1146.8885 L -187.37252 1145.5177 L -215.60837 1133.2932 L -215.67269 1109.2541 L -187.36046 1121.5068 L -184.19278 1122.8776 L -154.55398 1135.5283 L -123.36351 1127.0864 L -123.36351 1124.57 L -154.55398 1133.044 L -184.19278 1120.0114 L -184.19278 1096.0005 L -154.55398 1108.6511 L -123.36351 1100.2093 L -123.36351 1097.6929 L -154.55398 1106.1749 L -184.20484 1093.1343 L -187.37252 1091.7595 L -215.76112 1079.4746 L -215.82544 1055.4396 L -187.37252 1067.7486 L -184.20484 1069.1234 L -154.56604 1081.774 L -123.37557 1073.3322 L -123.37557 1070.8158 L -154.56604 1079.2294 L -184.20484 1066.2572 L -184.20484 1042.2463 L -154.56604 1054.8969 L -123.37557 1046.4551 L -123.37557 1043.9386 L -154.56604 1052.3804 L -184.20484 1039.38 L -187.37252 1038.0093 L -215.91388 1025.6641 L -215.97418 1001.6251 L -187.38458 1013.9984 L -184.2169 1015.3691 L -154.5781 1028.2891 L -123.38763 1019.582 L -123.38763 1017.0776 L -154.5781 1025.5878 L -184.2169 1012.519 L -184.2169 988.488 Z M -249.8379 1010.9794 L -278.126 998.7388 L -278.15816 974.7118 L -249.8379 986.9685 L -246.6662 988.3433 L -219.15393 1000.2503 L -219.0896 1024.2853 L -246.6662 1012.3542 Z M -246.6662 1042.0975 L -218.99715 1054.0608 L -218.93685 1078.0998 L -246.6501 1066.1205 L -249.82182 1064.7497 L -278.03756 1052.5252 L -278.06972 1028.4982 L -249.82182 1040.7267 Z M -281.3178 970.4708 L -309.0994 958.4512 L -309.0994 934.4403 L -281.36202 946.4478 L -278.1903 947.8186 L -249.83387 960.0914 L -249.83387 984.1143 L -278.15816 971.8576 Z M -281.24545 1024.2572 L -309.0994 1012.1974 L -309.0994 988.1946 L -281.2776 1000.2543 L -278.1059 1001.6251 L -249.82182 1013.8617 L -249.82182 1037.8726 L -278.07374 1025.648 Z M -281.1771 1078.0435 L -309.0994 1065.9597 L -309.0994 1041.9488 L -281.20525 1054.0085 L -278.03354 1055.3793 L -249.82182 1067.5918 L -249.82182 1091.6027 L -278.0054 1079.4063 Z M -249.82182 1145.369 L -277.91696 1133.2047 L -281.08867 1131.83 L -309.08332 1119.7139 L -309.08332 1095.703 L -281.1329 1107.807 L -277.96118 1109.1777 L -249.82182 1121.3581 Z M -249.82182 1118.4919 L -277.96118 1106.3116 L -277.99334 1082.2846 L -249.81378 1094.481 L -246.64207 1095.8517 L -218.84841 1107.8793 L -218.78812 1131.9184 L -246.64207 1119.8586 Z M -215.61239 1136.1795 L -187.37252 1148.4 L -187.37252 1172.4109 L -215.5521 1160.1864 L -218.7238 1158.8156 L -246.6501 1146.7277 L -246.6501 1122.7289 L -218.78812 1134.7886 Z M -215.75308 1082.3609 L -187.37252 1094.6418 L -187.37252 1118.6567 L -215.69279 1106.4 L -218.8645 1105.0252 L -246.6501 1093.0016 L -246.6501 1068.9746 L -218.91273 1080.974 Z M -215.89378 1028.5464 L -187.35242 1040.8875 L -187.35242 1064.8984 L -215.80936 1052.5855 L -218.9851 1051.2107 L -246.63 1039.2474 L -246.63 1015.2204 L -219.0494 1027.1555 Z M -187.35242 1011.1442 L -215.97016 998.7508 L -219.1459 997.38 L -246.6501 985.4771 L -246.6501 961.4622 L -219.20619 973.341 L -216.03448 974.7158 L -187.37252 987.1172 Z" fill="#793e2f"/>
        </g>
      </g>
      <g id="Group_104">
        <g id="Graphic_108">
          <path d="M 1036.0997 884.1754 L 1223.6244 964.5655 L 1192.434 973.0073 L 1006.678 892.6172 Z" fill="#c0644b"/>
        </g>
        <g id="Graphic_107">
          <path d="M 1223.6244 964.5655 L 1223.6244 1206.4636 L 1192.434 1214.9054 L 1192.434 973.0073 Z" fill="#ab5842"/>
        </g>
        <g id="Graphic_106">
          <path d="M 1006.678 892.6172 L 1006.678 1134.5152 L 1192.434 1214.9054 L 1192.434 973.0073 Z" fill="#a1523e"/>
        </g>
        <g id="Graphic_105">
          <path d="M 1192.434 1001.4 L 1223.6244 992.7009 L 1223.6244 990.1804 L 1192.434 998.6865 L 1130.9575 971.8456 L 1130.8972 946.3754 L 1161.5008 937.9336 L 1158.2848 936.5628 L 1127.7094 945.0046 L 1127.7697 970.4748 L 1068.8177 944.9524 L 1068.7896 919.4943 L 1098.8022 911.0525 L 1095.5863 909.6817 L 1065.6058 918.1235 L 1065.634 943.5776 L 1006.678 918.0592 L 1006.678 920.9254 L 1034.7329 933.0615 L 1034.7329 957.0724 L 1006.678 944.9323 L 1006.678 947.7985 L 1034.7329 959.9386 L 1037.9006 961.3134 L 1065.6862 973.337 L 1065.7184 997.36 L 1037.9006 985.3203 L 1034.7329 983.9455 L 1006.678 971.8054 L 1006.678 974.6716 L 1034.7329 986.8117 L 1034.7329 1010.8266 L 1006.678 998.6865 L 1006.678 1001.5527 L 1034.7329 1013.6928 L 1037.9006 1015.0636 L 1065.7586 1027.1234 L 1065.7907 1051.1463 L 1037.9006 1039.0866 L 1034.7329 1037.7158 L 1006.678 1025.5757 L 1006.678 1028.4419 L 1034.7329 1040.582 L 1034.7329 1064.5929 L 1006.678 1052.4528 L 1006.678 1055.319 L 1034.7329 1067.4591 L 1037.9006 1068.8299 L 1065.8269 1080.9138 L 1065.8591 1104.9367 L 1037.9006 1092.8368 L 1034.7329 1091.466 L 1006.678 1079.3259 L 1006.678 1082.2001 L 1034.7329 1094.3403 L 1034.7329 1118.3512 L 1006.678 1106.211 L 1006.678 1109.0772 L 1034.7329 1121.1933 L 1037.9006 1122.568 L 1065.8993 1134.6841 L 1065.9475 1160.1462 L 1069.1192 1161.521 L 1069.083 1136.0669 L 1097.1902 1148.2312 L 1100.362 1149.602 L 1128.2923 1161.6938 L 1128.3847 1187.176 L 1131.5605 1188.5509 L 1131.468 1163.0646 L 1159.6395 1175.257 L 1162.8072 1176.6278 L 1192.446 1189.2825 L 1223.6365 1180.8407 L 1223.6365 1178.3202 L 1192.434 1186.7178 L 1162.7952 1173.7536 L 1162.7952 1149.7547 L 1192.434 1162.4054 L 1223.6244 1153.9636 L 1223.6244 1151.4471 L 1192.434 1159.917 L 1162.7952 1146.8885 L 1159.6275 1145.5177 L 1131.3916 1133.2932 L 1131.3273 1109.2541 L 1159.6395 1121.5068 L 1162.8072 1122.8776 L 1192.446 1135.5283 L 1223.6365 1127.0864 L 1223.6365 1124.57 L 1192.446 1133.044 L 1162.8072 1120.0114 L 1162.8072 1096.0005 L 1192.446 1108.6511 L 1223.6365 1100.2093 L 1223.6365 1097.6929 L 1192.446 1106.1749 L 1162.7952 1093.1343 L 1159.6275 1091.7595 L 1131.2389 1079.4746 L 1131.1746 1055.4396 L 1159.6275 1067.7486 L 1162.7952 1069.1234 L 1192.434 1081.774 L 1223.6244 1073.3322 L 1223.6244 1070.8158 L 1192.434 1079.2294 L 1162.7952 1066.2572 L 1162.7952 1042.2463 L 1192.434 1054.8969 L 1223.6244 1046.4551 L 1223.6244 1043.9386 L 1192.434 1052.3804 L 1162.7952 1039.38 L 1159.6275 1038.0093 L 1131.0861 1025.6641 L 1131.0258 1001.6251 L 1159.6154 1013.9984 L 1162.7831 1015.3691 L 1192.4219 1028.2891 L 1223.6124 1019.582 L 1223.6124 1017.0776 L 1192.4219 1025.5878 L 1162.7831 1012.519 L 1162.7831 988.488 Z M 1097.1621 1010.9794 L 1068.874 998.7388 L 1068.8418 974.7118 L 1097.1621 986.9685 L 1100.3338 988.3433 L 1127.8461 1000.2503 L 1127.9104 1024.2853 L 1100.3338 1012.3542 Z M 1100.3338 1042.0975 L 1128.0028 1054.0608 L 1128.0631 1078.0998 L 1100.3499 1066.1205 L 1097.1782 1064.7497 L 1068.9624 1052.5252 L 1068.9303 1028.4982 L 1097.1782 1040.7267 Z M 1065.6822 970.4708 L 1037.9006 958.4512 L 1037.9006 934.4403 L 1065.638 946.4478 L 1068.8097 947.8186 L 1097.1661 960.0914 L 1097.1661 984.1143 L 1068.8418 971.8576 Z M 1065.7546 1024.2572 L 1037.9006 1012.1974 L 1037.9006 988.1946 L 1065.7224 1000.2543 L 1068.8941 1001.6251 L 1097.1782 1013.8617 L 1097.1782 1037.8726 L 1068.9263 1025.648 Z M 1065.8229 1078.0435 L 1037.9006 1065.9597 L 1037.9006 1041.9488 L 1065.7948 1054.0085 L 1068.9665 1055.3793 L 1097.1782 1067.5918 L 1097.1782 1091.6027 L 1068.9946 1079.4063 Z M 1097.1782 1145.369 L 1069.083 1133.2047 L 1065.9113 1131.83 L 1037.9167 1119.7139 L 1037.9167 1095.703 L 1065.8671 1107.807 L 1069.0388 1109.1777 L 1097.1782 1121.3581 Z M 1097.1782 1118.4919 L 1069.0388 1106.3116 L 1069.0067 1082.2846 L 1097.1862 1094.481 L 1100.3579 1095.8517 L 1128.1516 1107.8793 L 1128.2119 1131.9184 L 1100.3579 1119.8586 Z M 1131.3876 1136.1795 L 1159.6275 1148.4 L 1159.6275 1172.4109 L 1131.4479 1160.1864 L 1128.2762 1158.8156 L 1100.3499 1146.7277 L 1100.3499 1122.7289 L 1128.2119 1134.7886 Z M 1131.2469 1082.3609 L 1159.6275 1094.6418 L 1159.6275 1118.6567 L 1131.3072 1106.4 L 1128.1355 1105.0252 L 1100.3499 1093.0016 L 1100.3499 1068.9746 L 1128.0873 1080.974 Z M 1131.1062 1028.5464 L 1159.6476 1040.8875 L 1159.6476 1064.8984 L 1131.1906 1052.5855 L 1128.0149 1051.2107 L 1100.37 1039.2474 L 1100.37 1015.2204 L 1127.9506 1027.1555 Z M 1159.6476 1011.1442 L 1131.0298 998.7508 L 1127.8541 997.38 L 1100.3499 985.4771 L 1100.3499 961.4622 L 1127.7938 973.341 L 1130.9655 974.7158 L 1159.6275 987.1172 Z" fill="#793e2f"/>
        </g>
      </g>
      <g id="Group_74">
        <g id="Group_97">
          <g id="Graphic_103">
            <path d="M 445.2878 1419.9613 L 407.71963 1419.9613 L 365.8862 1395.8638 C 360.51244 1392.7552 351.0903 1393.1407 344.8731 1396.7313 L 304.46144 1419.9613 L 267.01378 1419.9613 L 267.01378 1445.1915 C 266.99836 1447.6203 268.415 1449.8303 270.6284 1450.8304 L 346.39125 1494.5675 C 351.765 1497.6761 361.18717 1497.2905 367.40435 1493.7 L 440.1309 1451.6979 C 442.7966 1450.491 444.71046 1448.065 445.2637 1445.1915 Z" fill="url(#Obj_Gradient)"/>
          </g>
          <g id="Graphic_102">
            <path d="M 269.39944 1446.9266 L 269.39944 1421.7205 L 306.8712 1421.7205 L 347.18647 1398.4422 C 353.42775 1394.8517 362.8258 1394.442 368.22367 1397.5506 L 410.033 1421.6482 L 445.2396 1421.6482 L 445.2396 1419.889 L 407.71963 1419.889 L 365.8862 1395.7915 C 360.51244 1392.6829 351.0903 1393.0684 344.8731 1396.659 L 304.46144 1419.9613 L 267.01378 1419.9613 L 267.01378 1445.1915 C 266.99836 1447.6203 268.415 1449.8303 270.6284 1450.8304 L 271.06217 1451.0713 C 269.91617 1450.0078 269.3062 1448.4872 269.39944 1446.9266 Z" fill="#d4088c"/>
          </g>
          <g id="Graphic_101">
            <path d="M 346.39125 1469.3373 L 270.7248 1425.6484 C 265.32694 1422.5398 265.9053 1417.1178 272.24295 1413.5996 L 344.9695 1371.5975 C 351.18667 1368.007 360.60883 1367.6214 365.9826 1370.73 L 441.74543 1414.4671 C 447.1192 1417.5757 446.44446 1422.9976 440.2273 1426.5159 L 367.50074 1468.518 C 361.18717 1472.0603 351.765 1472.4459 346.39125 1469.3373 Z" fill="url(#Obj_Gradient_2)"/>
          </g>
          <g id="Graphic_100">
            <path d="M 441.64904 1414.3466 L 365.8862 1370.6095 C 362.6192 1368.9305 358.94054 1368.2199 355.28326 1368.5612 C 357.95267 1368.651 360.56593 1369.3518 362.9222 1370.6095 L 438.68504 1414.3466 C 444.0588 1417.4552 443.38407 1422.8772 437.1669 1426.3954 L 364.44035 1468.3975 C 361.2359 1470.1453 357.6763 1471.1424 354.0302 1471.3133 C 358.67323 1471.6116 363.30682 1470.6014 367.40435 1468.3975 L 440.1309 1426.3954 C 446.34807 1422.8772 447.0228 1417.4552 441.64904 1414.3466 Z" fill="#6ee8fc"/>
          </g>
          <g id="Graphic_99">
            <path d="M 355.66882 1458.9272 C 353.19886 1458.9901 350.7532 1458.4264 348.56003 1457.2885 L 292.14757 1424.7327 C 290.3841 1423.9029 289.21813 1422.1724 289.11127 1420.2264 C 289.3952 1417.7318 290.9825 1415.5757 293.28015 1414.5635 L 347.42745 1383.2366 C 352.44566 1380.4439 358.49246 1380.2024 363.7174 1382.586 L 420.1299 1415.2141 C 421.88023 1416.0424 423.0364 1417.7627 423.1421 1419.6963 C 422.86754 1422.1873 421.2888 1424.3444 418.9973 1425.3592 L 364.85 1456.686 C 362.03043 1458.2029 358.87014 1458.9743 355.66882 1458.9272 Z M 356.60863 1382.2968 C 353.6316 1382.2714 350.6967 1383.001 348.0781 1384.4174 L 293.9308 1415.7443 C 292.04807 1416.5373 290.71473 1418.2542 290.41254 1420.2746 C 290.53534 1421.7564 291.46048 1423.0516 292.8223 1423.6483 L 349.23477 1456.2041 C 354.05046 1458.3817 359.6146 1458.1402 364.22347 1455.5535 L 418.37076 1424.2266 C 420.2601 1423.4293 421.59466 1421.7016 421.889 1419.6722 C 421.76285 1418.1975 420.83736 1416.911 419.47925 1416.3226 L 363.0668 1383.7427 C 361.07426 1382.711 358.85137 1382.205 356.60863 1382.2727 Z" fill="#480689"/>
          </g>
          <g id="Graphic_98">
            <path d="M 349.789 1469.3373 L 274.02618 1425.6484 C 268.6283 1422.5398 269.20666 1417.1178 275.54432 1413.5996 L 348.27086 1371.5975 C 351.42455 1369.874 354.9238 1368.8777 358.51234 1368.6817 C 353.7803 1368.3245 349.04548 1369.3367 344.8731 1371.5975 L 272.14656 1413.5996 C 265.9053 1417.1901 265.23055 1422.612 270.6284 1425.6484 L 346.39125 1469.3855 C 349.7158 1471.0732 353.45088 1471.7835 357.16288 1471.4338 C 354.582 1471.2778 352.0659 1470.5625 349.789 1469.3373 Z" fill="#d4088c"/>
          </g>
        </g>
        <g id="Group_90">
          <g id="Graphic_96">
            <path d="M 445.2878 1385.2367 L 407.71963 1385.2367 L 365.8862 1361.1391 C 360.51244 1358.0064 351.0903 1358.4161 344.8731 1362.0066 L 304.46144 1385.2367 L 267.01378 1385.2367 L 267.01378 1410.4428 C 267.0376 1412.87 268.49346 1415.0538 270.7248 1416.0093 L 346.48764 1459.7465 C 351.8614 1462.855 361.28356 1462.4695 367.50074 1458.879 L 440.2273 1416.8769 C 442.9034 1415.6833 444.8222 1413.251 445.36007 1410.3705 Z" fill="url(#Obj_Gradient_3)"/>
          </g>
          <g id="Graphic_95">
            <path d="M 269.39944 1412.1778 L 269.39944 1387.0922 L 306.8712 1387.0922 L 347.18647 1363.814 C 353.42775 1360.2234 362.8258 1359.8379 368.22367 1362.9464 L 410.033 1387.044 L 445.2396 1387.044 L 445.2396 1385.309 L 407.71963 1385.309 L 365.8862 1361.2114 C 360.51244 1358.0787 351.0903 1358.4884 344.8731 1362.079 L 304.46144 1385.2367 L 267.01378 1385.2367 L 267.01378 1410.4428 C 267.0376 1412.87 268.49346 1415.0538 270.7248 1416.0093 L 271.15856 1416.2503 C 269.9941 1415.2232 269.34902 1413.7298 269.39944 1412.1778 Z" fill="#d4088c"/>
          </g>
          <g id="Graphic_94">
            <path d="M 346.39125 1434.5886 L 270.7248 1390.8515 C 265.32694 1387.7429 265.9053 1382.3209 272.24295 1378.8027 L 344.9695 1336.8006 C 351.18667 1333.21 360.60883 1332.8244 365.9826 1335.933 L 441.74543 1379.6702 C 447.1192 1382.7788 446.44446 1388.2007 440.2273 1391.719 L 367.50074 1433.721 C 361.18717 1437.3116 351.765 1437.6972 346.39125 1434.5886 Z" fill="url(#Obj_Gradient_4)"/>
          </g>
          <g id="Graphic_93">
            <path d="M 441.64904 1379.5979 L 365.8862 1335.8607 C 362.6192 1334.1818 358.94054 1333.4712 355.28326 1333.8125 C 357.95267 1333.9023 360.56593 1334.603 362.9222 1335.8607 L 438.68504 1379.5979 C 444.0588 1382.7065 443.38407 1388.1284 437.1669 1391.6467 L 364.44035 1433.6488 C 361.24044 1435.4077 357.6782 1436.4055 354.0302 1436.5646 C 358.675 1436.8867 363.31514 1435.875 367.40435 1433.6488 L 440.1309 1391.6467 C 446.34807 1388.1284 447.0228 1382.7065 441.64904 1379.5979 Z" fill="#6ee8fc"/>
          </g>
          <g id="Graphic_92">
            <path d="M 355.66882 1424.1784 C 353.1981 1424.2488 350.7506 1423.6847 348.56003 1422.5398 L 292.14757 1389.984 C 290.3914 1389.1582 289.22674 1387.439 289.11127 1385.5018 C 289.4195 1383.011 290.99755 1380.8582 293.28015 1379.8148 L 347.42745 1348.4879 C 352.44886 1345.7066 358.4902 1345.4653 363.7174 1347.8373 L 420.1299 1380.4654 C 421.88023 1381.2937 423.0364 1383.014 423.1421 1384.9475 C 422.8757 1387.4476 421.2957 1389.6155 418.9973 1390.6346 L 364.85 1421.9614 C 362.0282 1423.4699 358.86803 1424.233 355.66882 1424.1784 Z M 356.60863 1347.548 C 353.6316 1347.5227 350.6967 1348.2523 348.0781 1349.6687 L 293.9308 1380.9955 C 292.04145 1381.7929 290.7069 1383.5205 290.41254 1385.55 C 290.5438 1387.0228 291.4676 1388.3069 292.8223 1388.8996 L 349.23477 1421.4795 C 354.0578 1423.6187 359.60394 1423.378 364.22347 1420.8289 L 418.37076 1389.502 C 420.2601 1388.7046 421.59466 1386.977 421.889 1384.9475 C 421.75774 1383.4747 420.83393 1382.1906 419.47925 1381.598 L 363.0668 1349.0421 C 361.0807 1347.9908 358.85466 1347.4758 356.60863 1347.548 Z" fill="#480689"/>
          </g>
          <g id="Graphic_91">
            <path d="M 349.789 1434.5886 L 274.02618 1390.8515 C 268.6283 1387.7429 269.20666 1382.3209 275.54432 1378.8027 L 348.27086 1336.8006 C 351.42455 1335.077 354.9238 1334.0808 358.51234 1333.8847 C 353.78106 1333.5385 349.04924 1334.55 344.8731 1336.8006 L 272.14656 1378.8027 C 265.9053 1382.3932 265.23055 1387.8152 270.6284 1390.8515 L 346.39125 1434.5886 C 349.7158 1436.2763 353.45088 1436.9866 357.16288 1436.6369 C 354.58192 1436.5188 352.0611 1435.8186 349.789 1434.5886 Z" fill="#d4088c"/>
          </g>
        </g>
        <g id="Group_83">
          <g id="Graphic_89">
            <path d="M 445.2878 1350.488 L 407.71963 1350.488 L 365.8862 1326.3904 C 360.51244 1323.2818 351.0903 1323.6674 344.8731 1327.2579 L 304.46144 1350.488 L 267.01378 1350.488 L 267.01378 1375.694 C 266.99212 1378.1247 268.41077 1380.3378 270.6284 1381.3329 L 346.39125 1425.07 C 351.765 1428.1786 361.18717 1427.793 367.40435 1424.2025 L 440.1309 1382.2727 C 442.807 1381.0791 444.72584 1378.6468 445.2637 1375.7664 Z" fill="url(#Obj_Gradient_5)"/>
          </g>
          <g id="Graphic_88">
            <path d="M 269.39944 1377.4532 L 269.39944 1352.223 L 306.8712 1352.223 L 347.18647 1328.9447 C 353.42775 1325.3542 362.8258 1324.9686 368.22367 1328.0772 L 410.033 1352.1748 L 445.2396 1352.1748 L 445.2396 1350.4398 L 407.71963 1350.4398 L 365.8862 1326.3422 C 360.51244 1323.2336 351.0903 1323.6192 344.8731 1327.2097 L 304.46144 1350.488 L 267.01378 1350.488 L 267.01378 1375.694 C 266.99212 1378.1247 268.41077 1380.3378 270.6284 1381.3329 L 271.06217 1381.5739 C 269.91423 1380.5218 269.30313 1379.0073 269.39944 1377.4532 Z" fill="#d4088c"/>
          </g>
          <g id="Graphic_87">
            <path d="M 346.39125 1399.864 L 270.7248 1356.1027 C 265.32694 1352.9941 265.9053 1347.5722 272.24295 1344.054 L 344.9695 1302.0518 C 351.18667 1298.4613 360.60883 1298.0757 365.9826 1301.1843 L 441.74543 1344.9214 C 447.1192 1348.03 446.44446 1353.4761 440.2273 1356.9702 L 367.50074 1398.9482 C 361.18717 1402.5629 351.765 1402.9725 346.39125 1399.864 Z" fill="url(#Obj_Gradient_6)"/>
          </g>
          <g id="Graphic_86">
            <path d="M 441.64904 1344.8491 L 365.8862 1301.112 C 362.61357 1299.4494 358.93967 1298.7397 355.28326 1299.0637 C 357.95267 1299.1536 360.56593 1299.8543 362.9222 1301.112 L 438.68504 1344.8491 C 444.0588 1347.9577 443.38407 1353.4038 437.1669 1356.898 L 364.44035 1398.876 C 361.23793 1400.6322 357.6782 1401.6375 354.0302 1401.8159 C 358.67632 1402.1172 363.31293 1401.098 367.40435 1398.876 L 440.1309 1356.898 C 446.34807 1353.3556 447.0228 1347.9577 441.64904 1344.8491 Z" fill="#6ee8fc"/>
          </g>
          <g id="Graphic_85">
            <path d="M 355.66882 1389.502 C 353.1981 1389.5724 350.7506 1389.0082 348.56003 1387.8634 L 292.14757 1355.3075 C 290.3914 1354.4818 289.22674 1352.7625 289.11127 1350.8254 C 289.3952 1348.3308 290.9825 1346.1746 293.28015 1345.1624 L 347.42745 1313.8355 C 352.44886 1311.0543 358.4902 1310.813 363.7174 1313.1849 L 420.1299 1345.7408 C 421.88743 1346.5606 423.04686 1348.2859 423.1421 1350.2229 C 422.86754 1352.714 421.2888 1354.871 418.9973 1355.8858 L 364.85 1387.2127 C 362.0349 1388.7463 358.87436 1389.5343 355.66882 1389.502 Z M 356.60863 1312.8716 C 353.62823 1312.843 350.69057 1313.5816 348.0781 1315.0163 L 293.9308 1346.3432 C 292.04444 1347.1444 290.7114 1348.8701 290.41254 1350.8976 C 290.54044 1352.3775 291.4639 1353.6704 292.8223 1354.2713 L 349.23477 1386.8272 C 354.0578 1388.9663 359.60394 1388.7256 364.22347 1386.1765 L 418.37076 1354.8497 C 420.2535 1354.0566 421.5868 1352.3397 421.889 1350.3193 C 421.7611 1348.8394 420.83765 1347.5466 419.47925 1346.9456 L 363.0668 1314.3898 C 361.0854 1313.3163 358.8619 1312.7687 356.60863 1312.7993 Z" fill="#480689"/>
          </g>
          <g id="Graphic_84">
            <path d="M 349.789 1399.864 L 274.02618 1356.1027 C 268.6283 1352.9941 269.20666 1347.5722 275.54432 1344.054 L 348.27086 1302.0518 C 351.4212 1300.3236 354.92338 1299.3348 358.51234 1299.1601 C 353.78257 1298.7942 349.0475 1299.7981 344.8731 1302.0518 L 272.14656 1344.054 C 265.9053 1347.6445 265.23055 1353.0664 270.6284 1356.1027 L 346.39125 1399.864 C 349.71824 1401.5434 353.45318 1402.2453 357.16288 1401.8882 C 354.5856 1401.7662 352.06734 1401.0749 349.789 1399.864 Z" fill="#d4088c"/>
          </g>
        </g>
        <g id="Graphic_82">
          <path d="M 445.2878 1315.7393 L 407.71963 1315.7393 L 365.8862 1291.6417 C 360.51244 1288.533 351.0903 1288.9186 344.8731 1292.5092 L 304.46144 1315.7393 L 267.01378 1315.7393 L 267.01378 1340.9694 C 267.0017 1343.3913 268.4188 1345.5926 270.6284 1346.5842 L 346.39125 1390.3213 C 351.765 1393.4299 361.18717 1393.0443 367.40435 1389.4538 L 440.1309 1347.4758 C 442.7966 1346.2689 444.71046 1343.8429 445.2637 1340.9694 Z" fill="url(#Obj_Gradient_7)"/>
        </g>
        <g id="Graphic_81">
          <path d="M 269.39944 1342.7045 L 269.39944 1317.4743 L 306.8712 1317.4743 L 347.18647 1294.196 C 353.42775 1290.6055 362.8258 1290.2199 368.22367 1293.3285 L 410.033 1317.4261 L 445.2396 1317.4261 L 445.2396 1315.691 L 407.71963 1315.691 L 365.8862 1291.5935 C 360.51244 1288.4849 351.0903 1288.8704 344.8731 1292.461 L 304.46144 1315.7393 L 267.01378 1315.7393 L 267.01378 1340.9694 C 267.0017 1343.3913 268.4188 1345.5926 270.6284 1346.5842 L 271.06217 1346.8492 C 269.91617 1345.7857 269.3062 1344.2652 269.39944 1342.7045 Z" fill="#d4088c"/>
        </g>
        <g id="Graphic_80">
          <path d="M 346.39125 1365.1152 L 270.7248 1321.3781 C 265.32694 1318.2695 265.9053 1312.8234 272.24295 1309.3293 L 344.9695 1267.3272 C 351.18667 1263.7366 360.60883 1263.3511 365.9826 1266.4597 L 441.74543 1310.1968 C 447.1192 1313.3054 446.44446 1318.7515 440.2273 1322.2456 L 367.50074 1364.2477 C 361.18717 1367.8142 351.765 1368.2238 346.39125 1365.1152 Z" fill="url(#Obj_Gradient_8)"/>
        </g>
        <g id="Graphic_79">
          <path d="M 441.64904 1310.1004 L 365.8862 1266.3633 C 362.61357 1264.7007 358.93967 1263.991 355.28326 1264.315 C 357.95267 1264.4049 360.56593 1265.1056 362.9222 1266.3633 L 438.68504 1310.1004 C 444.0588 1313.209 443.38407 1318.655 437.1669 1322.1492 L 364.44035 1364.1513 C 361.23152 1365.8883 357.6744 1366.8846 354.0302 1367.0671 C 358.67323 1367.3654 363.30682 1366.3552 367.40435 1364.1513 L 440.1309 1322.1492 C 446.34807 1318.655 447.0228 1313.209 441.64904 1310.1004 Z" fill="#6ee8fc"/>
        </g>
        <g id="Graphic_78">
          <path d="M 355.66882 1354.681 C 353.20084 1354.7524 350.75504 1354.1969 348.56003 1353.0664 L 292.14757 1320.4865 C 290.3914 1319.6608 289.22674 1317.9415 289.11127 1316.0043 C 289.3952 1313.5097 290.9825 1311.3536 293.28015 1310.3414 L 347.42745 1279.0145 C 352.44846 1276.2257 358.49703 1275.993 363.7174 1278.388 L 420.1299 1310.992 C 421.88023 1311.8203 423.0364 1313.5406 423.1421 1315.4742 C 422.86754 1317.9652 421.2888 1320.1223 418.9973 1321.1371 L 364.85 1352.464 C 362.02407 1353.9615 358.86674 1354.7239 355.66882 1354.681 Z M 356.60863 1278.0506 C 353.62823 1278.022 350.69057 1278.7605 348.0781 1280.1953 L 293.9308 1311.5222 C 292.05034 1312.331 290.72027 1314.0528 290.41254 1316.0766 C 290.54044 1317.5565 291.4639 1318.8493 292.8223 1319.4503 L 349.23477 1352.0061 C 354.05046 1354.1837 359.6146 1353.9422 364.22347 1351.3555 L 418.37076 1320.0286 C 420.2512 1319.2198 421.5813 1317.498 421.889 1315.4742 C 421.7611 1313.9943 420.83765 1312.7015 419.47925 1312.1005 L 363.0668 1279.5447 C 361.0765 1278.5047 358.85347 1277.9904 356.60863 1278.0506 Z" fill="url(#Obj_Gradient_9)"/>
        </g>
        <g id="Graphic_77">
          <path d="M 349.789 1365.1152 L 274.02618 1321.3781 C 268.6283 1318.2695 269.20666 1312.8234 275.54432 1309.3293 L 348.27086 1267.3272 C 351.42653 1265.6121 354.92567 1264.6241 358.51234 1264.4355 C 353.78257 1264.0696 349.0475 1265.0735 344.8731 1267.3272 L 272.14656 1309.3293 C 265.9053 1312.9198 265.23055 1318.3659 270.6284 1321.3781 L 346.39125 1365.1152 C 349.71434 1366.8062 353.45264 1367.5087 357.16288 1367.1394 C 354.5856 1367.0175 352.06734 1366.3262 349.789 1365.1152 Z" fill="#25bfec"/>
        </g>
        <g id="Graphic_76">
          <path d="M 369.52494 1379.1641 L 433.60044 1342.078 C 434.2558 1341.6103 434.64946 1340.8587 434.66074 1340.0537 L 434.66074 1337.0174 C 434.66074 1336.2463 434.1788 1335.8848 433.60044 1336.2222 L 369.52494 1373.2843 C 368.84456 1373.7324 368.4366 1374.4939 368.44055 1375.3085 L 368.44055 1378.3448 C 368.48874 1379.14 368.9707 1379.5015 369.52494 1379.1641 Z" fill="#6de0f6"/>
        </g>
        <g id="Graphic_75">
          <path d="M 432.1787 1341.3068 C 432.82813 1340.834 433.22015 1340.0857 433.239 1339.2826 L 433.239 1336.4873 L 433.57635 1336.2945 C 434.1547 1335.9571 434.63664 1336.2945 434.63664 1337.0897 L 434.63664 1340.126 C 434.62536 1340.931 434.2317 1341.6826 433.57635 1342.1502 L 369.52494 1379.1641 C 368.9225 1379.5015 368.44055 1379.1641 368.44055 1378.3448 L 368.44055 1378.152 Z" fill="#267fe5"/>
        </g>
      </g>
      <g id="Group_44">
        <g id="Group_67">
          <g id="Graphic_73">
            <path d="M 235.9816 830.2632 L 198.41346 830.2632 L 156.58004 806.1656 C 151.20627 803.057 141.78411 803.4426 135.56694 807.03315 L 95.15527 830.2632 L 57.70761 830.2632 L 57.70761 855.4934 C 57.69219 857.9222 59.108844 860.1322 61.32225 861.1322 L 137.08508 904.8694 C 142.45885 907.978 151.881 907.5924 158.09819 904.0019 L 230.82472 861.9998 C 233.49045 860.7928 235.4043 858.3669 235.9575 855.4934 Z" fill="url(#Obj_Gradient_10)"/>
          </g>
          <g id="Graphic_72">
            <path d="M 60.09327 857.2284 L 60.09327 832.0224 L 97.56503 832.0224 L 137.8803 808.7441 C 144.12158 805.1535 153.51964 804.7439 158.9175 807.8525 L 200.72683 831.9501 L 235.93341 831.9501 L 235.93341 830.1909 L 198.41346 830.1909 L 156.58004 806.0933 C 151.20627 802.9848 141.78411 803.3703 135.56694 806.9609 L 95.15527 830.2632 L 57.70761 830.2632 L 57.70761 855.4934 C 57.69219 857.9222 59.108844 860.1322 61.32225 861.1322 L 61.756006 861.3732 C 60.610004 860.3097 60.00002 858.7891 60.09327 857.2284 Z" fill="#d4088c"/>
          </g>
          <g id="Graphic_71">
            <path d="M 137.08508 879.6392 L 61.41864 835.9503 C 56.02078 832.8417 56.59912 827.4197 62.93679 823.9015 L 135.66333 781.8994 C 141.8805 778.3088 151.30266 777.9233 156.67643 781.0318 L 232.43926 824.769 C 237.81303 827.8776 237.1383 833.2995 230.92111 836.8178 L 158.19458 878.8199 C 151.881 882.3622 142.45885 882.7478 137.08508 879.6392 Z" fill="url(#Obj_Gradient_11)"/>
          </g>
          <g id="Graphic_70">
            <path d="M 232.34287 824.6485 L 156.58004 780.9114 C 153.31303 779.2324 149.63437 778.5218 145.9771 778.8631 C 148.6465 778.9529 151.25977 779.65365 153.61603 780.9114 L 229.37887 824.6485 C 234.75263 827.7571 234.0779 833.179 227.86072 836.6973 L 155.13418 878.6994 C 151.92974 880.4472 148.37012 881.4442 144.72402 881.6152 C 149.36706 881.9135 154.00066 880.9033 158.09819 878.6994 L 230.82472 836.6973 C 237.0419 833.179 237.71664 827.7571 232.34287 824.6485 Z" fill="#6ee8fc"/>
          </g>
          <g id="Graphic_69">
            <path d="M 146.36266 869.229 C 143.8927 869.292 141.44704 868.7282 139.25387 867.5904 L 82.8414 835.0346 C 81.07794 834.2048 79.91197 832.4743 79.8051 830.5283 C 80.08904 828.0337 81.67635 825.8775 83.97399 824.8654 L 138.12128 793.5385 C 143.13949 790.7458 149.1863 790.5043 154.41125 792.8879 L 210.82372 825.516 C 212.57406 826.3443 213.7302 828.0646 213.83592 829.9982 C 213.56138 832.4892 211.98261 834.6462 209.69113 835.6611 L 155.54384 866.988 C 152.72426 868.5047 149.56397 869.2761 146.36266 869.229 Z M 147.30246 792.5987 C 144.32544 792.5733 141.39055 793.3029 138.77192 794.7193 L 84.62462 826.04615 C 82.7419 826.8392 81.40857 828.5561 81.10637 830.5765 C 81.229175 832.0582 82.15431 833.3534 83.51613 833.9502 L 139.9286 866.506 C 144.7443 868.6836 150.30842 868.4421 154.9173 865.8554 L 209.0646 834.5285 C 210.95394 833.7311 212.2885 832.0035 212.58285 829.9741 C 212.45668 828.4993 211.5312 827.2129 210.17309 826.6245 L 153.76062 794.0445 C 151.7681 793.0129 149.5452 792.5069 147.30246 792.5746 Z" fill="#480689"/>
          </g>
          <g id="Graphic_68">
            <path d="M 140.48284 879.6392 L 64.72001 835.9503 C 59.32215 832.8417 59.90049 827.4197 66.23816 823.9015 L 138.9647 781.8994 C 142.11838 780.1759 145.61763 779.1796 149.20617 778.98355 C 144.47415 778.6264 139.73931 779.6386 135.56694 781.8994 L 62.8404 823.9015 C 56.59912 827.492 55.92439 832.914 61.32225 835.9503 L 137.08508 879.6874 C 140.40965 881.3751 144.14471 882.0854 147.8567 881.7357 C 145.27583 881.5797 142.75974 880.8644 140.48284 879.6392 Z" fill="#d4088c"/>
          </g>
        </g>
        <g id="Group_60">
          <g id="Graphic_66">
            <path d="M 235.9816 795.5386 L 198.41346 795.5386 L 156.58004 771.441 C 151.20627 768.3083 141.78411 768.718 135.56694 772.3085 L 95.15527 795.5386 L 57.70761 795.5386 L 57.70761 820.7447 C 57.73142 823.1719 59.187294 825.3557 61.41864 826.3112 L 137.18147 870.0484 C 142.55524 873.1569 151.9774 872.7714 158.19458 869.1808 L 230.92111 827.1787 C 233.59724 825.98515 235.51606 823.5528 236.0539 820.6724 Z" fill="url(#Obj_Gradient_12)"/>
          </g>
          <g id="Graphic_65">
            <path d="M 60.09327 822.4797 L 60.09327 797.3941 L 97.56503 797.3941 L 137.8803 774.1158 C 144.12158 770.5253 153.51964 770.1397 158.9175 773.2483 L 200.72683 797.3459 L 235.93341 797.3459 L 235.93341 795.6109 L 198.41346 795.6109 L 156.58004 771.5133 C 151.20627 768.3806 141.78411 768.7903 135.56694 772.3808 L 95.15527 795.5386 L 57.70761 795.5386 L 57.70761 820.7447 C 57.73142 823.1719 59.187294 825.3557 61.41864 826.3112 L 61.852396 826.5522 C 60.68793 825.525 60.04285 824.0316 60.09327 822.4797 Z" fill="#d4088c"/>
          </g>
          <g id="Graphic_64">
            <path d="M 137.08508 844.8905 L 61.41864 801.1533 C 56.02078 798.0447 56.59912 792.6228 62.93679 789.1045 L 135.66333 747.1024 C 141.8805 743.5119 151.30266 743.1263 156.67643 746.2349 L 232.43926 789.97205 C 237.81303 793.0806 237.1383 798.5026 230.92111 802.02085 L 158.19458 844.023 C 151.881 847.6135 142.45885 847.9991 137.08508 844.8905 Z" fill="url(#Obj_Gradient_13)"/>
          </g>
          <g id="Graphic_63">
            <path d="M 232.34287 789.8998 L 156.58004 746.1626 C 153.31303 744.4837 149.63437 743.773 145.9771 744.1143 C 148.6465 744.2042 151.25977 744.9049 153.61603 746.1626 L 229.37887 789.8998 C 234.75263 793.00835 234.0779 798.4303 227.86072 801.9486 L 155.13418 843.9507 C 151.93428 845.7096 148.37203 846.7074 144.72402 846.8665 C 149.36883 847.1886 154.00897 846.1769 158.09819 843.9507 L 230.82472 801.9486 C 237.0419 798.4303 237.71664 793.00835 232.34287 789.8998 Z" fill="#6ee8fc"/>
          </g>
          <g id="Graphic_62">
            <path d="M 146.36266 834.4803 C 143.89195 834.5507 141.44445 833.9865 139.25387 832.8417 L 82.8414 800.2858 C 81.08524 799.4601 79.92058 797.7408 79.8051 795.8037 C 80.11332 793.31285 81.69138 791.1601 83.97399 790.1166 L 138.12128 758.7898 C 143.1427 756.0085 149.18401 755.7672 154.41125 758.1391 L 210.82372 790.7673 C 212.57406 791.5955 213.7302 793.3159 213.83592 795.2494 C 213.56954 797.7494 211.98951 799.9174 209.69113 800.9365 L 155.54384 832.2633 C 152.72203 833.7717 149.56187 834.5348 146.36266 834.4803 Z M 147.30246 757.85 C 144.32544 757.8246 141.39055 758.5542 138.77192 759.97055 L 84.62462 791.2974 C 82.73528 792.0948 81.40072 793.8224 81.10637 795.8519 C 81.23765 797.3247 82.16145 798.6088 83.51613 799.2014 L 139.9286 831.7814 C 144.75164 833.9206 150.29777 833.6798 154.9173 831.1307 L 209.0646 799.8039 C 210.95394 799.0065 212.2885 797.2789 212.58285 795.2494 C 212.45157 793.7766 211.52777 792.4925 210.17309 791.8999 L 153.76062 759.344 C 151.77452 758.2927 149.5485 757.7777 147.30246 757.85 Z" fill="#480689"/>
          </g>
          <g id="Graphic_61">
            <path d="M 140.48284 844.8905 L 64.72001 801.1533 C 59.32215 798.0447 59.90049 792.6228 66.23816 789.1045 L 138.9647 747.1024 C 142.11838 745.37895 145.61763 744.3827 149.20617 744.1866 C 144.47489 743.84035 139.74308 744.8519 135.56694 747.1024 L 62.8404 789.1045 C 56.59912 792.6951 55.92439 798.117 61.32225 801.1533 L 137.08508 844.8905 C 140.40965 846.5782 144.14471 847.2884 147.8567 846.9388 C 145.27576 846.8207 142.75492 846.1205 140.48284 844.8905 Z" fill="#d4088c"/>
          </g>
        </g>
        <g id="Group_53">
          <g id="Graphic_59">
            <path d="M 235.9816 760.7899 L 198.41346 760.7899 L 156.58004 736.6923 C 151.20627 733.5837 141.78411 733.96924 135.56694 737.5598 L 95.15527 760.7899 L 57.70761 760.7899 L 57.70761 785.99595 C 57.685955 788.42655 59.1046 790.6396 61.32225 791.6348 L 137.08508 835.3719 C 142.45885 838.4805 151.881 838.0949 158.09819 834.5044 L 230.82472 792.5746 C 233.50085 791.381 235.41967 788.9487 235.9575 786.0682 Z" fill="url(#Obj_Gradient_14)"/>
          </g>
          <g id="Graphic_58">
            <path d="M 60.09327 787.7551 L 60.09327 762.5249 L 97.56503 762.5249 L 137.8803 739.2466 C 144.12158 735.6561 153.51964 735.2705 158.9175 738.3791 L 200.72683 762.4767 L 235.93341 762.4767 L 235.93341 760.7417 L 198.41346 760.7417 L 156.58004 736.6441 C 151.20627 733.5355 141.78411 733.92105 135.56694 737.5116 L 95.15527 760.7899 L 57.70761 760.7899 L 57.70761 785.99595 C 57.685955 788.42655 59.1046 790.6396 61.32225 791.6348 L 61.756006 791.8758 C 60.60806 790.8237 59.996966 789.3092 60.09327 787.7551 Z" fill="#d4088c"/>
          </g>
          <g id="Graphic_57">
            <path d="M 137.08508 810.1658 L 61.41864 766.4046 C 56.02078 763.296 56.59912 757.8741 62.93679 754.3558 L 135.66333 712.3537 C 141.8805 708.7632 151.30266 708.3776 156.67643 711.4862 L 232.43926 755.2233 C 237.81303 758.3319 237.1383 763.778 230.92111 767.2721 L 158.19458 809.2501 C 151.881 812.8648 142.45885 813.2744 137.08508 810.1658 Z" fill="url(#Obj_Gradient_15)"/>
          </g>
          <g id="Graphic_56">
            <path d="M 232.34287 755.151 L 156.58004 711.4139 C 153.3074 709.7513 149.6335 709.0416 145.9771 709.3656 C 148.6465 709.4555 151.25977 710.1562 153.61603 711.4139 L 229.37887 755.151 C 234.75263 758.2596 234.0779 763.7057 227.86072 767.1998 L 155.13418 809.1778 C 151.93176 810.93405 148.37203 811.9393 144.72402 812.1177 C 149.37015 812.4191 154.00676 811.3999 158.09819 809.1778 L 230.82472 767.1998 C 237.0419 763.6575 237.71664 758.2596 232.34287 755.151 Z" fill="#6ee8fc"/>
          </g>
          <g id="Graphic_55">
            <path d="M 146.36266 799.8039 C 143.89195 799.8743 141.44445 799.3101 139.25387 798.1652 L 82.8414 765.6094 C 81.08524 764.7837 79.92058 763.0644 79.8051 761.1272 C 80.08904 758.6326 81.67635 756.4765 83.97399 755.4643 L 138.12128 724.1374 C 143.1427 721.3561 149.18401 721.1148 154.41125 723.4868 L 210.82372 756.0426 C 212.58126 756.8625 213.7407 758.5878 213.83592 760.5248 C 213.56138 763.0159 211.98261 765.1729 209.69113 766.1877 L 155.54384 797.5146 C 152.72874 799.0481 149.5682 799.8362 146.36266 799.8039 Z M 147.30246 723.1735 C 144.32206 723.1449 141.3844 723.88345 138.77192 725.3182 L 84.62462 756.6451 C 82.73827 757.4463 81.40523 759.172 81.10637 761.1995 C 81.23427 762.6794 82.15774 763.97225 83.51613 764.5732 L 139.9286 797.129 C 144.75164 799.2682 150.29777 799.0275 154.9173 796.4784 L 209.0646 765.1515 C 210.94732 764.3585 212.28065 762.6416 212.58285 760.6212 C 212.45495 759.1413 211.53148 757.8485 210.17309 757.2475 L 153.76062 724.6917 C 151.77924 723.6182 149.55574 723.0706 147.30246 723.1012 Z" fill="#480689"/>
          </g>
          <g id="Graphic_54">
            <path d="M 140.48284 810.1658 L 64.72001 766.4046 C 59.32215 763.296 59.90049 757.8741 66.23816 754.3558 L 138.9647 712.3537 C 142.11502 710.6255 145.61721 709.63666 149.20617 709.462 C 144.4764 709.0961 139.74132 710.1 135.56694 712.3537 L 62.8404 754.3558 C 56.59912 757.94635 55.92439 763.3683 61.32225 766.4046 L 137.08508 810.1658 C 140.41208 811.8453 144.14701 812.5471 147.8567 812.19 C 145.27944 812.0681 142.76117 811.3768 140.48284 810.1658 Z" fill="#d4088c"/>
          </g>
        </g>
        <g id="Graphic_52">
          <path d="M 235.9816 726.0411 L 198.41346 726.0411 L 156.58004 701.9435 C 151.20627 698.83495 141.78411 699.2205 135.56694 702.81105 L 95.15527 726.0411 L 57.70761 726.0411 L 57.70761 751.2713 C 57.69554 753.6932 59.112644 755.8944 61.32225 756.8861 L 137.08508 800.6232 C 142.45885 803.7318 151.881 803.3462 158.09819 799.7557 L 230.82472 757.7777 C 233.49045 756.5708 235.4043 754.1448 235.9575 751.2713 Z" fill="url(#Obj_Gradient_16)"/>
        </g>
        <g id="Graphic_51">
          <path d="M 60.09327 753.0063 L 60.09327 727.7762 L 97.56503 727.7762 L 137.8803 704.4979 C 144.12158 700.90735 153.51964 700.5218 158.9175 703.6304 L 200.72683 727.728 L 235.93341 727.728 L 235.93341 725.9929 L 198.41346 725.9929 L 156.58004 701.89535 C 151.20627 698.78676 141.78411 699.1723 135.56694 702.7629 L 95.15527 726.0411 L 57.70761 726.0411 L 57.70761 751.2713 C 57.69554 753.6932 59.112644 755.8944 61.32225 756.8861 L 61.756006 757.1511 C 60.610004 756.0876 60.00002 754.567 60.09327 753.0063 Z" fill="#d4088c"/>
        </g>
        <g id="Graphic_50">
          <path d="M 137.08508 775.4171 L 61.41864 731.68 C 56.02078 728.5714 56.59912 723.1253 62.93679 719.6312 L 135.66333 677.6291 C 141.8805 674.0385 151.30266 673.653 156.67643 676.76156 L 232.43926 720.4987 C 237.81303 723.6073 237.1383 729.0533 230.92111 732.5475 L 158.19458 774.5496 C 151.881 778.116 142.45885 778.5257 137.08508 775.4171 Z" fill="url(#Obj_Gradient_17)"/>
        </g>
        <g id="Graphic_49">
          <path d="M 232.34287 720.4023 L 156.58004 676.6652 C 153.3074 675.0026 149.6335 674.29284 145.9771 674.6169 C 148.6465 674.70674 151.25977 675.40746 153.61603 676.6652 L 229.37887 720.4023 C 234.75263 723.5109 234.0779 728.95694 227.86072 732.4511 L 155.13418 774.4532 C 151.92536 776.1902 148.36825 777.1865 144.72402 777.369 C 149.36706 777.6673 154.00066 776.6571 158.09819 774.4532 L 230.82472 732.4511 C 237.0419 728.95694 237.71664 723.5109 232.34287 720.4023 Z" fill="#6ee8fc"/>
        </g>
        <g id="Graphic_48">
          <path d="M 146.36266 764.98285 C 143.89467 765.0543 141.44887 764.4988 139.25387 763.3683 L 82.8414 730.7884 C 81.08524 729.9626 79.92058 728.2434 79.8051 726.3062 C 80.08904 723.8116 81.67635 721.6554 83.97399 720.6433 L 138.12128 689.3164 C 143.1423 686.5276 149.19087 686.29494 154.41125 688.6899 L 210.82372 721.2939 C 212.57406 722.1222 213.7302 723.8425 213.83592 725.7761 C 213.56138 728.2671 211.98261 730.42416 209.69113 731.439 L 155.54384 762.7659 C 152.7179 764.2634 149.56058 765.0258 146.36266 764.98285 Z M 147.30246 688.3525 C 144.32206 688.3239 141.3844 689.0624 138.77192 690.4972 L 84.62462 721.82406 C 82.74417 722.6329 81.4141 724.3547 81.10637 726.3785 C 81.23427 727.8584 82.15774 729.1512 83.51613 729.7522 L 139.9286 762.308 C 144.7443 764.4856 150.30842 764.2441 154.9173 761.6574 L 209.0646 730.3305 C 210.94505 729.5216 212.27512 727.7998 212.58285 725.7761 C 212.45495 724.2962 211.53148 723.0033 210.17309 722.4024 L 153.76062 689.84655 C 151.77031 688.8065 149.5473 688.2923 147.30246 688.3525 Z" fill="url(#Obj_Gradient_18)"/>
        </g>
        <g id="Graphic_47">
          <path d="M 140.48284 775.4171 L 64.72001 731.68 C 59.32215 728.5714 59.90049 723.1253 66.23816 719.6312 L 138.9647 677.6291 C 142.12037 675.914 145.6195 674.926 149.20617 674.73736 C 144.4764 674.3715 139.74132 675.3754 135.56694 677.6291 L 62.8404 719.6312 C 56.59912 723.2217 55.92439 728.6678 61.32225 731.68 L 137.08508 775.4171 C 140.40817 777.108 144.14647 777.8105 147.8567 777.4413 C 145.27944 777.31935 142.76117 776.6281 140.48284 775.4171 Z" fill="#25bfec"/>
        </g>
        <g id="Graphic_46">
          <path d="M 160.21877 789.466 L 224.29428 752.3798 C 224.9496 751.9122 225.3433 751.1606 225.35457 750.3556 L 225.35457 747.3193 C 225.35457 746.5482 224.87262 746.1867 224.29428 746.5241 L 160.21877 783.5862 C 159.53839 784.0342 159.13045 784.7957 159.13438 785.6104 L 159.13438 788.6467 C 159.18258 789.4419 159.66453 789.8034 160.21877 789.466 Z" fill="#6de0f6"/>
        </g>
        <g id="Graphic_45">
          <path d="M 222.87252 751.6087 C 223.52196 751.13595 223.91398 750.3875 223.9328 749.5845 L 223.9328 746.7892 L 224.27018 746.5964 C 224.84852 746.259 225.33047 746.5964 225.33047 747.3916 L 225.33047 750.4279 C 225.3192 751.2329 224.9255 751.9845 224.27018 752.4521 L 160.21877 789.466 C 159.61633 789.8034 159.13438 789.466 159.13438 788.6467 L 159.13438 788.4539 Z" fill="#267fe5"/>
        </g>
      </g>
      <g id="Group_14">
        <g id="Group_37">
          <g id="Graphic_43">
            <path d="M 652.2878 829.1357 L 614.7196 829.1357 L 572.8862 805.0382 C 567.51244 801.9296 558.0903 802.3151 551.8731 805.9057 L 511.46144 829.1357 L 474.0138 829.1357 L 474.0138 854.3659 C 473.99836 856.7947 475.415 859.0047 477.6284 860.0048 L 553.39125 903.7419 C 558.765 906.8505 568.1872 906.4649 574.40435 902.8744 L 647.1309 860.8723 C 649.7966 859.6654 651.71046 857.2394 652.2637 854.3659 Z" fill="url(#Obj_Gradient_19)"/>
          </g>
          <g id="Graphic_42">
            <path d="M 476.39944 856.101 L 476.39944 830.8949 L 513.8712 830.8949 L 554.1865 807.6166 C 560.42775 804.0261 569.8258 803.6164 575.2237 806.725 L 617.033 830.8226 L 652.2396 830.8226 L 652.2396 829.0635 L 614.7196 829.0635 L 572.8862 804.9659 C 567.51244 801.8573 558.0903 802.2428 551.8731 805.8334 L 511.46144 829.1357 L 474.0138 829.1357 L 474.0138 854.3659 C 473.99836 856.7947 475.415 859.0047 477.6284 860.0048 L 478.0622 860.2457 C 476.91617 859.1822 476.3062 857.6616 476.39944 856.101 Z" fill="#d4088c"/>
          </g>
          <g id="Graphic_41">
            <path d="M 553.39125 878.5117 L 477.7248 834.8228 C 472.32694 831.7142 472.9053 826.2922 479.24295 822.774 L 551.9695 780.7719 C 558.1867 777.1813 567.6088 776.7958 572.9826 779.9044 L 648.7454 823.6415 C 654.1192 826.7501 653.44446 832.172 647.2273 835.6903 L 574.50074 877.6924 C 568.1872 881.2347 558.765 881.6203 553.39125 878.5117 Z" fill="url(#Obj_Gradient_20)"/>
          </g>
          <g id="Graphic_40">
            <path d="M 648.64904 823.521 L 572.8862 779.7839 C 569.6192 778.1049 565.94054 777.3943 562.28326 777.7356 C 564.9527 777.82545 567.56593 778.5262 569.9222 779.7839 L 645.685 823.521 C 651.0588 826.6296 650.3841 832.0516 644.1669 835.5698 L 571.44035 877.5719 C 568.2359 879.3197 564.6763 880.3168 561.0302 880.4877 C 565.6732 880.786 570.3068 879.7758 574.40435 877.5719 L 647.1309 835.5698 C 653.3481 832.0516 654.0228 826.6296 648.64904 823.521 Z" fill="#6ee8fc"/>
          </g>
          <g id="Graphic_39">
            <path d="M 562.6688 868.1016 C 560.19886 868.1645 557.7532 867.6008 555.56003 866.4629 L 499.14757 833.9071 C 497.3841 833.0773 496.21813 831.3468 496.11127 829.4008 C 496.3952 826.9062 497.9825 824.7501 500.28015 823.7379 L 554.42745 792.411 C 559.44566 789.6183 565.49246 789.3768 570.7174 791.7604 L 627.1299 824.3885 C 628.8802 825.2168 630.0364 826.9371 630.1421 828.8707 C 629.86754 831.3617 628.2888 833.5188 625.9973 834.5336 L 571.85 865.8605 C 569.0304 867.3773 565.87014 868.1487 562.6688 868.1016 Z M 563.6086 791.4712 C 560.6316 791.44585 557.6967 792.1754 555.0781 793.5918 L 500.9308 824.9187 C 499.04807 825.7117 497.71473 827.4286 497.41254 829.449 C 497.53534 830.9308 498.4605 832.226 499.8223 832.8227 L 556.23477 865.3785 C 561.05046 867.5561 566.6146 867.3146 571.2235 864.7279 L 625.3708 833.401 C 627.2601 832.6037 628.5947 830.876 628.889 828.8466 C 628.76285 827.3719 627.83736 826.0854 626.47925 825.497 L 570.0668 792.9171 C 568.07426 791.8854 565.8514 791.37945 563.6086 791.4471 Z" fill="#480689"/>
          </g>
          <g id="Graphic_38">
            <path d="M 556.789 878.5117 L 481.0262 834.8228 C 475.6283 831.7142 476.20666 826.2922 482.5443 822.774 L 555.27086 780.7719 C 558.42455 779.0484 561.9238 778.0521 565.51234 777.8561 C 560.7803 777.4989 556.0455 778.5111 551.8731 780.7719 L 479.14656 822.774 C 472.9053 826.3645 472.23055 831.7865 477.6284 834.8228 L 553.39125 878.5599 C 556.7158 880.2476 560.4509 880.9579 564.1629 880.6082 C 561.582 880.4522 559.0659 879.7369 556.789 878.5117 Z" fill="#d4088c"/>
          </g>
        </g>
        <g id="Group_30">
          <g id="Graphic_36">
            <path d="M 652.2878 794.4111 L 614.7196 794.4111 L 572.8862 770.3135 C 567.51244 767.1808 558.0903 767.5905 551.8731 771.181 L 511.46144 794.4111 L 474.0138 794.4111 L 474.0138 819.6172 C 474.0376 822.0444 475.49346 824.2282 477.7248 825.1837 L 553.48764 868.9209 C 558.8614 872.0295 568.28356 871.6439 574.50074 868.0534 L 647.2273 826.0513 C 649.9034 824.8577 651.8222 822.4254 652.3601 819.5449 Z" fill="url(#Obj_Gradient_21)"/>
          </g>
          <g id="Graphic_35">
            <path d="M 476.39944 821.3522 L 476.39944 796.2666 L 513.8712 796.2666 L 554.1865 772.9884 C 560.42775 769.3978 569.8258 769.01225 575.2237 772.1208 L 617.033 796.2184 L 652.2396 796.2184 L 652.2396 794.4834 L 614.7196 794.4834 L 572.8862 770.3858 C 567.51244 767.2531 558.0903 767.6628 551.8731 771.2533 L 511.46144 794.4111 L 474.0138 794.4111 L 474.0138 819.6172 C 474.0376 822.0444 475.49346 824.2282 477.7248 825.1837 L 478.15856 825.4247 C 476.9941 824.3976 476.349 822.9042 476.39944 821.3522 Z" fill="#d4088c"/>
          </g>
          <g id="Graphic_34">
            <path d="M 553.39125 843.763 L 477.7248 800.0259 C 472.32694 796.9173 472.9053 791.4953 479.24295 787.9771 L 551.9695 745.97495 C 558.1867 742.3844 567.6088 741.99885 572.9826 745.1074 L 648.7454 788.8446 C 654.1192 791.9532 653.44446 797.3751 647.2273 800.8934 L 574.50074 842.8955 C 568.1872 846.486 558.765 846.8716 553.39125 843.763 Z" fill="url(#Obj_Gradient_22)"/>
          </g>
          <g id="Graphic_33">
            <path d="M 648.64904 788.7723 L 572.8862 745.03515 C 569.6192 743.3562 565.94054 742.64555 562.28326 742.98685 C 564.9527 743.0767 567.56593 743.7774 569.9222 745.03515 L 645.685 788.7723 C 651.0588 791.8809 650.3841 797.3028 644.1669 800.8211 L 571.44035 842.8232 C 568.24044 844.5821 564.6782 845.5799 561.0302 845.739 C 565.675 846.0611 570.31514 845.0495 574.40435 842.8232 L 647.1309 800.8211 C 653.3481 797.3028 654.0228 791.8809 648.64904 788.7723 Z" fill="#6ee8fc"/>
          </g>
          <g id="Graphic_32">
            <path d="M 562.6688 833.3528 C 560.1981 833.4232 557.7506 832.8591 555.56003 831.7142 L 499.14757 799.1583 C 497.3914 798.3326 496.22674 796.61335 496.11127 794.6762 C 496.4195 792.1854 497.99755 790.03265 500.28015 788.9892 L 554.42745 757.6623 C 559.44886 754.881 565.4902 754.6397 570.7174 757.01165 L 627.1299 789.6398 C 628.8802 790.4681 630.0364 792.1884 630.1421 794.1219 C 629.8757 796.622 628.2957 798.7899 625.9973 799.809 L 571.85 831.1358 C 569.0282 832.6443 565.868 833.4073 562.6688 833.3528 Z M 563.6086 756.7225 C 560.6316 756.6971 557.6967 757.4267 555.0781 758.8431 L 500.9308 790.1699 C 499.04145 790.9673 497.7069 792.6949 497.41254 794.7244 C 497.5438 796.1972 498.4676 797.4813 499.8223 798.07395 L 556.23477 830.6539 C 561.0578 832.7931 566.60394 832.5523 571.2235 830.0033 L 625.3708 798.6764 C 627.2601 797.879 628.5947 796.1514 628.889 794.1219 C 628.75774 792.6491 627.8339 791.365 626.47925 790.7724 L 570.0668 758.2165 C 568.0807 757.1652 565.85466 756.6502 563.6086 756.7225 Z" fill="#480689"/>
          </g>
          <g id="Graphic_31">
            <path d="M 556.789 843.763 L 481.0262 800.0259 C 475.6283 796.9173 476.20666 791.4953 482.5443 787.9771 L 555.27086 745.97495 C 558.42455 744.2515 561.9238 743.2552 565.51234 743.0591 C 560.78106 742.7129 556.04924 743.7244 551.8731 745.97495 L 479.14656 787.9771 C 472.9053 791.5676 472.23055 796.9896 477.6284 800.0259 L 553.39125 843.763 C 556.7158 845.4507 560.4509 846.161 564.1629 845.8113 C 561.5819 845.6932 559.0611 844.993 556.789 843.763 Z" fill="#d4088c"/>
          </g>
        </g>
        <g id="Group_23">
          <g id="Graphic_29">
            <path d="M 652.2878 759.6624 L 614.7196 759.6624 L 572.8862 735.5648 C 567.51244 732.4562 558.0903 732.8418 551.8731 736.4323 L 511.46144 759.6624 L 474.0138 759.6624 L 474.0138 784.8685 C 473.9921 787.2991 475.41077 789.5122 477.6284 790.5073 L 553.39125 834.2444 C 558.765 837.353 568.1872 836.9675 574.40435 833.3769 L 647.1309 791.4471 C 649.807 790.2535 651.7258 787.8212 652.2637 784.9408 Z" fill="url(#Obj_Gradient_23)"/>
          </g>
          <g id="Graphic_28">
            <path d="M 476.39944 786.6276 L 476.39944 761.3974 L 513.8712 761.3974 L 554.1865 738.1191 C 560.42775 734.5286 569.8258 734.143 575.2237 737.2516 L 617.033 761.3492 L 652.2396 761.3492 L 652.2396 759.6142 L 614.7196 759.6142 L 572.8862 735.5166 C 567.51244 732.408 558.0903 732.7936 551.8731 736.3841 L 511.46144 759.6624 L 474.0138 759.6624 L 474.0138 784.8685 C 473.9921 787.2991 475.41077 789.5122 477.6284 790.5073 L 478.0622 790.7483 C 476.9142 789.6962 476.30313 788.1817 476.39944 786.6276 Z" fill="#d4088c"/>
          </g>
          <g id="Graphic_27">
            <path d="M 553.39125 809.0384 L 477.7248 765.2771 C 472.32694 762.1685 472.9053 756.7466 479.24295 753.2283 L 551.9695 711.2262 C 558.1867 707.6357 567.6088 707.2501 572.9826 710.3587 L 648.7454 754.0958 C 654.1192 757.2044 653.44446 762.6505 647.2273 766.1446 L 574.50074 808.1226 C 568.1872 811.7373 558.765 812.1469 553.39125 809.0384 Z" fill="url(#Obj_Gradient_24)"/>
          </g>
          <g id="Graphic_26">
            <path d="M 648.64904 754.02355 L 572.8862 710.2864 C 569.6136 708.6238 565.9397 707.9141 562.28326 708.2381 C 564.9527 708.328 567.56593 709.0287 569.9222 710.2864 L 645.685 754.02355 C 651.0588 757.1321 650.3841 762.5782 644.1669 766.0723 L 571.44035 808.0504 C 568.2379 809.8066 564.6782 810.8119 561.0302 810.9903 C 565.6763 811.2916 570.3129 810.2724 574.40435 808.0504 L 647.1309 766.0723 C 653.3481 762.53 654.0228 757.1321 648.64904 754.02355 Z" fill="#6ee8fc"/>
          </g>
          <g id="Graphic_25">
            <path d="M 562.6688 798.6764 C 560.1981 798.7468 557.7506 798.1826 555.56003 797.0378 L 499.14757 764.4819 C 497.3914 763.6562 496.22674 761.9369 496.11127 759.99975 C 496.3952 757.50515 497.9825 755.349 500.28015 754.3368 L 554.42745 723.00994 C 559.44886 720.22865 565.4902 719.9874 570.7174 722.3593 L 627.1299 754.9152 C 628.8874 755.735 630.0469 757.4603 630.1421 759.3973 C 629.86754 761.8884 628.2888 764.0454 625.9973 765.06025 L 571.85 796.3871 C 569.0349 797.9207 565.87436 798.7087 562.6688 798.6764 Z M 563.6086 722.046 C 560.6282 722.0174 557.6906 722.756 555.0781 724.1907 L 500.9308 755.5176 C 499.04444 756.3188 497.7114 758.0445 497.41254 760.072 C 497.54044 761.5519 498.4639 762.8448 499.8223 763.4457 L 556.23477 796.0016 C 561.0578 798.1407 566.60394 797.9 571.2235 795.3509 L 625.3708 764.02405 C 627.2535 763.231 628.5868 761.5141 628.889 759.4937 C 628.7611 758.0138 627.83765 756.721 626.47925 756.12 L 570.0668 723.5642 C 568.0854 722.4907 565.8619 721.9431 563.6086 721.97375 Z" fill="#480689"/>
          </g>
          <g id="Graphic_24">
            <path d="M 556.789 809.0384 L 481.0262 765.2771 C 475.6283 762.1685 476.20666 756.7466 482.5443 753.2283 L 555.27086 711.2262 C 558.4212 709.498 561.9234 708.5092 565.51234 708.3345 C 560.7826 707.9686 556.0475 708.9725 551.8731 711.2262 L 479.14656 753.2283 C 472.9053 756.8189 472.23055 762.2408 477.6284 765.2771 L 553.39125 809.0384 C 556.71824 810.7178 560.4532 811.4197 564.1629 811.0626 C 561.5856 810.9406 559.06734 810.2493 556.789 809.0384 Z" fill="#d4088c"/>
          </g>
        </g>
        <g id="Graphic_22">
          <path d="M 652.2878 724.91365 L 614.7196 724.91365 L 572.8862 700.8161 C 567.51244 697.7075 558.0903 698.093 551.8731 701.6836 L 511.46144 724.91365 L 474.0138 724.91365 L 474.0138 750.1438 C 474.0017 752.5657 475.4188 754.767 477.6284 755.7586 L 553.39125 799.4957 C 558.765 802.6043 568.1872 802.2187 574.40435 798.6282 L 647.1309 756.6502 C 649.7966 755.4433 651.71046 753.0173 652.2637 750.1438 Z" fill="url(#Obj_Gradient_25)"/>
        </g>
        <g id="Graphic_21">
          <path d="M 476.39944 751.8789 L 476.39944 726.6487 L 513.8712 726.6487 L 554.1865 703.3704 C 560.42775 699.7799 569.8258 699.3943 575.2237 702.5029 L 617.033 726.6005 L 652.2396 726.6005 L 652.2396 724.8655 L 614.7196 724.8655 L 572.8862 700.7679 C 567.51244 697.6593 558.0903 698.0448 551.8731 701.6354 L 511.46144 724.91365 L 474.0138 724.91365 L 474.0138 750.1438 C 474.0017 752.5657 475.4188 754.767 477.6284 755.7586 L 478.0622 756.02365 C 476.91617 754.9601 476.3062 753.4396 476.39944 751.8789 Z" fill="#d4088c"/>
        </g>
        <g id="Graphic_20">
          <path d="M 553.39125 774.2896 L 477.7248 730.5525 C 472.32694 727.4439 472.9053 721.99785 479.24295 718.5037 L 551.9695 676.5016 C 558.1867 672.91105 567.6088 672.5255 572.9826 675.6341 L 648.7454 719.3712 C 654.1192 722.4798 653.44446 727.92585 647.2273 731.42 L 574.50074 773.4221 C 568.1872 776.9886 558.765 777.3982 553.39125 774.2896 Z" fill="url(#Obj_Gradient_26)"/>
        </g>
        <g id="Graphic_19">
          <path d="M 648.64904 719.2748 L 572.8862 675.5377 C 569.6136 673.8751 565.9397 673.16536 562.28326 673.4894 C 564.9527 673.5793 567.56593 674.28 569.9222 675.5377 L 645.685 719.2748 C 651.0588 722.3834 650.3841 727.8295 644.1669 731.3236 L 571.44035 773.3257 C 568.2315 775.0627 564.6744 776.059 561.0302 776.2415 C 565.6732 776.5398 570.3068 775.5296 574.40435 773.3257 L 647.1309 731.3236 C 653.3481 727.8295 654.0228 722.3834 648.64904 719.2748 Z" fill="#6ee8fc"/>
        </g>
        <g id="Graphic_18">
          <path d="M 562.6688 763.8554 C 560.20084 763.9268 557.75504 763.3713 555.56003 762.2408 L 499.14757 729.6609 C 497.3914 728.83515 496.22674 727.1159 496.11127 725.1787 C 496.3952 722.6841 497.9825 720.528 500.28015 719.5158 L 554.42745 688.1889 C 559.44846 685.4001 565.497 685.1675 570.7174 687.5624 L 627.1299 720.1664 C 628.8802 720.9947 630.0364 722.71505 630.1421 724.6486 C 629.86754 727.13965 628.2888 729.2967 625.9973 730.3115 L 571.85 761.6384 C 569.02407 763.1359 565.86674 763.8983 562.6688 763.8554 Z M 563.6086 687.225 C 560.6282 687.1964 557.6906 687.93494 555.0781 689.3697 L 500.9308 720.6966 C 499.05034 721.5054 497.72027 723.22725 497.41254 725.251 C 497.54044 726.7309 498.4639 728.0237 499.8223 728.6247 L 556.23477 761.1805 C 561.05046 763.3581 566.6146 763.1166 571.2235 760.5299 L 625.3708 729.203 C 627.2512 728.3942 628.5813 726.67235 628.889 724.6486 C 628.7611 723.1687 627.83765 721.8759 626.47925 721.2749 L 570.0668 688.7191 C 568.0765 687.6791 565.8535 687.1648 563.6086 687.225 Z" fill="url(#Obj_Gradient_27)"/>
        </g>
        <g id="Graphic_17">
          <path d="M 556.789 774.2896 L 481.0262 730.5525 C 475.6283 727.4439 476.20666 721.99785 482.5443 718.5037 L 555.27086 676.5016 C 558.42653 674.7865 561.9257 673.7985 565.51234 673.6099 C 560.7826 673.244 556.0475 674.2479 551.8731 676.5016 L 479.14656 718.5037 C 472.9053 722.0942 472.23055 727.5403 477.6284 730.5525 L 553.39125 774.2896 C 556.71434 775.98055 560.45264 776.68305 564.1629 776.3138 C 561.5856 776.1919 559.06734 775.5006 556.789 774.2896 Z" fill="#25bfec"/>
        </g>
        <g id="Graphic_16">
          <path d="M 576.52494 788.3385 L 640.60044 751.2523 C 641.2558 750.7847 641.64946 750.0331 641.6607 749.2281 L 641.6607 746.1918 C 641.6607 745.4207 641.1788 745.0592 640.60044 745.3966 L 576.52494 782.4587 C 575.84456 782.9068 575.4366 783.66825 575.44055 784.4829 L 575.44055 787.5192 C 575.48874 788.3144 575.9707 788.6759 576.52494 788.3385 Z" fill="#6de0f6"/>
        </g>
        <g id="Graphic_15">
          <path d="M 639.1787 750.4812 C 639.8281 750.0085 640.22015 749.2601 640.239 748.457 L 640.239 745.6617 L 640.57635 745.4689 C 641.1547 745.1315 641.63664 745.4689 641.63664 746.2641 L 641.63664 749.3004 C 641.6254 750.1054 641.2317 750.857 640.57635 751.3246 L 576.52494 788.3385 C 575.9225 788.6759 575.44055 788.3385 575.44055 787.5192 L 575.44055 787.3264 Z" fill="#267fe5"/>
        </g>
      </g>
      <g id="Graphic_13">
        <path d="M -686.4892 1028.3632 C -693.0445 1028.3487 -699.5353 1029.657 -705.5731 1032.2096 C -705.4296 1030.9326 -705.3604 1029.6483 -705.366 1028.3632 C -705.3427 1015.2517 -712.3741 1003.1413 -723.7724 996.6612 C -735.17065 990.1812 -749.1735 990.3334 -760.4282 997.0597 C -762.9285 967.2418 -788.3479 944.608 -818.255 945.5699 C -848.1621 946.5319 -872.0745 970.7524 -872.6534 1000.6694 C -897.0146 990.9717 -924.816 996.8376 -943.1828 1015.5506 C -961.5496 1034.2635 -966.8954 1062.1696 -956.7446 1086.3455 C -946.5938 1110.5214 -922.9285 1126.2465 -896.708 1126.2385 L -686.4892 1126.2385 C -669.0055 1126.2385 -652.8499 1116.911 -644.108 1101.7697 C -635.3661 1086.6283 -635.3661 1067.9734 -644.108 1052.832 C -652.8499 1037.6907 -669.0055 1028.3632 -686.4892 1028.3632 Z" fill="url(#Obj_Gradient_28)"/>
      </g>
      <g id="Graphic_12">
        <path d="M 1753.8858 1060.0142 C 1747.3305 1059.9997 1740.8397 1061.3079 1734.8019 1063.8606 C 1734.9454 1062.5835 1735.0146 1061.2992 1735.009 1060.0142 C 1735.0323 1046.9027 1728.001 1034.7922 1716.6026 1028.3122 C 1705.2044 1021.8321 1691.2015 1021.9843 1679.9468 1028.7107 C 1677.4465 998.8927 1652.0271 976.2589 1622.12 977.2209 C 1592.2129 978.1828 1568.3005 1002.4033 1567.7216 1032.3203 C 1543.3604 1022.6227 1515.559 1028.4886 1497.1922 1047.2015 C 1478.8254 1065.9144 1473.4796 1093.8205 1483.6304 1117.9965 C 1493.7812 1142.1724 1517.4465 1157.8975 1543.667 1157.8894 L 1753.8858 1157.8894 C 1771.3695 1157.8894 1787.5251 1148.562 1796.267 1133.4206 C 1805.0089 1118.2793 1805.0089 1099.6244 1796.267 1084.483 C 1787.5251 1069.3416 1771.3695 1060.0142 1753.8858 1060.0142 Z" fill="url(#Obj_Gradient_29)"/>
      </g>
      <g id="Graphic_11">
        <path d="M 614.928 1264.2385 L 925.428 1264.2385 C 928.1894 1264.2385 930.428 1266.4771 930.428 1269.2385 L 930.428 1348.0705 C 930.428 1350.8319 928.1894 1353.0705 925.428 1353.0705 L 614.928 1353.0705 C 612.16654 1353.0705 609.928 1350.8319 609.928 1348.0705 L 609.928 1269.2385 C 609.928 1266.4771 612.16654 1264.2385 614.928 1264.2385 Z" fill="#a4f8fd"/>
        <path d="M 614.928 1264.2385 L 925.428 1264.2385 C 928.1894 1264.2385 930.428 1266.4771 930.428 1269.2385 L 930.428 1348.0705 C 930.428 1350.8319 928.1894 1353.0705 925.428 1353.0705 L 614.928 1353.0705 C 612.16654 1353.0705 609.928 1350.8319 609.928 1348.0705 L 609.928 1269.2385 C 609.928 1266.4771 612.16654 1264.2385 614.928 1264.2385 Z" stroke="#02329a" stroke-linecap="round" stroke-linejoin="round" stroke-width="1"/>
      </g>
      <g id="Graphic_10">
        <text transform="translate(378.17504 399.96143)" fill="#2e006e">
          <tspan font-family="Century Gothic" font-size="60" font-weight="700" fill="#2e006e" x="0" y="60">DMZ</tspan>
        </text>
      </g>
      <g id="Graphic_9">
        <rect x="454.9846" y="934.5404" width="216.38672" height="59" fill="white"/>
        <text transform="translate(459.9846 939.5404)" fill="#2e006e">
          <tspan font-family="Century Gothic" font-size="40" font-weight="700" fill="#2e006e" x="0" y="40">DNS server</tspan>
        </text>
      </g>
      <g id="Graphic_8">
        <rect x="33.873753" y="934.5404" width="225.9961" height="59" fill="white"/>
        <text transform="translate(38.873753 939.5404)" fill="#2e006e">
          <tspan font-family="Century Gothic" font-size="40" font-weight="700" fill="#2e006e" x="0" y="40">Web server</tspan>
        </text>
      </g>
      <g id="Graphic_7">
        <rect x="261.42858" y="1521.4444" width="196.38672" height="59" fill="white"/>
        <text transform="translate(266.42858 1526.4444)" fill="#2e006e">
          <tspan font-family="Century Gothic" font-size="40" font-weight="700" fill="#2e006e" x="0" y="40">FTP server</tspan>
        </text>
      </g>
      <g id="Graphic_6">
        <text transform="translate(675.3635 1284.1545)" fill="#2e006e">
          <tspan font-family="Century Gothic" font-size="40" font-weight="700" fill="#2e006e" x="0" y="40">Honeypot</tspan>
        </text>
      </g>
      <g id="Graphic_5">
        <rect x="1037.7744" y="1222.5404" width="154.76562" height="59" fill="white"/>
        <text transform="translate(1042.7744 1227.5404)" fill="#2e006e">
          <tspan font-family="Century Gothic" font-size="40" font-weight="700" fill="#2e006e" x="0" y="40">Firewall</tspan>
        </text>
      </g>
      <g id="Graphic_4">
        <rect x="-317.32203" y="1222.5404" width="154.76562" height="59" fill="white"/>
        <text transform="translate(-312.32203 1227.5404)" fill="#2e006e">
          <tspan font-family="Century Gothic" font-size="40" font-weight="700" fill="#2e006e" x="0" y="40">Firewall</tspan>
        </text>
      </g>
      <g id="Graphic_3">
        <text transform="translate(-873.2806 1153.7473)" fill="#2e006e">
          <tspan font-family="Century Gothic" font-size="40" font-weight="700" fill="#2e006e" x="0" y="40">Internet</tspan>
        </text>
      </g>
      <g id="Graphic_2">
        <text transform="translate(1453.491 1185.5404)" fill="#2e006e">
          <tspan font-family="Century Gothic" font-size="40" font-weight="700" fill="#2e006e" x="0" y="40">Production network</tspan>
        </text>
      </g>
    </g>
  </g>
</svg>
