<?xml version="1.0" encoding="utf-8"?>
<svg version="1.1" viewBox="2065 1166 2435 768" width="2435" height="768" xmlns="http://www.w3.org/2000/svg">
  <defs>
    <marker orient="auto" overflow="visible" markerUnits="strokeWidth" id="FilledArrow_Marker" stroke-linejoin="miter" stroke-miterlimit="10" viewBox="-4 -2 6 4" markerWidth="6" markerHeight="4" color="#94091d">
      <g>
        <path d="M -2.311111 0 L 0 .8666667 L 0 -.8666667 Z" fill="currentColor" stroke="currentColor" stroke-width="1"/>
      </g>
    </marker>
    <filter id="Shadow" filterUnits="userSpaceOnUse" x="1821.5" y="1089.2">
      <feGaussianBlur in="SourceAlpha" result="blur" stdDeviation="1.744"/>
      <feOffset in="blur" result="offset" dx="5" dy="7"/>
      <feFlood flood-color="black" flood-opacity=".7626265" result="flood"/>
      <feComposite in="flood" in2="offset" operator="in" result="color"/>
      <feMerge>
        <feMergeNode in="color"/>
        <feMergeNode in="SourceGraphic"/>
      </feMerge>
    </filter>
  </defs>
  <g id="Canvas_1" stroke-dasharray="none" stroke="none" fill-opacity="1" stroke-opacity="1" fill="none">
    <title>Canvas 1</title>
    <g id="Canvas_1_Layer_1">
      <title>Layer 1</title>
      <g id="Graphic_3">
        <path d="M 2550.2984 1216.4283 L 3180.526 1214.0915 C 3202.617 1214.0096 3220.592 1231.8517 3220.674 1253.943 L 3222.0056 1613.0838 C 3222.0875 1635.175 3204.2454 1653.15 3182.154 1653.2319 C 3182.154 1653.2319 3182.154 1653.2319 3182.154 1653.2319 L 2551.9267 1655.5687 C 2529.8354 1655.6506 2511.8605 1637.8085 2511.7786 1615.7173 L 2510.447 1256.5764 C 2510.365 1234.4852 2528.207 1216.5103 2550.2984 1216.4283 C 2550.2984 1216.4283 2550.2984 1216.4283 2550.2984 1216.4283 Z" fill="white"/>
        <path d="M 2550.2984 1216.4283 L 3180.526 1214.0915 C 3202.617 1214.0096 3220.592 1231.8517 3220.674 1253.943 L 3222.0056 1613.0838 C 3222.0875 1635.175 3204.2454 1653.15 3182.154 1653.2319 C 3182.154 1653.2319 3182.154 1653.2319 3182.154 1653.2319 L 2551.9267 1655.5687 C 2529.8354 1655.6506 2511.8605 1637.8085 2511.7786 1615.7173 L 2510.447 1256.5764 C 2510.365 1234.4852 2528.207 1216.5103 2550.2984 1216.4283 C 2550.2984 1216.4283 2550.2984 1216.4283 2550.2984 1216.4283 Z" stroke="#380093" stroke-linecap="round" stroke-linejoin="round" stroke-dasharray="20.0,20.0" stroke-width="10"/>
      </g>
      <g id="Graphic_4">
        <path d="M 2591.107 1167.1799 L 2899.326 1166.0371 C 2904.849 1166.0166 2909.3426 1170.4771 2909.363 1176 C 2909.363 1176 2909.363 1176 2909.363 1176 L 2909.653 1254.1748 C 2909.6734 1259.6976 2905.213 1264.1913 2899.69 1264.2118 L 2591.4712 1265.3546 C 2585.9483 1265.3751 2581.4546 1260.9146 2581.434 1255.3918 C 2581.434 1255.3918 2581.434 1255.3918 2581.434 1255.3918 L 2581.1443 1177.217 C 2581.1238 1171.6941 2585.5843 1167.2004 2591.107 1167.1799 Z" fill="#ecdda4"/>
      </g>
      <g id="Graphic_5">
        <path d="M 2988.746 1497.5656 L 3135.1284 1497.0228 C 3140.651 1497.0024 3145.145 1501.4629 3145.1654 1506.9857 C 3145.1654 1506.9857 3145.1654 1506.9857 3145.1654 1506.9857 L 3145.4047 1571.5226 C 3145.425 1577.0454 3140.9646 1581.5392 3135.442 1581.5596 L 2989.0593 1582.1024 C 2983.5365 1582.1229 2979.0428 1577.6624 2979.0223 1572.1396 L 2978.783 1507.6026 C 2978.7625 1502.0798 2983.223 1497.5861 2988.746 1497.5656 C 2988.746 1497.5656 2988.746 1497.5656 2988.746 1497.5656 Z" fill="#033399"/>
      </g>
      <g id="Graphic_6">
        <path d="M 2793.2693 1498.2904 L 2939.652 1497.7477 C 2945.1746 1497.7272 2949.6684 1502.1877 2949.689 1507.7105 C 2949.689 1507.7105 2949.689 1507.7105 2949.689 1507.7105 L 2949.928 1572.2474 C 2949.9486 1577.7702 2945.488 1582.264 2939.9653 1582.2844 L 2793.5828 1582.8272 C 2788.06 1582.8477 2783.5663 1578.3872 2783.5458 1572.8644 L 2783.3065 1508.3274 C 2783.286 1502.8046 2787.7465 1498.3109 2793.2693 1498.2904 C 2793.2693 1498.2904 2793.2693 1498.2904 2793.2693 1498.2904 Z" fill="#033399"/>
      </g>
      <g id="Graphic_7">
        <path d="M 2597.7928 1499.0152 L 2744.1753 1498.4725 C 2749.698 1498.452 2754.1918 1502.9125 2754.2123 1508.4353 C 2754.2123 1508.4353 2754.2123 1508.4353 2754.2123 1508.4353 L 2754.4516 1572.9722 C 2754.472 1578.495 2750.0115 1582.9888 2744.4887 1583.0092 L 2598.1062 1583.552 C 2592.5834 1583.5725 2588.0897 1579.112 2588.0692 1573.5892 L 2587.83 1509.0522 C 2587.8095 1503.5294 2592.27 1499.0357 2597.7928 1499.0152 C 2597.7928 1499.0152 2597.7928 1499.0152 2597.7928 1499.0152 Z" fill="#033399"/>
      </g>
      <g id="Graphic_23">
        <path d="M 2782.509 1744.2854 L 3757.467 1740.6703 C 3762.9896 1740.6499 3767.4834 1745.1104 3767.504 1750.6332 C 3767.504 1750.6332 3767.504 1750.6332 3767.504 1750.6332 L 3767.7937 1828.808 C 3767.814 1834.3308 3763.3537 1838.8245 3757.831 1838.845 L 2782.873 1842.46 C 2777.35 1842.4805 2772.8563 1838.02 2772.836 1832.4972 C 2772.836 1832.4972 2772.836 1832.4972 2772.836 1832.4972 L 2772.546 1754.3224 C 2772.5255 1748.7996 2776.986 1744.3059 2782.509 1744.2854 Z" fill="#e8c02b"/>
      </g>
      <g id="Graphic_41">
        <path d="M 3355.736 1216.2538 L 3985.9637 1213.917 C 4008.055 1213.835 4026.03 1231.6771 4026.1117 1253.7683 L 4027.4434 1612.9092 C 4027.5253 1635.0005 4009.683 1652.9754 3987.592 1653.0573 C 3987.592 1653.0573 3987.592 1653.0573 3987.592 1653.0573 L 3357.3645 1655.394 C 3335.2732 1655.476 3317.2983 1637.634 3317.2164 1615.5427 L 3315.8848 1256.4018 C 3315.803 1234.3106 3333.645 1216.3357 3355.736 1216.2538 C 3355.736 1216.2538 3355.736 1216.2538 3355.736 1216.2538 Z" fill="white"/>
        <path d="M 3355.736 1216.2538 L 3985.9637 1213.917 C 4008.055 1213.835 4026.03 1231.6771 4026.1117 1253.7683 L 4027.4434 1612.9092 C 4027.5253 1635.0005 4009.683 1652.9754 3987.592 1653.0573 C 3987.592 1653.0573 3987.592 1653.0573 3987.592 1653.0573 L 3357.3645 1655.394 C 3335.2732 1655.476 3317.2983 1637.634 3317.2164 1615.5427 L 3315.8848 1256.4018 C 3315.803 1234.3106 3333.645 1216.3357 3355.736 1216.2538 C 3355.736 1216.2538 3355.736 1216.2538 3355.736 1216.2538 Z" stroke="#380093" stroke-linecap="round" stroke-linejoin="round" stroke-dasharray="20.0,20.0" stroke-width="10"/>
      </g>
      <g id="Graphic_39">
        <path d="M 3598.707 1497.5656 L 3745.0896 1497.0228 C 3750.6124 1497.0024 3755.106 1501.4629 3755.1266 1506.9857 C 3755.1266 1506.9857 3755.1266 1506.9857 3755.1266 1506.9857 L 3755.366 1571.5226 C 3755.3864 1577.0454 3750.926 1581.5392 3745.403 1581.5596 L 3599.0206 1582.1024 C 3593.4978 1582.1229 3589.004 1577.6624 3588.9836 1572.1396 L 3588.7443 1507.6026 C 3588.724 1502.0798 3593.1843 1497.5861 3598.707 1497.5656 C 3598.707 1497.5656 3598.707 1497.5656 3598.707 1497.5656 Z" fill="#8971ec"/>
      </g>
      <g id="Graphic_37">
        <path d="M 3389.4593 1497.5656 L 3535.842 1497.0228 C 3541.3646 1497.0024 3545.8584 1501.4629 3545.879 1506.9857 C 3545.879 1506.9857 3545.879 1506.9857 3545.879 1506.9857 L 3546.118 1571.5226 C 3546.1386 1577.0454 3541.678 1581.5392 3536.1553 1581.5596 L 3389.7728 1582.1024 C 3384.25 1582.1229 3379.7562 1577.6624 3379.7358 1572.1396 L 3379.4965 1507.6026 C 3379.476 1502.0798 3383.9365 1497.5861 3389.4593 1497.5656 C 3389.4593 1497.5656 3389.4593 1497.5656 3389.4593 1497.5656 Z" fill="#8971ec"/>
      </g>
      <g id="Graphic_36">
        <path d="M 3807.955 1497.5656 L 3954.3374 1497.0228 C 3959.86 1497.0024 3964.354 1501.4629 3964.3744 1506.9857 C 3964.3744 1506.9857 3964.3744 1506.9857 3964.3744 1506.9857 L 3964.6137 1571.5226 C 3964.634 1577.0454 3960.1737 1581.5392 3954.651 1581.5596 L 3808.2684 1582.1024 C 3802.7456 1582.1229 3798.252 1577.6624 3798.2314 1572.1396 L 3797.992 1507.6026 C 3797.9716 1502.0798 3802.432 1497.5861 3807.955 1497.5656 C 3807.955 1497.5656 3807.955 1497.5656 3807.955 1497.5656 Z" fill="#8971ec"/>
      </g>
      <g id="Line_25">
        <line x1="3767.028" y1="1586.6842" x2="3390.2937" y2="1742.0318" marker-start="url(#FilledArrow_Marker)" stroke="#94091d" stroke-linecap="round" stroke-linejoin="round" stroke-width="9"/>
      </g>
      <g id="Line_26">
        <line x1="3575.5243" y1="1600.0923" x2="3348.9194" y2="1742.1852" marker-start="url(#FilledArrow_Marker)" stroke="#94091d" stroke-linecap="round" stroke-linejoin="round" stroke-width="9"/>
      </g>
      <g id="Line_28">
        <line x1="3414.985" y1="1603.3783" x2="3308.0526" y2="1742.3367" marker-start="url(#FilledArrow_Marker)" stroke="#94091d" stroke-linecap="round" stroke-linejoin="round" stroke-width="9"/>
      </g>
      <g id="Graphic_43">
        <path d="M 3403.6384 1167.1799 L 3711.8573 1166.0371 C 3717.38 1166.0166 3721.874 1170.4771 3721.8943 1176 C 3721.8943 1176 3721.8943 1176 3721.8943 1176 L 3722.184 1254.1748 C 3722.2047 1259.6976 3717.744 1264.1913 3712.2213 1264.2118 L 3404.0024 1265.3546 C 3398.4796 1265.3751 3393.986 1260.9146 3393.9654 1255.3918 C 3393.9654 1255.3918 3393.9654 1255.3918 3393.9654 1255.3918 L 3393.6755 1177.217 C 3393.655 1171.6941 3398.1156 1167.2004 3403.6384 1167.1799 Z" fill="#8971ec"/>
      </g>
    </g>
    <g id="Canvas_1_TEXTS">
      <title>TEXTS</title>
      <g id="Graphic_11">
        <text transform="translate(3183.1703 1761.0652)" fill="#2500a1" style="white-space: pre;">
          <tspan font-family="Century Gothic" font-size="50" font-weight="700" fill="#2500a1" x="0" y="50">service</tspan>
        </text>
      </g>
      <g id="Graphic_13">
        <text transform="translate(2738.6144 1329.6708)" fill="#2500a1" style="white-space: pre;">
          <tspan font-family="Century Gothic" font-size="50" font-weight="700" fill="#2500a1" x="0" y="50">ReplicaSet</tspan>
        </text>
      </g>
      <g id="Graphic_14" filter="url(#Shadow)">
        <text transform="translate(2622.1295 1510.5122)" fill="white" style="white-space: pre;">
          <tspan font-family="Century Gothic" font-size="50" font-weight="700" fill="white" x="0" y="50">pod</tspan>
        </text>
      </g>
      <g id="Graphic_18">
        <text transform="translate(2070.4615 1343.3301)" fill="#2500a1" style="white-space: pre;"><tspan x="0" dy="1em">​</tspan>          <tspan font-family="Century Gothic" font-size="50" font-weight="700" fill="#2500a1" x="0" y="50">- labels:</tspan><tspan x="0" dy="1em">​</tspan>          <tspan font-family="Century Gothic" font-size="50" font-weight="700" fill="#2500a1" x="0" y="111">  - app: hello</tspan><tspan x="0" dy="1em">​</tspan>          <tspan font-family="Century Gothic" font-size="50" font-weight="700" fill="#2500a1" x="0" y="172">  - version: v1</tspan><tspan x="0" dy="1em">​</tspan>        </text>
      </g>
      <g id="Graphic_19">
        <text transform="translate(3881.1982 1745.6333)" style="fill: rgb(178, 107, 46); font-size: 50px; font-weight: 700; white-space: pre;">selector:<tspan x="0" dy="1em">​</tspan>- app: hello<tspan x="0" dy="1em">​</tspan>- version: v2</text>
      </g>
      <g id="Graphic_20" filter="url(#Shadow)">
        <text transform="translate(2817.215 1510.5122)" fill="white" style="white-space: pre;">
          <tspan font-family="Century Gothic" font-size="50" font-weight="700" fill="white" x="0" y="50">pod</tspan>
        </text>
      </g>
      <g id="Graphic_21" filter="url(#Shadow)">
        <text transform="translate(3013.0826 1510.5122)" fill="white" style="white-space: pre;">
          <tspan font-family="Century Gothic" font-size="50" font-weight="700" fill="white" x="0" y="50">pod</tspan>
        </text>
      </g>
      <g id="Graphic_24">
        <text transform="translate(3410.42 1185.1958)" fill="#2500a1" style="white-space: pre;">
          <tspan font-family="Century Gothic" font-size="50" font-weight="700" fill="#2500a1" x="0" y="50">deployment</tspan>
        </text>
      </g>
      <g id="Graphic_35">
        <text transform="translate(3413.9665 1510.5122)" fill="#2600a1" style="white-space: pre;">
          <tspan font-family="Century Gothic" font-size="50" font-weight="700" fill="#2600a1" x="0" y="50">pod</tspan>
        </text>
      </g>
      <g id="Graphic_33">
        <text transform="translate(3544.052 1330.0372)" fill="#2600a1" style="white-space: pre;">
          <tspan font-family="Century Gothic" font-size="50" font-weight="700" fill="#2600a1" x="0" y="50">ReplicaSet</tspan>
        </text>
      </g>
      <g id="Graphic_32">
        <text transform="translate(4119.5273 1343.1555)" fill="#673fbe" style="white-space: pre;"><tspan x="0" dy="1em">​</tspan>          <tspan font-family="Century Gothic" font-size="50" font-weight="700" fill="#673fbe" x="0" y="50">- labels: </tspan><tspan x="0" dy="1em">​</tspan>          <tspan font-family="Century Gothic" font-size="50" font-weight="700" fill="#673fbe" x="0" y="111">  - app: hello</tspan><tspan x="0" dy="1em">​</tspan>          <tspan font-family="Century Gothic" font-size="50" font-weight="700" fill="#673fbe" x="0" y="172">  - version: v2</tspan><tspan x="0" dy="1em">​</tspan>        </text>
      </g>
      <g id="Graphic_31">
        <text transform="translate(3622.653 1510.5122)" fill="#2600a1" style="white-space: pre;">
          <tspan font-family="Century Gothic" font-size="50" font-weight="700" fill="#2600a1" x="0" y="50">pod</tspan>
        </text>
      </g>
      <g id="Graphic_30">
        <text transform="translate(3832.2917 1510.5122)" fill="#2600a1" style="white-space: pre;">
          <tspan font-family="Century Gothic" font-size="50" font-weight="700" fill="#2600a1" x="0" y="50">pod</tspan>
        </text>
      </g>
      <g id="Graphic_42">
        <text transform="translate(2597.8888 1185.1958)" fill="#2500a1" style="white-space: pre;">
          <tspan font-family="Century Gothic" font-size="50" font-weight="700" fill="#2500a1" x="0" y="50">deployment</tspan>
        </text>
      </g>
    </g>
  </g>
</svg>