<?xml version="1.0" encoding="UTF-8" standalone="no"?>
<!DOCTYPE svg PUBLIC "-//W3C//DTD SVG 1.1//EN" "http://www.w3.org/Graphics/SVG/1.1/DTD/svg11.dtd">
<svg xmlns:xl="http://www.w3.org/1999/xlink" xmlns="http://www.w3.org/2000/svg" xmlns:dc="http://purl.org/dc/elements/1.1/" version="1.1" viewBox="-1407 -74 4083 1812" width="4083" height="1812">
  <defs>
    <filter id="Shadow" filterUnits="userSpaceOnUse" x="-1815.3" y="-255.2">
      <feGaussianBlur in="SourceAlpha" result="blur" stdDeviation="1.308"/>
      <feOffset in="blur" result="offset" dx="9" dy="6"/>
      <feFlood flood-color="black" flood-opacity=".6459342" result="flood"/>
      <feComposite in="flood" in2="offset" operator="in" result="color"/>
      <feMerge>
        <feMergeNode in="color"/>
        <feMergeNode in="SourceGraphic"/>
      </feMerge>
    </filter>
  </defs>
  <metadata> Produced by OmniGraffle 7.18.5\n2018-10-29 11:50:54 +0000</metadata>
  <g id="Canvas_1" stroke-opacity="1" fill="none" stroke="none" stroke-dasharray="none" fill-opacity="1">
    <title>Canvas 1</title>
    <g id="Canvas_1_Layer_2">
      <title>Layer 2</title>
      <g id="Graphic_12">
        <path d="M 1455.4905 107.70654 C 1590.9146 243.12996 1590.9146 462.6945 1455.4905 598.11795 C 1320.067 733.5421 1100.5025 733.5421 965.0791 598.11795 C 829.655 462.6945 829.655 243.12996 965.0791 107.70654 C 1100.5025 -27.717577 1320.067 -27.717577 1455.4905 107.70654" fill="#8671ec"/>
      </g>
      <g id="Graphic_11">
        <path d="M 274.73635 1145.0207 C 410.16046 1280.4441 410.16046 1500.0087 274.73635 1635.432 C 139.31293 1770.8562 -80.25164 1770.8562 -215.67506 1635.432 C -351.09918 1500.0087 -351.09918 1280.4441 -215.67506 1145.0207 C -80.25164 1009.5966 139.31293 1009.5966 274.73635 1145.0207" fill="#033399"/>
      </g>
      <g id="Graphic_10">
        <path d="M 1455.4905 1145.0207 C 1590.9146 1280.4441 1590.9146 1500.0087 1455.4905 1635.432 C 1320.067 1770.8562 1100.5025 1770.8562 965.0791 1635.432 C 829.655 1500.0087 829.655 1280.4441 965.0791 1145.0207 C 1100.5025 1009.5966 1320.067 1009.5966 1455.4905 1145.0207" fill="#ecdda4"/>
      </g>
      <g id="Graphic_9">
        <path d="M 274.73635 107.70654 C 410.16046 243.12996 410.16046 462.6945 274.73635 598.11795 C 139.31293 733.5421 -80.25164 733.5421 -215.67506 598.11795 C -351.09918 462.6945 -351.09918 243.12996 -215.67506 107.70654 C -80.25164 -27.717577 139.31293 -27.717577 274.73635 107.70654" fill="#d89e2b"/>
      </g>
      <g id="Group_74">
        <g id="Graphic_13">
          <circle cx="225.0869" cy="66.27278" r="122.272973468222" fill="white"/>
          <circle cx="225.0869" cy="66.27278" r="122.272973468222" stroke="#df9e03" stroke-linecap="round" stroke-linejoin="round" stroke-width="35"/>
        </g>
        <g id="Graphic_14">
          <path d="M 187.41655 13.847512 L 284.40407 62.34127 C 284.89805 62.58826 285.09828 63.188935 284.8513 63.68291 C 284.75452 63.87644 284.5976 64.03336 284.40407 64.13013 L 187.41655 112.62389 C 186.92257 112.87088 186.3219 112.67065 186.07491 112.17667 C 186.00548 112.03782 185.96934 111.8847 185.96934 111.72946 L 185.96934 14.74194 C 185.96934 14.189655 186.41705 13.74194 186.96934 13.74194 C 187.12458 13.74194 187.2777 13.778084 187.41655 13.847512 Z" fill="#df9e03"/>
        </g>
      </g>
      <g id="Group_15">
        <g id="Graphic_17" filter="url(#Shadow)">
          <path d="M 1216.4035 483.31944 C 1216.8243 486.45984 1219.7381 488.69374 1222.8461 488.27286 L 1233.3034 486.9131 C 1236.4761 486.4922 1240.1022 488.4995 1241.3648 491.41326 L 1259.9806 522.7525 C 1261.8583 525.2778 1261.8907 529.38945 1259.9482 531.9147 L 1253.7969 539.9114 C 1251.8868 542.4367 1252.34 546.0627 1254.8653 547.97286 L 1274.1286 562.76836 C 1276.6538 564.7109 1280.2475 564.22525 1282.2224 561.7 L 1288.8593 552.991 C 1290.8018 550.46576 1294.8164 549.3326 1297.7949 550.401 L 1328.2277 558.1387 C 1331.368 558.59195 1334.2818 561.5381 1334.6703 564.6785 L 1336.0948 575.3947 C 1336.5157 578.50274 1339.4295 580.73664 1342.5375 580.31576 L 1366.6571 577.143 C 1369.7975 576.7221 1372.0314 573.8407 1371.6105 570.7003 L 1370.186 559.9841 C 1369.7651 556.87606 1371.8048 553.21765 1374.6538 551.8903 L 1406.2844 533.1126 C 1408.745 531.1701 1412.8242 531.2025 1415.3495 533.1126 L 1423.8642 539.6524 C 1426.3571 541.56256 1429.9831 541.1093 1431.9256 538.584 L 1446.7211 519.2884 C 1448.6637 516.7631 1448.178 513.13707 1445.6528 511.2269 L 1436.3934 504.10437 C 1433.8358 502.16185 1432.7027 498.21207 1433.771 495.20117 L 1441.3792 465.0598 C 1441.8325 461.887 1444.7463 459.038 1447.919 458.6171 L 1459.2828 457.12785 C 1462.3908 456.70697 1464.6247 453.82557 1464.2038 450.68517 L 1461.031 426.59797 C 1460.6101 423.45756 1457.7287 421.22367 1454.6207 421.61217 L 1443.257 423.10144 C 1440.0842 423.5223 1436.4906 421.51505 1435.1632 418.63365 L 1416.8388 387.521 C 1414.8963 385.0281 1414.8963 380.91646 1416.8064 378.3912 L 1423.6376 369.55274 C 1425.5477 367.05984 1425.0945 363.4338 1422.5692 361.4913 L 1403.2735 346.6958 C 1400.7483 344.75328 1397.1222 345.2389 1395.2445 347.76418 L 1387.96 357.1854 C 1386.0499 359.71065 1382.1001 360.8114 1379.0892 359.71065 L 1348.3327 351.87584 C 1345.2247 351.4226 1342.3433 348.44406 1341.9224 345.33603 L 1340.4655 334.16656 C 1340.0446 331.02616 1337.1309 328.82464 1334.0228 329.21315 L 1309.9032 332.38592 C 1306.7952 332.8068 1304.5613 335.6882 1304.9498 338.8286 L 1306.4391 349.99807 C 1306.86 353.1061 1304.8203 356.73213 1301.9066 358.02714 L 1271.0529 376.22204 C 1268.5277 378.0998 1264.4807 378.0998 1261.9231 376.18967 L 1253.5703 369.747 C 1251.045 367.83685 1247.419 368.32248 1245.5088 370.81537 L 1230.7133 390.1434 C 1228.7708 392.6363 1229.2564 396.26234 1231.7817 398.1725 L 1240.6849 405.00366 C 1243.1454 406.9462 1244.311 410.92833 1243.1778 413.8745 L 1235.2135 444.92237 C 1234.7926 448.06277 1231.8141 450.94417 1228.6413 451.3974 L 1218.1841 452.7572 C 1215.0761 453.17806 1212.8098 456.05946 1213.2307 459.19986 Z M 1333.3753 414.16586 C 1355.779 411.2197 1376.2726 426.98647 1379.251 449.3578 C 1382.1972 471.7291 1366.4628 492.2874 1344.0592 495.23354 C 1321.6878 498.1797 1301.1296 482.4453 1298.1834 460.0416 C 1295.2373 437.6703 1311.004 417.112 1333.3753 414.16586 Z" fill="white"/>
        </g>
        <g id="Graphic_16" filter="url(#Shadow)">
          <path d="M 993.4673 350.8722 C 994.8595 354.6601 999.133 356.635 1002.8885 355.24287 L 1015.5797 350.6132 C 1019.4323 349.22107 1024.5152 350.71033 1026.911 353.98023 L 1058.8978 387.97427 C 1061.941 390.59666 1063.1066 395.71196 1061.423 399.40274 L 1055.984 411.0902 C 1054.2681 414.781 1055.8869 419.18403 1059.5453 420.86754 L 1087.7441 433.97953 C 1091.4349 435.6954 1095.8056 434.10903 1097.5538 430.38587 L 1103.4461 417.6624 C 1105.1944 413.9716 1109.8888 411.41396 1113.871 411.96434 L 1154.0487 413.16223 C 1158.0956 412.87085 1162.531 415.75225 1163.9231 419.54016 L 1168.6823 432.52264 C 1170.0744 436.31055 1174.3156 438.28544 1178.1035 436.9257 L 1207.3708 426.24184 C 1211.1587 424.8497 1213.1336 420.60854 1211.7738 416.82063 L 1207.0146 403.83815 C 1205.6225 400.05024 1207.1441 394.93495 1210.3817 392.5068 L 1244.6671 360.26103 C 1247.2247 357.153 1252.3076 356.05225 1255.9984 357.7034 L 1268.4305 363.49856 C 1272.089 365.21445 1276.492 363.5957 1278.2079 359.9373 L 1291.3198 331.7384 C 1293.0357 328.04764 1291.4493 323.6446 1287.7262 321.9611 L 1274.1933 315.61553 C 1270.4702 313.89964 1267.9125 309.26998 1268.4629 305.22307 L 1269.596 265.46624 C 1269.2723 261.38695 1272.1537 256.98392 1275.974 255.59178 L 1289.7658 250.5736 C 1293.5537 249.18148 1295.4963 244.94032 1294.1041 241.1524 L 1283.4527 211.94991 C 1282.0605 208.12963 1277.8194 206.12236 1274.0314 207.48213 L 1260.2396 212.53267 C 1256.4193 213.9248 1251.3364 212.43554 1248.9082 209.19801 L 1217.3747 175.39823 C 1214.202 172.84058 1213.1012 167.69292 1214.7523 164.03451 L 1220.8065 151.11678 C 1222.5224 147.45837 1220.9036 143.05533 1217.2452 141.37182 L 1189.014 128.25984 C 1185.3556 126.54395 1180.9525 128.13033 1179.269 131.82111 L 1172.794 145.61298 C 1171.0781 149.27139 1166.4808 151.79666 1162.4015 151.24628 L 1121.8029 150.0484 C 1117.7884 150.3074 1113.353 147.426 1111.9608 143.63809 L 1107.0398 130.10523 C 1105.6477 126.28494 1101.3741 124.34243 1097.5862 125.73456 L 1068.3513 136.4184 C 1064.5634 137.81054 1062.5885 142.0517 1063.9483 145.8396 L 1068.9017 159.37247 C 1070.2615 163.128 1068.7722 168.21092 1065.47 170.67144 L 1031.9615 201.97833 C 1029.3391 205.05398 1024.2562 206.15474 1020.5654 204.5036 L 1008.36 198.77318 C 1004.7016 197.08966 1000.2985 198.70843 998.5826 202.36683 L 985.4383 230.63044 C 983.69 234.28885 985.3088 238.6919 988.9996 240.3754 L 1002.0144 246.3972 C 1005.6404 248.14547 1008.1981 252.77513 1007.6153 256.78966 L 1006.3203 297.77676 C 1006.6441 301.82367 1003.6979 306.2267 999.8776 307.6836 L 987.1865 312.31326 C 983.431 313.673 981.4237 317.94655 982.8159 321.73446 Z M 1120.3784 231.9902 C 1147.5736 222.08337 1177.5531 236.0695 1187.4923 263.19997 C 1197.3992 290.36282 1183.4778 320.3747 1156.2826 330.28153 C 1129.1521 340.18837 1099.1079 326.23462 1089.1686 299.07177 C 1079.2942 271.9413 1093.2479 241.86466 1120.3784 231.9902 Z" fill="white"/>
        </g>
      </g>
      <g id="Group_18">
        <g id="Graphic_20" filter="url(#Shadow)">
          <path d="M 1216.4035 1520.7202 C 1216.8243 1523.8607 1219.7381 1526.0945 1222.8461 1525.6737 L 1233.3034 1524.3139 C 1236.4761 1523.893 1240.1022 1525.9003 1241.3648 1528.814 L 1259.9806 1560.1533 C 1261.8583 1562.6786 1261.8907 1566.7903 1259.9482 1569.3155 L 1253.7969 1577.3122 C 1251.8868 1579.8375 1252.34 1583.4635 1254.8653 1585.3737 L 1274.1286 1600.1692 C 1276.6538 1602.1117 1280.2475 1601.626 1282.2224 1599.1008 L 1288.8593 1590.3918 C 1290.8018 1587.8666 1294.8164 1586.7334 1297.7949 1587.8018 L 1328.2277 1595.5395 C 1331.368 1595.9928 1334.2818 1598.939 1334.6703 1602.0793 L 1336.0948 1612.7955 C 1336.5157 1615.9035 1339.4295 1618.1374 1342.5375 1617.7166 L 1366.6571 1614.5438 C 1369.7975 1614.123 1372.0314 1611.2415 1371.6105 1608.1011 L 1370.186 1597.3849 C 1369.7651 1594.2769 1371.8048 1590.6185 1374.6538 1589.291 L 1406.2844 1570.5134 C 1408.745 1568.5709 1412.8242 1568.6033 1415.3495 1570.5134 L 1423.8642 1577.0532 C 1426.3571 1578.9634 1429.9831 1578.5101 1431.9256 1575.9848 L 1446.7211 1556.6892 C 1448.6637 1554.1639 1448.178 1550.5379 1445.6528 1548.6277 L 1436.3934 1541.5052 C 1433.8358 1539.5627 1432.7027 1535.6129 1433.771 1532.602 L 1441.3792 1502.4606 C 1441.8325 1499.2878 1444.7463 1496.4388 1447.919 1496.018 L 1459.2828 1494.5287 C 1462.3908 1494.1078 1464.6247 1491.2264 1464.2038 1488.086 L 1461.031 1463.9988 C 1460.6101 1460.8584 1457.7287 1458.6245 1454.6207 1459.013 L 1443.257 1460.5022 C 1440.0842 1460.9231 1436.4906 1458.9159 1435.1632 1456.0345 L 1416.8388 1424.9218 C 1414.8963 1422.429 1414.8963 1418.3173 1416.8064 1415.792 L 1423.6376 1406.9535 C 1425.5477 1404.4606 1425.0945 1400.8346 1422.5692 1398.8921 L 1403.2735 1384.0966 C 1400.7483 1382.1541 1397.1222 1382.6397 1395.2445 1385.165 L 1387.96 1394.5862 C 1386.0499 1397.1115 1382.1001 1398.2122 1379.0892 1397.1115 L 1348.3327 1389.2766 C 1345.2247 1388.8234 1342.3433 1385.8449 1341.9224 1382.7368 L 1340.4655 1371.5674 C 1340.0446 1368.427 1337.1309 1366.2255 1334.0228 1366.614 L 1309.9032 1369.7867 C 1306.7952 1370.2076 1304.5613 1373.089 1304.9498 1376.2294 L 1306.4391 1387.3989 C 1306.86 1390.5069 1304.8203 1394.133 1301.9066 1395.428 L 1271.0529 1413.6229 C 1268.5277 1415.5006 1264.4807 1415.5006 1261.9231 1413.5905 L 1253.5703 1407.1478 C 1251.045 1405.2377 1247.419 1405.7233 1245.5088 1408.2162 L 1230.7133 1427.5442 C 1228.7708 1430.0371 1229.2564 1433.6631 1231.7817 1435.5733 L 1240.6849 1442.4045 C 1243.1454 1444.347 1244.311 1448.3291 1243.1778 1451.2753 L 1235.2135 1482.3232 C 1234.7926 1485.4636 1231.8141 1488.345 1228.6413 1488.7982 L 1218.1841 1490.158 C 1215.0761 1490.5789 1212.8098 1493.4603 1213.2307 1496.6007 Z M 1333.3753 1451.5667 C 1355.779 1448.6205 1376.2726 1464.3873 1379.251 1486.7586 C 1382.1972 1509.1299 1366.4628 1529.6882 1344.0592 1532.6344 C 1321.6878 1535.5805 1301.1296 1519.8461 1298.1834 1497.4424 C 1295.2373 1475.0711 1311.004 1454.5128 1333.3753 1451.5667 Z" fill="white"/>
        </g>
        <g id="Graphic_19" filter="url(#Shadow)">
          <path d="M 993.4673 1388.273 C 994.8595 1392.061 999.133 1394.0358 1002.8885 1392.6437 L 1015.5797 1388.014 C 1019.4323 1386.6219 1024.5152 1388.1111 1026.911 1391.381 L 1058.8978 1425.375 C 1061.941 1427.9975 1063.1066 1433.1128 1061.423 1436.8035 L 1055.984 1448.491 C 1054.2681 1452.1818 1055.8869 1456.5848 1059.5453 1458.2684 L 1087.7441 1471.3803 C 1091.4349 1473.0962 1095.8056 1471.5098 1097.5538 1467.7867 L 1103.4461 1455.0632 C 1105.1944 1451.3724 1109.8888 1448.8148 1113.871 1449.3652 L 1154.0487 1450.563 C 1158.0956 1450.2717 1162.531 1453.153 1163.9231 1456.941 L 1168.6823 1469.9234 C 1170.0744 1473.7114 1174.3156 1475.6862 1178.1035 1474.3265 L 1207.3708 1463.6426 C 1211.1587 1462.2505 1213.1336 1458.0093 1211.7738 1454.2214 L 1207.0146 1441.239 C 1205.6225 1437.451 1207.1441 1432.3358 1210.3817 1429.9076 L 1244.6671 1397.6618 C 1247.2247 1394.5538 1252.3076 1393.453 1255.9984 1395.1042 L 1268.4305 1400.8994 C 1272.089 1402.6153 1276.492 1400.9965 1278.2079 1397.3381 L 1291.3198 1369.1392 C 1293.0357 1365.4484 1291.4493 1361.0454 1287.7262 1359.3619 L 1274.1933 1353.0163 C 1270.4702 1351.3005 1267.9125 1346.6708 1268.4629 1342.6239 L 1269.596 1302.867 C 1269.2723 1298.7878 1272.1537 1294.3847 1275.974 1292.9926 L 1289.7658 1287.9744 C 1293.5537 1286.5823 1295.4963 1282.3411 1294.1041 1278.5532 L 1283.4527 1249.3507 C 1282.0605 1245.5304 1277.8194 1243.5232 1274.0314 1244.883 L 1260.2396 1249.9335 C 1256.4193 1251.3256 1251.3364 1249.8363 1248.9082 1246.5988 L 1217.3747 1212.799 C 1214.202 1210.2414 1213.1012 1205.0937 1214.7523 1201.4353 L 1220.8065 1188.5176 C 1222.5224 1184.8592 1220.9036 1180.4561 1217.2452 1178.7726 L 1189.014 1165.6606 C 1185.3556 1163.9448 1180.9525 1165.5311 1179.269 1169.2219 L 1172.794 1183.0138 C 1171.0781 1186.6722 1166.4808 1189.1975 1162.4015 1188.6471 L 1121.8029 1187.4492 C 1117.7884 1187.7082 1113.353 1184.8268 1111.9608 1181.0389 L 1107.0398 1167.506 C 1105.6477 1163.6858 1101.3741 1161.7432 1097.5862 1163.1354 L 1068.3513 1173.8192 C 1064.5634 1175.2113 1062.5885 1179.4525 1063.9483 1183.2404 L 1068.9017 1196.7733 C 1070.2615 1200.5288 1068.7722 1205.6117 1065.47 1208.0722 L 1031.9615 1239.3791 C 1029.3391 1242.4548 1024.2562 1243.5555 1020.5654 1241.9044 L 1008.36 1236.174 C 1004.7016 1234.4905 1000.2985 1236.1092 998.5826 1239.7676 L 985.4383 1268.0313 C 983.69 1271.6897 985.3088 1276.0927 988.9996 1277.7762 L 1002.0144 1283.798 C 1005.6404 1285.5463 1008.1981 1290.176 1007.6153 1294.1905 L 1006.3203 1335.1776 C 1006.6441 1339.2245 1003.6979 1343.6275 999.8776 1345.0844 L 987.1865 1349.714 C 983.431 1351.0738 981.4237 1355.3474 982.8159 1359.1353 Z M 1120.3784 1269.391 C 1147.5736 1259.4842 1177.5531 1273.4703 1187.4923 1300.6008 C 1197.3992 1327.7636 1183.4778 1357.7755 1156.2826 1367.6823 C 1129.1521 1377.5892 1099.1079 1363.6354 1089.1686 1336.4726 C 1079.2942 1309.3421 1093.2479 1279.2655 1120.3784 1269.391 Z" fill="white"/>
        </g>
      </g>
      <g id="Group_24">
        <g id="Graphic_26" filter="url(#Shadow)">
          <path d="M 21.90205 483.31944 C 22.322928 486.45984 25.236703 488.69374 28.34473 488.27286 L 38.80194 486.9131 C 41.97472 486.4922 45.60075 488.4995 46.863384 491.41326 L 65.479166 522.7525 C 67.35693 525.2778 67.38931 529.38945 65.44679 531.9147 L 59.29549 539.9114 C 57.38535 542.4367 57.8386 546.0627 60.36387 547.97286 L 79.62716 562.76836 C 82.15243 564.7109 85.74609 564.22525 87.72098 561.7 L 94.35791 552.991 C 96.30042 550.46576 100.31496 549.3326 103.29348 550.401 L 133.72624 558.1387 C 136.86664 558.59195 139.78041 561.5381 140.16892 564.6785 L 141.59343 575.3947 C 142.01431 578.50274 144.92808 580.73664 148.03611 580.31576 L 172.15569 577.143 C 175.29609 576.7221 177.52998 573.8407 177.1091 570.7003 L 175.6846 559.9841 C 175.26371 556.87606 177.30336 553.21765 180.15238 551.8903 L 211.78302 533.1126 C 214.24354 531.1701 218.32282 531.2025 220.8481 533.1126 L 229.3628 539.6524 C 231.8557 541.56256 235.48172 541.1093 237.42424 538.584 L 252.21973 519.2884 C 254.16225 516.7631 253.67662 513.13707 251.15135 511.2269 L 241.89202 504.10437 C 239.33438 502.16185 238.20124 498.21207 239.26963 495.20117 L 246.8778 465.0598 C 247.33107 461.887 250.24484 459.038 253.41762 458.6171 L 264.78134 457.12785 C 267.88937 456.70697 270.12326 453.82557 269.70238 450.68517 L 266.5296 426.59797 C 266.10873 423.45756 263.22733 421.22367 260.1193 421.61217 L 248.75558 423.10144 C 245.5828 423.5223 241.98915 421.51505 240.66176 418.63365 L 222.33736 387.521 C 220.39484 385.0281 220.39484 380.91646 222.30498 378.3912 L 229.13617 369.55274 C 231.0463 367.05984 230.59305 363.4338 228.06778 361.4913 L 208.77212 346.6958 C 206.24685 344.75328 202.62082 345.2389 200.74305 347.76418 L 193.45862 357.1854 C 191.54847 359.71065 187.5987 360.8114 184.5878 359.71065 L 153.83128 351.87584 C 150.72326 351.4226 147.84186 348.44406 147.42098 345.33603 L 145.9641 334.16656 C 145.54321 331.02616 142.62944 328.82464 139.52141 329.21315 L 115.40184 332.38592 C 112.29381 332.8068 110.05992 335.6882 110.44842 338.8286 L 111.93768 349.99807 C 112.35856 353.1061 110.31892 356.73213 107.40514 358.02714 L 76.55151 376.22204 C 74.02624 378.0998 69.97933 378.0998 67.42168 376.18967 L 59.06886 369.747 C 56.54359 367.83685 52.91756 368.32248 51.00742 370.81537 L 36.21192 390.1434 C 34.269404 392.6363 34.755033 396.26234 37.280304 398.1725 L 46.183504 405.00366 C 48.644024 406.9462 49.809534 410.92833 48.6764 413.8745 L 40.712083 444.92237 C 40.291204 448.06277 37.31268 450.94417 34.139903 451.3974 L 23.68269 452.7572 C 20.574664 453.17806 18.308395 456.05946 18.729273 459.19986 Z M 138.8739 414.16586 C 161.2776 411.2197 181.77114 426.98647 184.74967 449.3578 C 187.69582 471.7291 171.96144 492.2874 149.55775 495.23354 C 127.18643 498.1797 106.62814 482.4453 103.68199 460.0416 C 100.73584 437.6703 116.5026 417.112 138.8739 414.16586 Z" fill="white"/>
        </g>
        <g id="Graphic_25" filter="url(#Shadow)">
          <path d="M -201.03407 350.8722 C -199.64194 354.6601 -195.3684 356.635 -191.61287 355.24287 L -178.92176 350.6132 C -175.0691 349.22107 -169.98619 350.71033 -167.59042 353.98023 L -135.60365 387.97427 C -132.56037 390.59666 -131.39486 395.71196 -133.07838 399.40274 L -138.51742 411.0902 C -140.23331 414.781 -138.61455 419.18403 -134.95614 420.86754 L -106.75728 433.97953 C -103.0665 435.6954 -98.69584 434.10903 -96.94757 430.38587 L -91.05527 417.6624 C -89.30701 413.9716 -84.6126 411.41396 -80.63044 411.96434 L -40.452724 413.16223 C -36.405815 412.87085 -31.970403 415.75225 -30.578266 419.54016 L -25.8191 432.52264 C -24.426964 436.31055 -20.185804 438.28544 -16.397897 436.9257 L 12.869349 426.24184 C 16.657256 424.8497 18.632147 420.60854 17.272386 416.82063 L 12.513221 403.83815 C 11.121084 400.05024 12.642722 394.93495 15.88025 392.5068 L 50.16566 360.26103 C 52.72331 357.153 57.806226 356.05225 61.49701 357.7034 L 73.92911 363.49856 C 77.58752 365.21445 81.99055 363.5957 83.70644 359.9373 L 96.81843 331.7384 C 98.53432 328.04764 96.94793 323.6446 93.22477 321.9611 L 79.69191 315.61553 C 75.96875 313.89964 73.41111 309.26998 73.96149 305.22307 L 75.09462 265.46624 C 74.77087 261.38695 77.65227 256.98392 81.47255 255.59178 L 95.26442 250.5736 C 99.05232 249.18148 100.99484 244.94032 99.6027 241.1524 L 88.95124 211.94991 C 87.5591 208.12963 83.31794 206.12236 79.53003 207.48213 L 65.73817 212.53267 C 61.917886 213.9248 56.83497 212.43554 54.40682 209.19801 L 22.873308 175.39823 C 19.700531 172.84058 18.599772 167.69292 20.25091 164.03451 L 26.305087 151.11678 C 28.020976 147.45837 26.402213 143.05533 22.743807 141.37182 L -5.4874303 128.25984 C -9.145836 126.54395 -13.548873 128.13033 -15.232387 131.82111 L -21.707442 145.61298 C -23.42333 149.27139 -28.02062 151.79666 -32.099904 151.24628 L -72.698495 150.0484 C -76.71303 150.3074 -81.14844 147.426 -82.54058 143.63809 L -87.46162 130.10523 C -88.85376 126.28494 -93.12729 124.34243 -96.9152 125.73456 L -126.15007 136.4184 C -129.93798 137.81054 -131.91287 142.0517 -130.5531 145.8396 L -125.59969 159.37247 C -124.23993 163.128 -125.72919 168.21092 -129.03147 170.67144 L -162.53987 201.97833 C -165.16227 205.05398 -170.24519 206.15474 -173.93597 204.5036 L -186.14145 198.77318 C -189.79985 197.08966 -194.2029 198.70843 -195.91878 202.36683 L -209.06314 230.63044 C -210.8114 234.28885 -209.19264 238.6919 -205.50186 240.3754 L -192.487 246.3972 C -188.86097 248.14547 -186.30332 252.77513 -186.88608 256.78966 L -188.1811 297.77676 C -187.85734 301.82367 -190.80349 306.2267 -194.62377 307.6836 L -207.31488 312.31326 C -211.0704 313.673 -213.07767 317.94655 -211.68554 321.73446 Z M -74.12301 231.9902 C -46.92778 222.08337 -16.948277 236.0695 -7.009068 263.19997 C 2.897765 290.36282 -11.023602 320.3747 -38.21883 330.28153 C -65.34931 340.18837 -95.39356 326.23462 -105.33277 299.07177 C -115.20723 271.9413 -101.25348 241.86466 -74.12301 231.9902 Z" fill="white"/>
        </g>
      </g>
      <g id="Group_27">
        <g id="Graphic_29" filter="url(#Shadow)">
          <path d="M 21.90205 1520.7202 C 22.322928 1523.8607 25.236703 1526.0945 28.34473 1525.6737 L 38.80194 1524.3139 C 41.97472 1523.893 45.60075 1525.9003 46.863384 1528.814 L 65.479166 1560.1533 C 67.35693 1562.6786 67.38931 1566.7903 65.44679 1569.3155 L 59.29549 1577.3122 C 57.38535 1579.8375 57.8386 1583.4635 60.36387 1585.3737 L 79.62716 1600.1692 C 82.15243 1602.1117 85.74609 1601.626 87.72098 1599.1008 L 94.35791 1590.3918 C 96.30042 1587.8666 100.31496 1586.7334 103.29348 1587.8018 L 133.72624 1595.5395 C 136.86664 1595.9928 139.78041 1598.939 140.16892 1602.0793 L 141.59343 1612.7955 C 142.01431 1615.9035 144.92808 1618.1374 148.03611 1617.7166 L 172.15569 1614.5438 C 175.29609 1614.123 177.52998 1611.2415 177.1091 1608.1011 L 175.6846 1597.3849 C 175.26371 1594.2769 177.30336 1590.6185 180.15238 1589.291 L 211.78302 1570.5134 C 214.24354 1568.5709 218.32282 1568.6033 220.8481 1570.5134 L 229.3628 1577.0532 C 231.8557 1578.9634 235.48172 1578.5101 237.42424 1575.9848 L 252.21973 1556.6892 C 254.16225 1554.1639 253.67662 1550.5379 251.15135 1548.6277 L 241.89202 1541.5052 C 239.33438 1539.5627 238.20124 1535.6129 239.26963 1532.602 L 246.8778 1502.4606 C 247.33107 1499.2878 250.24484 1496.4388 253.41762 1496.018 L 264.78134 1494.5287 C 267.88937 1494.1078 270.12326 1491.2264 269.70238 1488.086 L 266.5296 1463.9988 C 266.10873 1460.8584 263.22733 1458.6245 260.1193 1459.013 L 248.75558 1460.5022 C 245.5828 1460.9231 241.98915 1458.9159 240.66176 1456.0345 L 222.33736 1424.9218 C 220.39484 1422.429 220.39484 1418.3173 222.30498 1415.792 L 229.13617 1406.9535 C 231.0463 1404.4606 230.59305 1400.8346 228.06778 1398.8921 L 208.77212 1384.0966 C 206.24685 1382.1541 202.62082 1382.6397 200.74305 1385.165 L 193.45862 1394.5862 C 191.54847 1397.1115 187.5987 1398.2122 184.5878 1397.1115 L 153.83128 1389.2766 C 150.72326 1388.8234 147.84186 1385.8449 147.42098 1382.7368 L 145.9641 1371.5674 C 145.54321 1368.427 142.62944 1366.2255 139.52141 1366.614 L 115.40184 1369.7867 C 112.29381 1370.2076 110.05992 1373.089 110.44842 1376.2294 L 111.93768 1387.3989 C 112.35856 1390.5069 110.31892 1394.133 107.40514 1395.428 L 76.55151 1413.6229 C 74.02624 1415.5006 69.97933 1415.5006 67.42168 1413.5905 L 59.06886 1407.1478 C 56.54359 1405.2377 52.91756 1405.7233 51.00742 1408.2162 L 36.21192 1427.5442 C 34.269404 1430.0371 34.755033 1433.6631 37.280304 1435.5733 L 46.183504 1442.4045 C 48.644024 1444.347 49.809534 1448.3291 48.6764 1451.2753 L 40.712083 1482.3232 C 40.291204 1485.4636 37.31268 1488.345 34.139903 1488.7982 L 23.68269 1490.158 C 20.574664 1490.5789 18.308395 1493.4603 18.729273 1496.6007 Z M 138.8739 1451.5667 C 161.2776 1448.6205 181.77114 1464.3873 184.74967 1486.7586 C 187.69582 1509.1299 171.96144 1529.6882 149.55775 1532.6344 C 127.18643 1535.5805 106.62814 1519.8461 103.68199 1497.4424 C 100.73584 1475.0711 116.5026 1454.5128 138.8739 1451.5667 Z" fill="white"/>
        </g>
        <g id="Graphic_28" filter="url(#Shadow)">
          <path d="M -201.03407 1388.273 C -199.64194 1392.061 -195.3684 1394.0358 -191.61287 1392.6437 L -178.92176 1388.014 C -175.0691 1386.6219 -169.98619 1388.1111 -167.59042 1391.381 L -135.60365 1425.375 C -132.56037 1427.9975 -131.39486 1433.1128 -133.07838 1436.8035 L -138.51742 1448.491 C -140.23331 1452.1818 -138.61455 1456.5848 -134.95614 1458.2684 L -106.75728 1471.3803 C -103.0665 1473.0962 -98.69584 1471.5098 -96.94757 1467.7867 L -91.05527 1455.0632 C -89.30701 1451.3724 -84.6126 1448.8148 -80.63044 1449.3652 L -40.452724 1450.563 C -36.405815 1450.2717 -31.970403 1453.153 -30.578266 1456.941 L -25.8191 1469.9234 C -24.426964 1473.7114 -20.185804 1475.6862 -16.397897 1474.3265 L 12.869349 1463.6426 C 16.657256 1462.2505 18.632147 1458.0093 17.272386 1454.2214 L 12.513221 1441.239 C 11.121084 1437.451 12.642722 1432.3358 15.88025 1429.9076 L 50.16566 1397.6618 C 52.72331 1394.5538 57.806226 1393.453 61.49701 1395.1042 L 73.92911 1400.8994 C 77.58752 1402.6153 81.99055 1400.9965 83.70644 1397.3381 L 96.81843 1369.1392 C 98.53432 1365.4484 96.94793 1361.0454 93.22477 1359.3619 L 79.69191 1353.0163 C 75.96875 1351.3005 73.41111 1346.6708 73.96149 1342.6239 L 75.09462 1302.867 C 74.77087 1298.7878 77.65227 1294.3847 81.47255 1292.9926 L 95.26442 1287.9744 C 99.05232 1286.5823 100.99484 1282.3411 99.6027 1278.5532 L 88.95124 1249.3507 C 87.5591 1245.5304 83.31794 1243.5232 79.53003 1244.883 L 65.73817 1249.9335 C 61.917886 1251.3256 56.83497 1249.8363 54.40682 1246.5988 L 22.873308 1212.799 C 19.700531 1210.2414 18.599772 1205.0937 20.25091 1201.4353 L 26.305087 1188.5176 C 28.020976 1184.8592 26.402213 1180.4561 22.743807 1178.7726 L -5.4874303 1165.6606 C -9.145836 1163.9448 -13.548873 1165.5311 -15.232387 1169.2219 L -21.707442 1183.0138 C -23.42333 1186.6722 -28.02062 1189.1975 -32.099904 1188.6471 L -72.698495 1187.4492 C -76.71303 1187.7082 -81.14844 1184.8268 -82.54058 1181.0389 L -87.46162 1167.506 C -88.85376 1163.6858 -93.12729 1161.7432 -96.9152 1163.1354 L -126.15007 1173.8192 C -129.93798 1175.2113 -131.91287 1179.4525 -130.5531 1183.2404 L -125.59969 1196.7733 C -124.23993 1200.5288 -125.72919 1205.6117 -129.03147 1208.0722 L -162.53987 1239.3791 C -165.16227 1242.4548 -170.24519 1243.5555 -173.93597 1241.9044 L -186.14145 1236.174 C -189.79985 1234.4905 -194.2029 1236.1092 -195.91878 1239.7676 L -209.06314 1268.0313 C -210.8114 1271.6897 -209.19264 1276.0927 -205.50186 1277.7762 L -192.487 1283.798 C -188.86097 1285.5463 -186.30332 1290.176 -186.88608 1294.1905 L -188.1811 1335.1776 C -187.85734 1339.2245 -190.80349 1343.6275 -194.62377 1345.0844 L -207.31488 1349.714 C -211.0704 1351.0738 -213.07767 1355.3474 -211.68554 1359.1353 Z M -74.12301 1269.391 C -46.92778 1259.4842 -16.948277 1273.4703 -7.009068 1300.6008 C 2.897765 1327.7636 -11.023602 1357.7755 -38.21883 1367.6823 C -65.34931 1377.5892 -95.39356 1363.6354 -105.33277 1336.4726 C -115.20723 1309.3421 -101.25348 1279.2655 -74.12301 1269.391 Z" fill="white"/>
        </g>
      </g>
      <g id="Group_73">
        <g id="Graphic_31">
          <circle cx="1459.5074" cy="66.27278" r="122.272973468222" fill="white"/>
          <circle cx="1459.5074" cy="66.27278" r="122.272973468222" stroke="#8971ec" stroke-linecap="round" stroke-linejoin="round" stroke-width="35"/>
        </g>
        <g id="Graphic_30">
          <path d="M 1425.846 13.847512 L 1522.8335 62.34127 C 1523.3275 62.58826 1523.5278 63.188935 1523.2808 63.68291 C 1523.184 63.87644 1523.027 64.03336 1522.8335 64.13013 L 1425.846 112.62389 C 1425.352 112.87088 1424.7514 112.67065 1424.5044 112.17667 C 1424.435 112.03782 1424.3988 111.8847 1424.3988 111.72946 L 1424.3988 14.74194 C 1424.3988 14.189655 1424.8465 13.74194 1425.3988 13.74194 C 1425.554 13.74194 1425.7072 13.778084 1425.846 13.847512 Z" fill="#8971ec"/>
        </g>
      </g>
      <g id="Group_72">
        <g id="Graphic_35">
          <circle cx="225.0869" cy="1172.6209" r="122.272973468222" fill="white"/>
          <circle cx="225.0869" cy="1172.6209" r="122.272973468222" stroke="#033399" stroke-linecap="round" stroke-linejoin="round" stroke-width="35"/>
        </g>
        <g id="Graphic_34">
          <path d="M 187.41655 1123.2327 L 284.40407 1171.7265 C 284.89805 1171.9735 285.09828 1172.5742 284.8513 1173.0681 C 284.75452 1173.2617 284.5976 1173.4186 284.40407 1173.5154 L 187.41655 1222.0091 C 186.92257 1222.2561 186.3219 1222.0559 186.07491 1221.5619 C 186.00548 1221.423 185.96934 1221.27 185.96934 1221.1147 L 185.96934 1124.1272 C 185.96934 1123.5749 186.41705 1123.1272 186.96934 1123.1272 C 187.12458 1123.1272 187.2777 1123.1633 187.41655 1123.2327 Z" fill="#033399"/>
        </g>
      </g>
      <g id="Group_71">
        <g id="Graphic_37">
          <circle cx="1459.5074" cy="1172.6209" r="122.272973468222" fill="white"/>
          <circle cx="1459.5074" cy="1172.6209" r="122.272973468222" stroke="#ecdda4" stroke-linecap="round" stroke-linejoin="round" stroke-width="35"/>
        </g>
        <g id="Graphic_36">
          <path d="M 1425.846 1123.2327 L 1522.8335 1171.7265 C 1523.3275 1171.9735 1523.5278 1172.5742 1523.2808 1173.0681 C 1523.184 1173.2617 1523.027 1173.4186 1522.8335 1173.5154 L 1425.846 1222.0091 C 1425.352 1222.2561 1424.7514 1222.0559 1424.5044 1221.5619 C 1424.435 1221.423 1424.3988 1221.27 1424.3988 1221.1147 L 1424.3988 1124.1272 C 1424.3988 1123.5749 1424.8465 1123.1272 1425.3988 1123.1272 C 1425.554 1123.1272 1425.7072 1123.1633 1425.846 1123.2327 Z" fill="#ecdda4"/>
        </g>
      </g>
      <g id="Group_61">
        <g id="Graphic_38">
          <path d="M -1384.7668 1115.1126 L -871.5773 1115.1126 C -866.0545 1115.1126 -861.5773 1119.5898 -861.5773 1125.1126 L -861.5773 1349.6582 C -861.5773 1355.181 -866.0545 1359.6582 -871.5773 1359.6582 L -1384.7668 1359.6582 C -1390.2897 1359.6582 -1394.7668 1355.181 -1394.7668 1349.6582 L -1394.7668 1125.1126 C -1394.7668 1119.5898 -1390.2897 1115.1126 -1384.7668 1115.1126 Z" fill="#faebac"/>
        </g>
        <g id="Graphic_40">
          <path d="M -862.2308 1145.46 L -807.871 1229.2443 C -805.7797 1232.4677 -805.7202 1236.6043 -807.718 1239.8865 L -862.0777 1329.1951 C -864.9493 1333.9128 -871.1015 1335.4094 -875.8191 1332.5378 C -878.8003 1330.7233 -880.6198 1327.4858 -880.6198 1323.9958 L -880.6198 1150.9028 C -880.6198 1145.38 -876.1427 1140.9028 -870.6198 1140.9028 C -867.2321 1140.9028 -864.0747 1142.618 -862.2308 1145.46 Z" fill="#faebac"/>
        </g>
        <g id="Graphic_42">
          <path d="M -1384.7668 1420.7946 L -871.5773 1420.7946 C -866.0545 1420.7946 -861.5773 1425.2717 -861.5773 1430.7946 L -861.5773 1655.3401 C -861.5773 1660.863 -866.0545 1665.3401 -871.5773 1665.3401 L -1384.7668 1665.3401 C -1390.2897 1665.3401 -1394.7668 1660.863 -1394.7668 1655.3401 L -1394.7668 1430.7946 C -1394.7668 1425.2717 -1390.2897 1420.7946 -1384.7668 1420.7946 Z" fill="#d1d2ff"/>
        </g>
        <g id="Graphic_41">
          <path d="M -862.2308 1451.1419 L -807.871 1534.9263 C -805.7797 1538.1497 -805.7202 1542.2862 -807.718 1545.5684 L -862.0777 1634.877 C -864.9493 1639.5947 -871.1015 1641.0913 -875.8191 1638.2198 C -878.8003 1636.4052 -880.6198 1633.1677 -880.6198 1629.6777 L -880.6198 1456.5847 C -880.6198 1451.0619 -876.1427 1446.5847 -870.6198 1446.5847 C -867.2321 1446.5847 -864.0747 1448.3 -862.2308 1451.1419 Z" fill="#d1d2ff"/>
        </g>
        <g id="Graphic_46">
          <path d="M -1396.7937 77.711825 L -883.6042 77.711825 C -878.0813 77.711825 -873.6042 82.18898 -873.6042 87.71183 L -873.6042 312.2574 C -873.6042 317.78023 -878.0813 322.2574 -883.6042 322.2574 L -1396.7937 322.2574 C -1402.3165 322.2574 -1406.7937 317.78023 -1406.7937 312.2574 L -1406.7937 87.71183 C -1406.7937 82.18898 -1402.3165 77.711825 -1396.7937 77.711825 Z" fill="#faebac"/>
        </g>
        <g id="Graphic_45">
          <path d="M -874.2576 108.05916 L -819.8979 191.84352 C -817.8065 195.0669 -817.747 199.2035 -819.7448 202.4857 L -874.1046 291.7943 C -876.9761 296.51195 -883.1283 298.00855 -887.846 295.13704 C -890.8271 293.32247 -892.6466 290.08496 -892.6466 286.59497 L -892.6466 113.502 C -892.6466 107.97915 -888.1695 103.502 -882.6466 103.502 C -879.2589 103.502 -876.1015 105.21718 -874.2576 108.05916 Z" fill="#faebac"/>
        </g>
        <g id="Graphic_44">
          <path d="M -1396.7937 383.39377 L -883.6042 383.39377 C -878.0813 383.39377 -873.6042 387.8709 -873.6042 393.39377 L -873.6042 617.9393 C -873.6042 623.4622 -878.0813 627.9393 -883.6042 627.9393 L -1396.7937 627.9393 C -1402.3165 627.9393 -1406.7937 623.4622 -1406.7937 617.9393 L -1406.7937 393.39377 C -1406.7937 387.8709 -1402.3165 383.39377 -1396.7937 383.39377 Z" fill="#d1d2ff"/>
        </g>
        <g id="Graphic_43">
          <path d="M -874.2576 413.7411 L -819.8979 497.52547 C -817.8065 500.74885 -817.747 504.88544 -819.7448 508.16764 L -874.1046 597.47624 C -876.9761 602.1939 -883.1283 603.6905 -887.846 600.819 C -890.8271 599.0044 -892.6466 595.7669 -892.6466 592.2769 L -892.6466 419.18394 C -892.6466 413.6611 -888.1695 409.18394 -882.6466 409.18394 C -879.2589 409.18394 -876.1015 410.89913 -874.2576 413.7411 Z" fill="#d1d2ff"/>
        </g>
      </g>
      <g id="Group_62">
        <g id="Graphic_70">
          <path d="M 2653.5268 1115.1126 L 2140.3373 1115.1126 C 2134.8145 1115.1126 2130.3373 1119.5898 2130.3373 1125.1126 L 2130.3373 1349.6582 C 2130.3373 1355.181 2134.8145 1359.6582 2140.3373 1359.6582 L 2653.5268 1359.6582 C 2659.0497 1359.6582 2663.5268 1355.181 2663.5268 1349.6582 L 2663.5268 1125.1126 C 2663.5268 1119.5898 2659.0497 1115.1126 2653.5268 1115.1126 Z" fill="#faebac"/>
        </g>
        <g id="Graphic_69">
          <path d="M 2130.9908 1145.46 L 2076.631 1229.2443 C 2074.5397 1232.4677 2074.4802 1236.6043 2076.478 1239.8865 L 2130.8377 1329.1951 C 2133.7093 1333.9128 2139.8615 1335.4094 2144.5791 1332.5378 C 2147.5603 1330.7233 2149.3798 1327.4858 2149.3798 1323.9958 L 2149.3798 1150.9028 C 2149.3798 1145.38 2144.9027 1140.9028 2139.3798 1140.9028 C 2135.992 1140.9028 2132.8347 1142.618 2130.9908 1145.46 Z" fill="#faebac"/>
        </g>
        <g id="Graphic_68">
          <path d="M 2653.5268 1420.7946 L 2140.3373 1420.7946 C 2134.8145 1420.7946 2130.3373 1425.2717 2130.3373 1430.7946 L 2130.3373 1655.3401 C 2130.3373 1660.863 2134.8145 1665.3401 2140.3373 1665.3401 L 2653.5268 1665.3401 C 2659.0497 1665.3401 2663.5268 1660.863 2663.5268 1655.3401 L 2663.5268 1430.7946 C 2663.5268 1425.2717 2659.0497 1420.7946 2653.5268 1420.7946 Z" fill="#d1d2ff"/>
        </g>
        <g id="Graphic_67">
          <path d="M 2130.9908 1451.1419 L 2076.631 1534.9263 C 2074.5397 1538.1497 2074.4802 1542.2862 2076.478 1545.5684 L 2130.8377 1634.877 C 2133.7093 1639.5947 2139.8615 1641.0913 2144.5791 1638.2198 C 2147.5603 1636.4052 2149.3798 1633.1677 2149.3798 1629.6777 L 2149.3798 1456.5847 C 2149.3798 1451.0619 2144.9027 1446.5847 2139.3798 1446.5847 C 2135.992 1446.5847 2132.8347 1448.3 2130.9908 1451.1419 Z" fill="#d1d2ff"/>
        </g>
        <g id="Graphic_66">
          <path d="M 2665.5537 77.711825 L 2152.3642 77.711825 C 2146.8413 77.711825 2142.3642 82.18898 2142.3642 87.71183 L 2142.3642 312.2574 C 2142.3642 317.78023 2146.8413 322.2574 2152.3642 322.2574 L 2665.5537 322.2574 C 2671.0765 322.2574 2675.5537 317.78023 2675.5537 312.2574 L 2675.5537 87.71183 C 2675.5537 82.18898 2671.0765 77.711825 2665.5537 77.711825 Z" fill="#faebac"/>
        </g>
        <g id="Graphic_65">
          <path d="M 2143.0176 108.05916 L 2088.6579 191.84352 C 2086.5665 195.0669 2086.507 199.2035 2088.5048 202.4857 L 2142.8646 291.7943 C 2145.736 296.51195 2151.8883 298.00855 2156.606 295.13704 C 2159.5871 293.32247 2161.4066 290.08496 2161.4066 286.59497 L 2161.4066 113.502 C 2161.4066 107.97915 2156.9295 103.502 2151.4066 103.502 C 2148.019 103.502 2144.8615 105.21718 2143.0176 108.05916 Z" fill="#faebac"/>
        </g>
        <g id="Graphic_64">
          <path d="M 2665.5537 383.39377 L 2152.3642 383.39377 C 2146.8413 383.39377 2142.3642 387.8709 2142.3642 393.39377 L 2142.3642 617.9393 C 2142.3642 623.4622 2146.8413 627.9393 2152.3642 627.9393 L 2665.5537 627.9393 C 2671.0765 627.9393 2675.5537 623.4622 2675.5537 617.9393 L 2675.5537 393.39377 C 2675.5537 387.8709 2671.0765 383.39377 2665.5537 383.39377 Z" fill="#d1d2ff"/>
        </g>
        <g id="Graphic_63">
          <path d="M 2143.0176 413.7411 L 2088.6579 497.52547 C 2086.5665 500.74885 2086.507 504.88544 2088.5048 508.16764 L 2142.8646 597.47624 C 2145.736 602.1939 2151.8883 603.6905 2156.606 600.819 C 2159.5871 599.0044 2161.4066 595.7669 2161.4066 592.2769 L 2161.4066 419.18394 C 2161.4066 413.6611 2156.9295 409.18394 2151.4066 409.18394 C 2148.019 409.18394 2144.8615 410.89913 2143.0176 413.7411 Z" fill="#d1d2ff"/>
        </g>
      </g>
    </g>
  </g>
</svg>
