<?xml version="1.0" encoding="UTF-8" standalone="no"?>
<!DOCTYPE svg PUBLIC "-//W3C//DTD SVG 1.1//EN" "http://www.w3.org/Graphics/SVG/1.1/DTD/svg11.dtd">
<svg xmlns="http://www.w3.org/2000/svg" xmlns:xl="http://www.w3.org/1999/xlink" version="1.1" xmlns:dc="http://purl.org/dc/elements/1.1/" viewBox="177 256 495 311" width="495" height="311">
  <defs/>
  <metadata> Produced by OmniGraffle 7.18.5\n2023-02-27 08:43:25 +0000</metadata>
  <g id="Canvas_1" fill="none" stroke-opacity="1" fill-opacity="1" stroke="none" stroke-dasharray="none">
    <title>Canvas 1</title>
    <g id="Canvas_1_Layer_1">
      <title>Layer 1</title>
      <g id="Graphic_23">
        <path d="M 238.26006 335.76 L 201.15994 335.76 C 199.73059 335.76 198.40986 336.5227 197.69543 337.7607 L 179.15392 369.8904 C 178.43984 371.1278 178.43993 372.65213 179.15416 373.88944 L 197.69535 406.0097 C 198.40984 407.2475 199.73044 408.01 201.15962 408.01 L 238.26038 408.01 C 239.68956 408.01 241.01016 407.2475 241.72465 406.0097 L 260.26584 373.88944 C 260.98007 372.65213 260.98016 371.1278 260.26608 369.8904 L 241.72457 337.7607 C 241.01014 336.5227 239.6894 335.76 238.26006 335.76 Z" fill="#f3edce"/>
        <path d="M 238.26006 335.76 L 201.15994 335.76 C 199.73059 335.76 198.40986 336.5227 197.69543 337.7607 L 179.15392 369.8904 C 178.43984 371.1278 178.43993 372.65213 179.15416 373.88944 L 197.69535 406.0097 C 198.40984 407.2475 199.73044 408.01 201.15962 408.01 L 238.26038 408.01 C 239.68956 408.01 241.01016 407.2475 241.72465 406.0097 L 260.26584 373.88944 C 260.98007 372.65213 260.98016 371.1278 260.26608 369.8904 L 241.72457 337.7607 C 241.01014 336.5227 239.6894 335.76 238.26006 335.76 Z" stroke="#02329a" stroke-linecap="butt" stroke-linejoin="round" stroke-width="1"/>
      </g>
      <g id="Graphic_22">
        <path d="M 306.7306 296.38 L 269.63938 296.38 C 268.21033 296.38 266.88983 297.1424 266.1753 298.37998 L 247.6249 330.5097 C 246.91026 331.74746 246.91035 333.2725 247.62513 334.51016 L 266.1752 366.63044 C 266.8898 367.8678 268.21018 368.63 269.63906 368.63 L 306.73094 368.63 C 308.1598 368.63 309.4802 367.8678 310.1948 366.63044 L 328.74487 334.51016 C 329.45965 333.2725 329.45974 331.74746 328.7451 330.5097 L 310.1947 298.37998 C 309.48017 297.1424 308.15967 296.38 306.7306 296.38 Z" fill="#c2b4ff"/>
        <path d="M 306.7306 296.38 L 269.63938 296.38 C 268.21033 296.38 266.88983 297.1424 266.1753 298.37998 L 247.6249 330.5097 C 246.91026 331.74746 246.91035 333.2725 247.62513 334.51016 L 266.1752 366.63044 C 266.8898 367.8678 268.21018 368.63 269.63906 368.63 L 306.73094 368.63 C 308.1598 368.63 309.4802 367.8678 310.1948 366.63044 L 328.74487 334.51016 C 329.45965 333.2725 329.45974 331.74746 328.7451 330.5097 L 310.1947 298.37998 C 309.48017 297.1424 308.15967 296.38 306.7306 296.38 Z" stroke="#02329a" stroke-linecap="butt" stroke-linejoin="round" stroke-width="1"/>
      </g>
      <g id="Graphic_21">
        <path d="M 306.73094 375.15 L 269.63906 375.15 C 268.21018 375.15 266.8898 375.9122 266.1752 377.14956 L 247.62513 409.26984 C 246.91035 410.5075 246.91026 412.03254 247.6249 413.2703 L 266.1753 445.4 C 266.88983 446.6376 268.21033 447.4 269.63938 447.4 L 306.7306 447.4 C 308.15967 447.4 309.48017 446.6376 310.1947 445.4 L 328.7451 413.2703 C 329.45974 412.03254 329.45965 410.5075 328.74487 409.26984 L 310.1948 377.14956 C 309.4802 375.9122 308.1598 375.15 306.73094 375.15 Z" fill="#e3a92e"/>
        <path d="M 306.73094 375.15 L 269.63906 375.15 C 268.21018 375.15 266.8898 375.9122 266.1752 377.14956 L 247.62513 409.26984 C 246.91035 410.5075 246.91026 412.03254 247.6249 413.2703 L 266.1753 445.4 C 266.88983 446.6376 268.21033 447.4 269.63938 447.4 L 306.7306 447.4 C 308.15967 447.4 309.48017 446.6376 310.1947 445.4 L 328.7451 413.2703 C 329.45974 412.03254 329.45965 410.5075 328.74487 409.26984 L 310.1948 377.14956 C 309.4802 375.9122 308.1598 375.15 306.73094 375.15 Z" stroke="#02329a" stroke-linecap="butt" stroke-linejoin="round" stroke-width="1"/>
      </g>
      <g id="Graphic_20">
        <path d="M 306.7306 453.91 L 269.63938 453.91 C 268.21033 453.91 266.88983 454.6724 266.1753 455.91 L 247.6249 488.0397 C 246.91026 489.27746 246.91035 490.8025 247.62513 492.04016 L 266.1752 524.16044 C 266.8898 525.3978 268.21018 526.16 269.63906 526.16 L 306.73094 526.16 C 308.1598 526.16 309.4802 525.3978 310.1948 524.16044 L 328.74487 492.04016 C 329.45965 490.8025 329.45974 489.27746 328.7451 488.0397 L 310.1947 455.91 C 309.48017 454.6724 308.15967 453.91 306.7306 453.91 Z" fill="#f3edce"/>
        <path d="M 306.7306 453.91 L 269.63938 453.91 C 268.21033 453.91 266.88983 454.6724 266.1753 455.91 L 247.6249 488.0397 C 246.91026 489.27746 246.91035 490.8025 247.62513 492.04016 L 266.1752 524.16044 C 266.8898 525.3978 268.21018 526.16 269.63906 526.16 L 306.73094 526.16 C 308.1598 526.16 309.4802 525.3978 310.1948 524.16044 L 328.74487 492.04016 C 329.45965 490.8025 329.45974 489.27746 328.7451 488.0397 L 310.1947 455.91 C 309.48017 454.6724 308.15967 453.91 306.7306 453.91 Z" stroke="#02329a" stroke-linecap="butt" stroke-linejoin="round" stroke-width="1"/>
      </g>
      <g id="Graphic_19">
        <path d="M 375.26094 257 L 338.16906 257 C 336.7402 257 335.4198 257.7622 334.7052 258.99956 L 316.15513 291.11984 C 315.44035 292.3575 315.44026 293.88254 316.1549 295.1203 L 334.7053 327.25002 C 335.41983 328.4876 336.74033 329.25 338.1694 329.25 L 375.2606 329.25 C 376.68967 329.25 378.01017 328.4876 378.7247 327.25002 L 397.2751 295.1203 C 397.98974 293.88254 397.98965 292.3575 397.27487 291.11984 L 378.7248 258.99956 C 378.0102 257.7622 376.6898 257 375.26094 257 Z" fill="#e3a92e"/>
        <path d="M 375.26094 257 L 338.16906 257 C 336.7402 257 335.4198 257.7622 334.7052 258.99956 L 316.15513 291.11984 C 315.44035 292.3575 315.44026 293.88254 316.1549 295.1203 L 334.7053 327.25002 C 335.41983 328.4876 336.74033 329.25 338.1694 329.25 L 375.2606 329.25 C 376.68967 329.25 378.01017 328.4876 378.7247 327.25002 L 397.2751 295.1203 C 397.98974 293.88254 397.98965 292.3575 397.27487 291.11984 L 378.7248 258.99956 C 378.0102 257.7622 376.6898 257 375.26094 257 Z" stroke="#02329a" stroke-linecap="butt" stroke-linejoin="round" stroke-width="1"/>
      </g>
      <g id="Graphic_18">
        <path d="M 375.2606 335.76 L 338.1694 335.76 C 336.74033 335.76 335.41983 336.5224 334.7053 337.75998 L 316.1549 369.8897 C 315.44026 371.12746 315.44035 372.6525 316.15513 373.89016 L 334.7052 406.01044 C 335.4198 407.2478 336.7402 408.01 338.16906 408.01 L 375.26094 408.01 C 376.6898 408.01 378.0102 407.2478 378.7248 406.01044 L 397.27487 373.89016 C 397.98965 372.6525 397.98974 371.12746 397.2751 369.8897 L 378.7247 337.75998 C 378.01017 336.5224 376.68967 335.76 375.2606 335.76 Z" fill="#f3edce"/>
        <path d="M 375.2606 335.76 L 338.1694 335.76 C 336.74033 335.76 335.41983 336.5224 334.7053 337.75998 L 316.1549 369.8897 C 315.44026 371.12746 315.44035 372.6525 316.15513 373.89016 L 334.7052 406.01044 C 335.4198 407.2478 336.7402 408.01 338.16906 408.01 L 375.26094 408.01 C 376.6898 408.01 378.0102 407.2478 378.7248 406.01044 L 397.27487 373.89016 C 397.98965 372.6525 397.98974 371.12746 397.2751 369.8897 L 378.7247 337.75998 C 378.01017 336.5224 376.68967 335.76 375.2606 335.76 Z" stroke="#02329a" stroke-linecap="butt" stroke-linejoin="round" stroke-width="1"/>
      </g>
      <g id="Graphic_17">
        <path d="M 375.26094 414.53 L 338.16906 414.53 C 336.7402 414.53 335.4198 415.2922 334.7052 416.52956 L 316.15513 448.64984 C 315.44035 449.8875 315.44026 451.41254 316.1549 452.6503 L 334.7053 484.78 C 335.41983 486.0176 336.74033 486.78 338.1694 486.78 L 375.2606 486.78 C 376.68967 486.78 378.01017 486.0176 378.7247 484.78 L 397.2751 452.6503 C 397.98974 451.41254 397.98965 449.8875 397.27487 448.64984 L 378.7248 416.52956 C 378.0102 415.2922 376.6898 414.53 375.26094 414.53 Z" fill="#f3edce"/>
        <path d="M 375.26094 414.53 L 338.16906 414.53 C 336.7402 414.53 335.4198 415.2922 334.7052 416.52956 L 316.15513 448.64984 C 315.44035 449.8875 315.44026 451.41254 316.1549 452.6503 L 334.7053 484.78 C 335.41983 486.0176 336.74033 486.78 338.1694 486.78 L 375.2606 486.78 C 376.68967 486.78 378.01017 486.0176 378.7247 484.78 L 397.2751 452.6503 C 397.98974 451.41254 397.98965 449.8875 397.27487 448.64984 L 378.7248 416.52956 C 378.0102 415.2922 376.6898 414.53 375.26094 414.53 Z" stroke="#02329a" stroke-linecap="butt" stroke-linejoin="round" stroke-width="1"/>
      </g>
      <g id="Graphic_16">
        <path d="M 375.2606 493.29 L 338.1694 493.29 C 336.74033 493.29 335.41983 494.0524 334.7053 495.29 L 316.1549 527.4197 C 315.44026 528.65746 315.44035 530.1825 316.15513 531.42016 L 334.7052 563.54044 C 335.4198 564.7778 336.7402 565.54 338.16906 565.54 L 375.26094 565.54 C 376.6898 565.54 378.0102 564.7778 378.7248 563.54044 L 397.27487 531.42016 C 397.98965 530.1825 397.98974 528.65746 397.2751 527.4197 L 378.7247 495.29 C 378.01017 494.0524 376.68967 493.29 375.2606 493.29 Z" fill="#e3a92e"/>
        <path d="M 375.2606 493.29 L 338.1694 493.29 C 336.74033 493.29 335.41983 494.0524 334.7053 495.29 L 316.1549 527.4197 C 315.44026 528.65746 315.44035 530.1825 316.15513 531.42016 L 334.7052 563.54044 C 335.4198 564.7778 336.7402 565.54 338.16906 565.54 L 375.26094 565.54 C 376.6898 565.54 378.0102 564.7778 378.7248 563.54044 L 397.27487 531.42016 C 397.98965 530.1825 397.98974 528.65746 397.2751 527.4197 L 378.7247 495.29 C 378.01017 494.0524 376.68967 493.29 375.2606 493.29 Z" stroke="#02329a" stroke-linecap="butt" stroke-linejoin="round" stroke-width="1"/>
      </g>
      <g id="Graphic_15">
        <path d="M 443.58094 295.73 L 406.48906 295.73 C 405.0602 295.73 403.7398 296.4922 403.0252 297.72956 L 384.47513 329.84984 C 383.76035 331.0875 383.76026 332.61254 384.4749 333.8503 L 403.0253 365.98002 C 403.73983 367.2176 405.06033 367.98 406.4894 367.98 L 443.5806 367.98 C 445.00967 367.98 446.33017 367.2176 447.0447 365.98002 L 465.5951 333.8503 C 466.30974 332.61254 466.30965 331.0875 465.59487 329.84984 L 447.0448 297.72956 C 446.3302 296.4922 445.0098 295.73 443.58094 295.73 Z" fill="#c2b4ff"/>
        <path d="M 443.58094 295.73 L 406.48906 295.73 C 405.0602 295.73 403.7398 296.4922 403.0252 297.72956 L 384.47513 329.84984 C 383.76035 331.0875 383.76026 332.61254 384.4749 333.8503 L 403.0253 365.98002 C 403.73983 367.2176 405.06033 367.98 406.4894 367.98 L 443.5806 367.98 C 445.00967 367.98 446.33017 367.2176 447.0447 365.98002 L 465.5951 333.8503 C 466.30974 332.61254 466.30965 331.0875 465.59487 329.84984 L 447.0448 297.72956 C 446.3302 296.4922 445.0098 295.73 443.58094 295.73 Z" stroke="#02329a" stroke-linecap="butt" stroke-linejoin="round" stroke-width="1"/>
      </g>
      <g id="Graphic_14">
        <path d="M 443.5806 374.49 L 406.4894 374.49 C 405.06033 374.49 403.73983 375.2524 403.0253 376.48998 L 384.4749 408.6197 C 383.76026 409.85746 383.76035 411.3825 384.47513 412.62016 L 403.0252 444.74044 C 403.7398 445.9778 405.0602 446.74 406.48906 446.74 L 443.58094 446.74 C 445.0098 446.74 446.3302 445.9778 447.0448 444.74044 L 465.59487 412.62016 C 466.30965 411.3825 466.30974 409.85746 465.5951 408.6197 L 447.0447 376.48998 C 446.33017 375.2524 445.00967 374.49 443.5806 374.49 Z" fill="#e3a92e"/>
        <path d="M 443.5806 374.49 L 406.4894 374.49 C 405.06033 374.49 403.73983 375.2524 403.0253 376.48998 L 384.4749 408.6197 C 383.76026 409.85746 383.76035 411.3825 384.47513 412.62016 L 403.0252 444.74044 C 403.7398 445.9778 405.0602 446.74 406.48906 446.74 L 443.58094 446.74 C 445.0098 446.74 446.3302 445.9778 447.0448 444.74044 L 465.59487 412.62016 C 466.30965 411.3825 466.30974 409.85746 465.5951 408.6197 L 447.0447 376.48998 C 446.33017 375.2524 445.00967 374.49 443.5806 374.49 Z" stroke="#02329a" stroke-linecap="butt" stroke-linejoin="round" stroke-width="1"/>
      </g>
      <g id="Graphic_13">
        <path d="M 443.58094 453.26 L 406.48906 453.26 C 405.0602 453.26 403.7398 454.0222 403.0252 455.25956 L 384.47513 487.37984 C 383.76035 488.6175 383.76026 490.14254 384.4749 491.3803 L 403.0253 523.51 C 403.73983 524.7476 405.06033 525.51 406.4894 525.51 L 443.5806 525.51 C 445.00967 525.51 446.33017 524.7476 447.0447 523.51 L 465.5951 491.3803 C 466.30974 490.14254 466.30965 488.6175 465.59487 487.37984 L 447.0448 455.25956 C 446.3302 454.0222 445.0098 453.26 443.58094 453.26 Z" fill="#c2b4ff"/>
        <path d="M 443.58094 453.26 L 406.48906 453.26 C 405.0602 453.26 403.7398 454.0222 403.0252 455.25956 L 384.47513 487.37984 C 383.76035 488.6175 383.76026 490.14254 384.4749 491.3803 L 403.0253 523.51 C 403.73983 524.7476 405.06033 525.51 406.4894 525.51 L 443.5806 525.51 C 445.00967 525.51 446.33017 524.7476 447.0447 523.51 L 465.5951 491.3803 C 466.30974 490.14254 466.30965 488.6175 465.59487 487.37984 L 447.0448 455.25956 C 446.3302 454.0222 445.0098 453.26 443.58094 453.26 Z" stroke="#02329a" stroke-linecap="butt" stroke-linejoin="round" stroke-width="1"/>
      </g>
      <g id="Graphic_12">
        <path d="M 511.95094 257 L 474.8596 257 C 473.43044 257 472.10984 257.76252 471.39535 259.00028 L 452.85416 291.12056 C 452.13993 292.35787 452.13984 293.88218 452.8539 295.11958 L 471.39543 327.2493 C 472.10986 328.4873 473.4306 329.25 474.85994 329.25 L 511.9506 329.25 C 513.3797 329.25 514.7002 328.4876 515.4147 327.25002 L 533.9651 295.1203 C 534.67974 293.88254 534.67965 292.3575 533.96487 291.11984 L 515.4148 258.99956 C 514.7002 257.7622 513.3798 257 511.95094 257 Z" fill="#c2b4ff"/>
        <path d="M 511.95094 257 L 474.8596 257 C 473.43044 257 472.10984 257.76252 471.39535 259.00028 L 452.85416 291.12056 C 452.13993 292.35787 452.13984 293.88218 452.8539 295.11958 L 471.39543 327.2493 C 472.10986 328.4873 473.4306 329.25 474.85994 329.25 L 511.9506 329.25 C 513.3797 329.25 514.7002 328.4876 515.4147 327.25002 L 533.9651 295.1203 C 534.67974 293.88254 534.67965 292.3575 533.96487 291.11984 L 515.4148 258.99956 C 514.7002 257.7622 513.3798 257 511.95094 257 Z" stroke="#02329a" stroke-linecap="butt" stroke-linejoin="round" stroke-width="1"/>
      </g>
      <g id="Graphic_11">
        <path d="M 511.9506 335.76 L 474.85994 335.76 C 473.4306 335.76 472.10986 336.5227 471.39543 337.7607 L 452.8539 369.8904 C 452.13984 371.1278 452.13993 372.65213 452.85416 373.88944 L 471.39535 406.0097 C 472.10984 407.2475 473.43044 408.01 474.8596 408.01 L 511.95094 408.01 C 513.3798 408.01 514.7002 407.2478 515.4148 406.01044 L 533.96487 373.89016 C 534.67965 372.6525 534.67974 371.12746 533.9651 369.8897 L 515.4147 337.75998 C 514.7002 336.5224 513.3797 335.76 511.9506 335.76 Z" fill="#f3edce"/>
        <path d="M 511.9506 335.76 L 474.85994 335.76 C 473.4306 335.76 472.10986 336.5227 471.39543 337.7607 L 452.8539 369.8904 C 452.13984 371.1278 452.13993 372.65213 452.85416 373.88944 L 471.39535 406.0097 C 472.10984 407.2475 473.43044 408.01 474.8596 408.01 L 511.95094 408.01 C 513.3798 408.01 514.7002 407.2478 515.4148 406.01044 L 533.96487 373.89016 C 534.67965 372.6525 534.67974 371.12746 533.9651 369.8897 L 515.4147 337.75998 C 514.7002 336.5224 513.3797 335.76 511.9506 335.76 Z" stroke="#02329a" stroke-linecap="butt" stroke-linejoin="round" stroke-width="1"/>
      </g>
      <g id="Graphic_10">
        <path d="M 511.95094 414.53 L 474.8596 414.53 C 473.43044 414.53 472.10984 415.2925 471.39535 416.5303 L 452.85416 448.65056 C 452.13993 449.88787 452.13984 451.4122 452.8539 452.6496 L 471.39543 484.7793 C 472.10986 486.0173 473.4306 486.78 474.85994 486.78 L 511.9506 486.78 C 513.3797 486.78 514.7002 486.0176 515.4147 484.78 L 533.9651 452.6503 C 534.67974 451.41254 534.67965 449.8875 533.96487 448.64984 L 515.4148 416.52956 C 514.7002 415.2922 513.3798 414.53 511.95094 414.53 Z" fill="#f3edce"/>
        <path d="M 511.95094 414.53 L 474.8596 414.53 C 473.43044 414.53 472.10984 415.2925 471.39535 416.5303 L 452.85416 448.65056 C 452.13993 449.88787 452.13984 451.4122 452.8539 452.6496 L 471.39543 484.7793 C 472.10986 486.0173 473.4306 486.78 474.85994 486.78 L 511.9506 486.78 C 513.3797 486.78 514.7002 486.0176 515.4147 484.78 L 533.9651 452.6503 C 534.67974 451.41254 534.67965 449.8875 533.96487 448.64984 L 515.4148 416.52956 C 514.7002 415.2922 513.3798 414.53 511.95094 414.53 Z" stroke="#02329a" stroke-linecap="butt" stroke-linejoin="round" stroke-width="1"/>
      </g>
      <g id="Graphic_9">
        <path d="M 511.9506 493.29 L 474.85994 493.29 C 473.4306 493.29 472.10986 494.0527 471.39543 495.2907 L 452.8539 527.4204 C 452.13984 528.6578 452.13993 530.1821 452.85416 531.41944 L 471.39535 563.5397 C 472.10984 564.7775 473.43044 565.54 474.8596 565.54 L 511.95094 565.54 C 513.3798 565.54 514.7002 564.7778 515.4148 563.54044 L 533.96487 531.42016 C 534.67965 530.1825 534.67974 528.65746 533.9651 527.4197 L 515.4147 495.29 C 514.7002 494.0524 513.3797 493.29 511.9506 493.29 Z" fill="#f3edce"/>
        <path d="M 511.9506 493.29 L 474.85994 493.29 C 473.4306 493.29 472.10986 494.0527 471.39543 495.2907 L 452.8539 527.4204 C 452.13984 528.6578 452.13993 530.1821 452.85416 531.41944 L 471.39535 563.5397 C 472.10984 564.7775 473.43044 565.54 474.8596 565.54 L 511.95094 565.54 C 513.3798 565.54 514.7002 564.7778 515.4148 563.54044 L 533.96487 531.42016 C 534.67965 530.1825 534.67974 528.65746 533.9651 527.4197 L 515.4147 495.29 C 514.7002 494.0524 513.3797 493.29 511.9506 493.29 Z" stroke="#02329a" stroke-linecap="butt" stroke-linejoin="round" stroke-width="1"/>
      </g>
      <g id="Graphic_8">
        <path d="M 580.1106 296.38 L 543.0194 296.38 C 541.5903 296.38 540.2698 297.1424 539.5553 298.37998 L 521.0049 330.5097 C 520.29026 331.74746 520.29035 333.2725 521.00513 334.51016 L 539.5552 366.63044 C 540.2698 367.8678 541.5902 368.63 543.01906 368.63 L 580.11094 368.63 C 581.5398 368.63 582.8602 367.8678 583.5748 366.63044 L 602.1249 334.51016 C 602.83965 333.2725 602.83974 331.74746 602.1251 330.5097 L 583.5747 298.37998 C 582.8602 297.1424 581.5397 296.38 580.1106 296.38 Z" fill="#f3edce"/>
        <path d="M 580.1106 296.38 L 543.0194 296.38 C 541.5903 296.38 540.2698 297.1424 539.5553 298.37998 L 521.0049 330.5097 C 520.29026 331.74746 520.29035 333.2725 521.00513 334.51016 L 539.5552 366.63044 C 540.2698 367.8678 541.5902 368.63 543.01906 368.63 L 580.11094 368.63 C 581.5398 368.63 582.8602 367.8678 583.5748 366.63044 L 602.1249 334.51016 C 602.83965 333.2725 602.83974 331.74746 602.1251 330.5097 L 583.5747 298.37998 C 582.8602 297.1424 581.5397 296.38 580.1106 296.38 Z" stroke="#02329a" stroke-linecap="butt" stroke-linejoin="round" stroke-width="1"/>
      </g>
      <g id="Graphic_7">
        <path d="M 580.11094 375.15 L 543.01906 375.15 C 541.5902 375.15 540.2698 375.9122 539.5552 377.14956 L 521.00513 409.26984 C 520.29035 410.5075 520.29026 412.03254 521.0049 413.2703 L 539.5553 445.4 C 540.2698 446.6376 541.5903 447.4 543.0194 447.4 L 580.1106 447.4 C 581.5397 447.4 582.8602 446.6376 583.5747 445.4 L 602.1251 413.2703 C 602.83974 412.03254 602.83965 410.5075 602.1249 409.26984 L 583.5748 377.14956 C 582.8602 375.9122 581.5398 375.15 580.11094 375.15 Z" fill="#c2b4ff"/>
        <path d="M 580.11094 375.15 L 543.01906 375.15 C 541.5902 375.15 540.2698 375.9122 539.5552 377.14956 L 521.00513 409.26984 C 520.29035 410.5075 520.29026 412.03254 521.0049 413.2703 L 539.5553 445.4 C 540.2698 446.6376 541.5903 447.4 543.0194 447.4 L 580.1106 447.4 C 581.5397 447.4 582.8602 446.6376 583.5747 445.4 L 602.1251 413.2703 C 602.83974 412.03254 602.83965 410.5075 602.1249 409.26984 L 583.5748 377.14956 C 582.8602 375.9122 581.5398 375.15 580.11094 375.15 Z" stroke="#02329a" stroke-linecap="butt" stroke-linejoin="round" stroke-width="1"/>
      </g>
      <g id="Graphic_6">
        <path d="M 580.1106 453.91 L 543.0194 453.91 C 541.5903 453.91 540.2698 454.6724 539.5553 455.91 L 521.0049 488.0397 C 520.29026 489.27746 520.29035 490.8025 521.00513 492.04016 L 539.5552 524.16044 C 540.2698 525.3978 541.5902 526.16 543.01906 526.16 L 580.11094 526.16 C 581.5398 526.16 582.8602 525.3978 583.5748 524.16044 L 602.1249 492.04016 C 602.83965 490.8025 602.83974 489.27746 602.1251 488.0397 L 583.5747 455.91 C 582.8602 454.6724 581.5397 453.91 580.1106 453.91 Z" fill="#e3a92e"/>
        <path d="M 580.1106 453.91 L 543.0194 453.91 C 541.5903 453.91 540.2698 454.6724 539.5553 455.91 L 521.0049 488.0397 C 520.29026 489.27746 520.29035 490.8025 521.00513 492.04016 L 539.5552 524.16044 C 540.2698 525.3978 541.5902 526.16 543.01906 526.16 L 580.11094 526.16 C 581.5398 526.16 582.8602 525.3978 583.5748 524.16044 L 602.1249 492.04016 C 602.83965 490.8025 602.83974 489.27746 602.1251 488.0397 L 583.5747 455.91 C 582.8602 454.6724 581.5397 453.91 580.1106 453.91 Z" stroke="#02329a" stroke-linecap="butt" stroke-linejoin="round" stroke-width="1"/>
      </g>
      <g id="Graphic_5">
        <path d="M 648.1501 335.76 L 611.0499 335.76 C 609.6206 335.76 608.29986 336.5227 607.5854 337.7607 L 589.0439 369.8904 C 588.32984 371.1278 588.3299 372.65213 589.04416 373.88944 L 607.58535 406.0097 C 608.29984 407.2475 609.62044 408.01 611.0496 408.01 L 648.1504 408.01 C 649.57956 408.01 650.90016 407.2475 651.61465 406.0097 L 670.1558 373.88944 C 670.8701 372.65213 670.87016 371.1278 670.1561 369.8904 L 651.6146 337.7607 C 650.90014 336.5227 649.5794 335.76 648.1501 335.76 Z" fill="#e3a92e"/>
        <path d="M 648.1501 335.76 L 611.0499 335.76 C 609.6206 335.76 608.29986 336.5227 607.5854 337.7607 L 589.0439 369.8904 C 588.32984 371.1278 588.3299 372.65213 589.04416 373.88944 L 607.58535 406.0097 C 608.29984 407.2475 609.62044 408.01 611.0496 408.01 L 648.1504 408.01 C 649.57956 408.01 650.90016 407.2475 651.61465 406.0097 L 670.1558 373.88944 C 670.8701 372.65213 670.87016 371.1278 670.1561 369.8904 L 651.6146 337.7607 C 650.90014 336.5227 649.5794 335.76 648.1501 335.76 Z" stroke="#02329a" stroke-linecap="butt" stroke-linejoin="round" stroke-width="1"/>
      </g>
      <g id="Graphic_4">
        <path d="M 648.1504 414.53 L 611.0496 414.53 C 609.62044 414.53 608.29984 415.2925 607.58535 416.5303 L 589.04416 448.65056 C 588.3299 449.88787 588.32984 451.4122 589.0439 452.6496 L 607.5854 484.7793 C 608.29986 486.0173 609.6206 486.78 611.0499 486.78 L 648.1501 486.78 C 649.5794 486.78 650.90014 486.0173 651.6146 484.7793 L 670.1561 452.6496 C 670.87016 451.4122 670.8701 449.88787 670.1558 448.65056 L 651.61465 416.5303 C 650.90016 415.2925 649.57956 414.53 648.1504 414.53 Z" fill="#f3edce"/>
        <path d="M 648.1504 414.53 L 611.0496 414.53 C 609.62044 414.53 608.29984 415.2925 607.58535 416.5303 L 589.04416 448.65056 C 588.3299 449.88787 588.32984 451.4122 589.0439 452.6496 L 607.5854 484.7793 C 608.29986 486.0173 609.6206 486.78 611.0499 486.78 L 648.1501 486.78 C 649.5794 486.78 650.90014 486.0173 651.6146 484.7793 L 670.1561 452.6496 C 670.87016 451.4122 670.8701 449.88787 670.1558 448.65056 L 651.61465 416.5303 C 650.90016 415.2925 649.57956 414.53 648.1504 414.53 Z" stroke="#02329a" stroke-linecap="butt" stroke-linejoin="round" stroke-width="1"/>
      </g>
      <g id="Graphic_3">
        <path d="M 648.1501 493.29 L 611.0499 493.29 C 609.6206 493.29 608.29986 494.0527 607.5854 495.2907 L 589.0439 527.4204 C 588.32984 528.6578 588.3299 530.1821 589.04416 531.41944 L 607.58535 563.5397 C 608.29984 564.7775 609.62044 565.54 611.0496 565.54 L 648.1504 565.54 C 649.57956 565.54 650.90016 564.7775 651.61465 563.5397 L 670.1558 531.41944 C 670.8701 530.1821 670.87016 528.6578 670.1561 527.4204 L 651.6146 495.2907 C 650.90014 494.0527 649.5794 493.29 648.1501 493.29 Z" fill="#f3edce"/>
        <path d="M 648.1501 493.29 L 611.0499 493.29 C 609.6206 493.29 608.29986 494.0527 607.5854 495.2907 L 589.0439 527.4204 C 588.32984 528.6578 588.3299 530.1821 589.04416 531.41944 L 607.58535 563.5397 C 608.29984 564.7775 609.62044 565.54 611.0496 565.54 L 648.1504 565.54 C 649.57956 565.54 650.90016 564.7775 651.61465 563.5397 L 670.1558 531.41944 C 670.8701 530.1821 670.87016 528.6578 670.1561 527.4204 L 651.6146 495.2907 C 650.90014 494.0527 649.5794 493.29 648.1501 493.29 Z" stroke="#02329a" stroke-linecap="butt" stroke-linejoin="round" stroke-width="1"/>
      </g>
    </g>
  </g>
</svg>
