<?xml version="1.0" encoding="utf-8"?>
<svg version="1.1" viewBox="-110 -35 1039 626" width="1039" height="626" xmlns="http://www.w3.org/2000/svg">
  <g id="Canvas_1" fill="none" stroke="none" stroke-opacity="1" fill-opacity="1" stroke-dasharray="none">
    <title>Canvas 1</title>
    <g id="Canvas_1_Layer_1">
      <title>Layer 1</title>
      <g id="Graphic_13">
        <path d="M 24.636746 159.77352 L 220.39875 159.77352 C 225.9216 159.77352 230.39875 164.25067 230.39875 169.77352 L 230.39875 284.453 C 230.39875 289.97583 225.9216 294.453 220.39875 294.453 L 24.636746 294.453 C 19.1139 294.453 14.636746 289.97583 14.636746 284.453 L 14.636746 169.77352 C 14.636746 164.25067 19.1139 159.77352 24.636746 159.77352 Z" fill="#8671ed"/>
        <path d="M 24.636746 159.77352 L 220.39875 159.77352 C 225.9216 159.77352 230.39875 164.25067 230.39875 169.77352 L 230.39875 284.453 C 230.39875 289.97583 225.9216 294.453 220.39875 294.453 L 24.636746 294.453 C 19.1139 294.453 14.636746 289.97583 14.636746 284.453 L 14.636746 169.77352 C 14.636746 164.25067 19.1139 159.77352 24.636746 159.77352 Z" stroke="#270076" stroke-linecap="round" stroke-linejoin="round" stroke-width="1"/>
      </g>
      <g id="Graphic_14">
        <path d="M 283.68858 -34 L 479.4506 -34 C 484.97343 -34 489.4506 -29.522847 489.4506 -24 L 489.4506 90.67947 C 489.4506 96.20231 484.97343 100.67947 479.4506 100.67947 L 283.68858 100.67947 C 278.16573 100.67947 273.68858 96.20231 273.68858 90.67947 L 273.68858 -24 C 273.68858 -29.522847 278.16573 -34 283.68858 -34 Z" fill="#8671ed"/>
        <path d="M 283.68858 -34 L 479.4506 -34 C 484.97343 -34 489.4506 -29.522847 489.4506 -24 L 489.4506 90.67947 C 489.4506 96.20231 484.97343 100.67947 479.4506 100.67947 L 283.68858 100.67947 C 278.16573 100.67947 273.68858 96.20231 273.68858 90.67947 L 273.68858 -24 C 273.68858 -29.522847 278.16573 -34 283.68858 -34 Z" stroke="#270076" stroke-linecap="round" stroke-linejoin="round" stroke-width="1"/>
      </g>
      <g id="Graphic_15">
        <path d="M 542.7404 159.77352 L 738.5024 159.77352 C 744.0253 159.77352 748.5024 164.25067 748.5024 169.77352 L 748.5024 284.453 C 748.5024 289.97583 744.0253 294.453 738.5024 294.453 L 542.7404 294.453 C 537.21756 294.453 532.7404 289.97583 532.7404 284.453 L 532.7404 169.77352 C 532.7404 164.25067 537.21756 159.77352 542.7404 159.77352 Z" fill="#8671ed"/>
        <path d="M 542.7404 159.77352 L 738.5024 159.77352 C 744.0253 159.77352 748.5024 164.25067 748.5024 169.77352 L 748.5024 284.453 C 748.5024 289.97583 744.0253 294.453 738.5024 294.453 L 542.7404 294.453 C 537.21756 294.453 532.7404 289.97583 532.7404 284.453 L 532.7404 169.77352 C 532.7404 164.25067 537.21756 159.77352 542.7404 159.77352 Z" stroke="#270076" stroke-linecap="round" stroke-linejoin="round" stroke-width="1"/>
      </g>
      <g id="Graphic_16">
        <path d="M 666.74355 440.703 L 862.5056 440.703 C 868.0284 440.703 872.5056 445.18016 872.5056 450.703 L 872.5056 565.3825 C 872.5056 570.9053 868.0284 575.3825 862.5056 575.3825 L 666.74355 575.3825 C 661.2207 575.3825 656.74355 570.9053 656.74355 565.3825 L 656.74355 450.703 C 656.74355 445.18016 661.2207 440.703 666.74355 440.703 Z" fill="#8671ed"/>
        <path d="M 666.74355 440.703 L 862.5056 440.703 C 868.0284 440.703 872.5056 445.18016 872.5056 450.703 L 872.5056 565.3825 C 872.5056 570.9053 868.0284 575.3825 862.5056 575.3825 L 666.74355 575.3825 C 661.2207 575.3825 656.74355 570.9053 656.74355 565.3825 L 656.74355 450.703 C 656.74355 445.18016 661.2207 440.703 666.74355 440.703 Z" stroke="#270076" stroke-linecap="round" stroke-linejoin="round" stroke-width="1"/>
      </g>
      <g id="Graphic_17">
        <path d="M 418.73727 440.703 L 614.4993 440.703 C 620.0221 440.703 624.4993 445.18016 624.4993 450.703 L 624.4993 565.3825 C 624.4993 570.9053 620.0221 575.3825 614.4993 575.3825 L 418.73727 575.3825 C 413.2144 575.3825 408.73727 570.9053 408.73727 565.3825 L 408.73727 450.703 C 408.73727 445.18016 413.2144 440.703 418.73727 440.703 Z" fill="#8671ed"/>
        <path d="M 418.73727 440.703 L 614.4993 440.703 C 620.0221 440.703 624.4993 445.18016 624.4993 450.703 L 624.4993 565.3825 C 624.4993 570.9053 620.0221 575.3825 614.4993 575.3825 L 418.73727 575.3825 C 413.2144 575.3825 408.73727 570.9053 408.73727 565.3825 L 408.73727 450.703 C 408.73727 445.18016 413.2144 440.703 418.73727 440.703 Z" stroke="#270076" stroke-linecap="round" stroke-linejoin="round" stroke-width="1"/>
      </g>
      <g id="Graphic_18">
        <path d="M 148.63989 403.02113 L 344.4019 403.02113 C 349.92474 403.02113 354.4019 407.4983 354.4019 413.02113 L 354.4019 527.7006 C 354.4019 533.22344 349.92474 537.7006 344.4019 537.7006 L 148.63989 537.7006 C 143.11704 537.7006 138.63989 533.22344 138.63989 527.7006 L 138.63989 413.02113 C 138.63989 407.4983 143.11704 403.02113 148.63989 403.02113 Z" fill="#8671ed"/>
        <path d="M 148.63989 403.02113 L 344.4019 403.02113 C 349.92474 403.02113 354.4019 407.4983 354.4019 413.02113 L 354.4019 527.7006 C 354.4019 533.22344 349.92474 537.7006 344.4019 537.7006 L 148.63989 537.7006 C 143.11704 537.7006 138.63989 533.22344 138.63989 527.7006 L 138.63989 413.02113 C 138.63989 407.4983 143.11704 403.02113 148.63989 403.02113 Z" stroke="#270076" stroke-linecap="round" stroke-linejoin="round" stroke-width="1"/>
      </g>
      <g id="Graphic_19">
        <path d="M -99.3664 403.02113 L 96.39561 403.02113 C 101.91846 403.02113 106.39561 407.4983 106.39561 413.02113 L 106.39561 527.7006 C 106.39561 533.22344 101.91846 537.7006 96.39561 537.7006 L -99.3664 537.7006 C -104.88924 537.7006 -109.3664 533.22344 -109.3664 527.7006 L -109.3664 413.02113 C -109.3664 407.4983 -104.88924 403.02113 -99.3664 403.02113 Z" fill="#8671ed"/>
        <path d="M -99.3664 403.02113 L 96.39561 403.02113 C 101.91846 403.02113 106.39561 407.4983 106.39561 413.02113 L 106.39561 527.7006 C 106.39561 533.22344 101.91846 537.7006 96.39561 537.7006 L -99.3664 537.7006 C -104.88924 537.7006 -109.3664 533.22344 -109.3664 527.7006 L -109.3664 413.02113 C -109.3664 407.4983 -104.88924 403.02113 -99.3664 403.02113 Z" stroke="#270076" stroke-linecap="round" stroke-linejoin="round" stroke-width="1"/>
      </g>
      <g id="Line_20">
        <line x1="381.64814" y1="100.67947" x2="381.6875" y2="134.41007" stroke="#270076" stroke-linecap="round" stroke-linejoin="round" stroke-width="3"/>
      </g>
      <g id="Line_21">
        <line x1="122.66383" y1="294.453" x2="122.79261" y2="353.8194" stroke="#270076" stroke-linecap="round" stroke-linejoin="round" stroke-width="3"/>
      </g>
      <g id="Line_22">
        <line x1="640.6214" y1="294.453" x2="640.6214" y2="408.622" stroke="#270076" stroke-linecap="round" stroke-linejoin="round" stroke-width="3"/>
      </g>
      <g id="Line_23">
        <path d="M 122.54943 159.77352 L 122.55808 141.40931 C 122.55937 138.64845 124.79812 136.41116 127.55898 136.41166 L 635.71664 136.50397 C 638.4781 136.50448 640.7162 138.74346 640.7157 141.50488 C 640.7157 141.50642 640.7157 141.50795 640.7157 141.50948 L 640.6956 159.77352" stroke="#270076" stroke-linecap="round" stroke-linejoin="round" stroke-width="3"/>
      </g>
      <g id="Line_24">
        <path d="M 516.7813 440.703 L 516.83995 416.46333 C 516.8466 413.7062 519.0839 411.4748 521.84104 411.47543 L 759.7999 411.5279 C 762.5613 411.5285 764.7994 413.76756 764.7988 416.529 C 764.7988 416.5318 764.7988 416.5346 764.7988 416.5374 L 764.7528 440.703" stroke="#270076" stroke-linecap="round" stroke-linejoin="round" stroke-width="3"/>
      </g>
      <g id="Line_25">
        <path d="M -1.0094857 403.02113 L -.6914897 358.0255 C -.67206884 355.27752 1.5614235 353.06025 4.3094875 353.06086 L 242.2677 353.1133 C 245.02913 353.1139 247.2672 355.353 247.2666 358.1144 C 247.2666 358.1251 247.26656 358.1358 247.2665 358.14653 L 246.96832 403.02113" stroke="#270076" stroke-linecap="round" stroke-linejoin="round" stroke-width="3"/>
      </g>
      <g id="Graphic_26">
        <path d="M 297.1369 -23.300246 L 492.8989 -23.300246 C 498.42174 -23.300246 502.8989 -18.823094 502.8989 -13.300246 L 502.8989 101.37922 C 502.8989 106.90207 498.42174 111.37922 492.8989 111.37922 L 297.1369 111.37922 C 291.61405 111.37922 287.1369 106.90207 287.1369 101.37922 L 287.1369 -13.300246 C 287.1369 -18.823094 291.61405 -23.300246 297.1369 -23.300246 Z" fill="#ecdea4" fill-opacity=".8956019"/>
        <path d="M 297.1369 -23.300246 L 492.8989 -23.300246 C 498.42174 -23.300246 502.8989 -18.823094 502.8989 -13.300246 L 502.8989 101.37922 C 502.8989 106.90207 498.42174 111.37922 492.8989 111.37922 L 297.1369 111.37922 C 291.61405 111.37922 287.1369 106.90207 287.1369 101.37922 L 287.1369 -13.300246 C 287.1369 -18.823094 291.61405 -23.300246 297.1369 -23.300246 Z" stroke="#270076" stroke-linecap="round" stroke-linejoin="round" stroke-width="1"/>
      </g>
      <g id="Graphic_27">
        <path d="M 554.1273 173.73719 L 749.8893 173.73719 C 755.4122 173.73719 759.8893 178.21434 759.8893 183.73719 L 759.8893 298.41666 C 759.8893 303.9395 755.4122 308.41666 749.8893 308.41666 L 554.1273 308.41666 C 548.60446 308.41666 544.1273 303.9395 544.1273 298.41666 L 544.1273 183.73719 C 544.1273 178.21434 548.60446 173.73719 554.1273 173.73719 Z" fill="#ecdea4" fill-opacity=".8956019"/>
        <path d="M 554.1273 173.73719 L 749.8893 173.73719 C 755.4122 173.73719 759.8893 178.21434 759.8893 183.73719 L 759.8893 298.41666 C 759.8893 303.9395 755.4122 308.41666 749.8893 308.41666 L 554.1273 308.41666 C 548.60446 308.41666 544.1273 303.9395 544.1273 298.41666 L 544.1273 183.73719 C 544.1273 178.21434 548.60446 173.73719 554.1273 173.73719 Z" stroke="#270076" stroke-linecap="round" stroke-linejoin="round" stroke-width="1"/>
      </g>
      <g id="Graphic_28">
        <path d="M 37.39792 173.73719 L 233.15992 173.73719 C 238.68277 173.73719 243.15992 178.21434 243.15992 183.73719 L 243.15992 298.41666 C 243.15992 303.9395 238.68277 308.41666 233.15992 308.41666 L 37.39792 308.41666 C 31.875073 308.41666 27.39792 303.9395 27.39792 298.41666 L 27.39792 183.73719 C 27.39792 178.21434 31.875073 173.73719 37.39792 173.73719 Z" fill="#ecdea4" fill-opacity=".8956019"/>
        <path d="M 37.39792 173.73719 L 233.15992 173.73719 C 238.68277 173.73719 243.15992 178.21434 243.15992 183.73719 L 243.15992 298.41666 C 243.15992 303.9395 238.68277 308.41666 233.15992 308.41666 L 37.39792 308.41666 C 31.875073 308.41666 27.39792 303.9395 27.39792 298.41666 L 27.39792 183.73719 C 27.39792 178.21434 31.875073 173.73719 37.39792 173.73719 Z" stroke="#270076" stroke-linecap="round" stroke-linejoin="round" stroke-width="1"/>
      </g>
      <g id="Graphic_29">
        <path d="M -84.91302 417.8437 L 110.84898 417.8437 C 116.37183 417.8437 120.84898 422.3209 120.84898 427.8437 L 120.84898 542.5232 C 120.84898 548.04604 116.37183 552.5232 110.84898 552.5232 L -84.91302 552.5232 C -90.43587 552.5232 -94.91302 548.04604 -94.91302 542.5232 L -94.91302 427.8437 C -94.91302 422.3209 -90.43587 417.8437 -84.91302 417.8437 Z" fill="#ecdea4" fill-opacity=".8956019"/>
        <path d="M -84.91302 417.8437 L 110.84898 417.8437 C 116.37183 417.8437 120.84898 422.3209 120.84898 427.8437 L 120.84898 542.5232 C 120.84898 548.04604 116.37183 552.5232 110.84898 552.5232 L -84.91302 552.5232 C -90.43587 552.5232 -94.91302 548.04604 -94.91302 542.5232 L -94.91302 427.8437 C -94.91302 422.3209 -90.43587 417.8437 -84.91302 417.8437 Z" stroke="#270076" stroke-linecap="round" stroke-linejoin="round" stroke-width="1"/>
      </g>
      <g id="Graphic_30">
        <path d="M 162.1395 417.8437 L 357.9015 417.8437 C 363.42436 417.8437 367.9015 422.3209 367.9015 427.8437 L 367.9015 542.5232 C 367.9015 548.04604 363.42436 552.5232 357.9015 552.5232 L 162.1395 552.5232 C 156.61666 552.5232 152.1395 548.04604 152.1395 542.5232 L 152.1395 427.8437 C 152.1395 422.3209 156.61666 417.8437 162.1395 417.8437 Z" fill="#ecdea4" fill-opacity=".8956019"/>
        <path d="M 162.1395 417.8437 L 357.9015 417.8437 C 363.42436 417.8437 367.9015 422.3209 367.9015 427.8437 L 367.9015 542.5232 C 367.9015 548.04604 363.42436 552.5232 357.9015 552.5232 L 162.1395 552.5232 C 156.61666 552.5232 152.1395 548.04604 152.1395 542.5232 L 152.1395 427.8437 C 152.1395 422.3209 156.61666 417.8437 162.1395 417.8437 Z" stroke="#270076" stroke-linecap="round" stroke-linejoin="round" stroke-width="1"/>
      </g>
      <g id="Graphic_31">
        <path d="M 435.8542 455.5256 L 631.6162 455.5256 C 637.13905 455.5256 641.6162 460.00275 641.6162 465.5256 L 641.6162 580.2051 C 641.6162 585.7279 637.13905 590.2051 631.6162 590.2051 L 435.8542 590.2051 C 430.33135 590.2051 425.8542 585.7279 425.8542 580.2051 L 425.8542 465.5256 C 425.8542 460.00275 430.33135 455.5256 435.8542 455.5256 Z" fill="#ecdea4" fill-opacity=".8956019"/>
        <path d="M 435.8542 455.5256 L 631.6162 455.5256 C 637.13905 455.5256 641.6162 460.00275 641.6162 465.5256 L 641.6162 580.2051 C 641.6162 585.7279 637.13905 590.2051 631.6162 590.2051 L 435.8542 590.2051 C 430.33135 590.2051 425.8542 585.7279 425.8542 580.2051 L 425.8542 465.5256 C 425.8542 460.00275 430.33135 455.5256 435.8542 455.5256 Z" stroke="#270076" stroke-linecap="round" stroke-linejoin="round" stroke-width="1"/>
      </g>
      <g id="Graphic_32">
        <path d="M 680.2432 455.5256 L 876.0052 455.5256 C 881.528 455.5256 886.0052 460.00275 886.0052 465.5256 L 886.0052 580.2051 C 886.0052 585.7279 881.528 590.2051 876.0052 590.2051 L 680.2432 590.2051 C 674.7203 590.2051 670.2432 585.7279 670.2432 580.2051 L 670.2432 465.5256 C 670.2432 460.00275 674.7203 455.5256 680.2432 455.5256 Z" fill="#ecdea4" fill-opacity=".8956019"/>
        <path d="M 680.2432 455.5256 L 876.0052 455.5256 C 881.528 455.5256 886.0052 460.00275 886.0052 465.5256 L 886.0052 580.2051 C 886.0052 585.7279 881.528 590.2051 876.0052 590.2051 L 680.2432 590.2051 C 674.7203 590.2051 670.2432 585.7279 670.2432 580.2051 L 670.2432 465.5256 C 670.2432 460.00275 674.7203 455.5256 680.2432 455.5256 Z" stroke="#270076" stroke-linecap="round" stroke-linejoin="round" stroke-width="1"/>
      </g>
    </g>
    <g id="Canvas_1_texts">
      <title>texts</title>
      <g id="Graphic_7">
        <text transform="translate(746.9303 504.36534)" fill="#22006f" style="white-space: pre;">
          <tspan font-family="Century Gothic" font-size="30" font-weight="700" fill="#22006f" x="0" y="30">PCA</tspan>
        </text>
      </g>
      <g id="Graphic_33">
        <text transform="translate(475.22934 504.36534)" fill="#22006f" style="white-space: pre;">
          <tspan font-family="Century Gothic" font-size="30" font-weight="700" fill="#22006f" x="0" y="30">Kmeans</tspan>
        </text>
      </g>
      <g id="Graphic_34">
        <text transform="translate(164.03663 466.68346)" fill="#22006f" style="white-space: pre;">
          <tspan font-family="Century Gothic" font-size="30" font-weight="700" fill="#22006f" x="0" y="30">Classification</tspan>
        </text>
      </g>
      <g id="Graphic_35">
        <text transform="translate(-65.03495 466.68346)" fill="#22006f" style="white-space: pre;">
          <tspan font-family="Century Gothic" font-size="30" font-weight="700" fill="#22006f" x="0" y="30">Regression</tspan>
        </text>
      </g>
      <g id="Graphic_36">
        <text transform="translate(56.07482 222.57692)" fill="#22006f" style="white-space: pre;">
          <tspan font-family="Century Gothic" font-size="30" font-weight="700" fill="#22006f" x="0" y="30">Supervised</tspan>
        </text>
      </g>
      <g id="Graphic_37">
        <text transform="translate(554.501 222.57692)" fill="#22006f" style="white-space: pre;"><tspan x="0" dy="1em">​</tspan>          <tspan font-family="Century Gothic" font-size="30" font-weight="700" fill="#22006f" x="0" y="30">Unsupervised</tspan><tspan x="0" dy="1em">​</tspan>        </text>
      </g>
      <g id="Graphic_38">
        <text transform="translate(291.51936 -11.460513)" fill="#22006f" style="white-space: pre;">
          <tspan font-family="Century Gothic" font-size="30" font-weight="700" fill="#22006f" x="10.788574" y="30">Do you have</tspan>
          <tspan font-family="Century Gothic" font-size="30" font-weight="700" fill="#22006f" x="44.39209" y="67">Labeled</tspan>
          <tspan font-family="Century Gothic" font-size="30" font-weight="700" fill="#22006f" x="0" y="104">Training Data?</tspan>
        </text>
      </g>
      <g id="Graphic_39">
        <text transform="translate(451.0711 141.27352)" fill="#1f008b" style="white-space: pre;">
          <tspan font-family="Century Gothic" font-size="30" font-weight="700" fill="#1f008b" x="0" y="30">NO</tspan>
        </text>
      </g>
      <g id="Graphic_40">
        <text transform="translate(264.84617 141.27352)" fill="#1f008b" style="white-space: pre;">
          <tspan font-family="Century Gothic" font-size="30" font-weight="700" fill="#1f008b" x="0" y="30">YES</tspan>
        </text>
      </g>
      <g id="Graphic_41">
        <text transform="translate(663.1973 316.54704)" fill="#1f008b" style="white-space: pre;">
          <tspan font-family="Century Gothic" font-size="30" font-weight="700" fill="#1f008b" x="0" y="30">DIMENSIONALITY</tspan>
          <tspan font-family="Century Gothic" font-size="30" font-weight="700" fill="#1f008b" x="37.785645" y="67">REDUCTION</tspan>
        </text>
      </g>
      <g id="Graphic_42">
        <text transform="translate(439.2608 335.04704)" fill="#1f008b" style="white-space: pre;">
          <tspan font-family="Century Gothic" font-size="30" font-weight="700" fill="#1f008b" x="0" y="30">CLUSTERING</tspan>
        </text>
      </g>
      <g id="Graphic_43">
        <text transform="translate(151.73243 316.54704)" fill="#1f008b" style="white-space: pre;"><tspan x="0" dy="1em">​</tspan>          <tspan font-family="Century Gothic" font-size="30" font-weight="700" fill="#1f008b" x="0" y="30">CATEGORICAL</tspan><tspan x="0" dy="1em">​</tspan>          <tspan font-family="Century Gothic" font-size="30" font-weight="700" fill="#1f008b" x="52.785645" y="67">DATA</tspan><tspan x="0" dy="1em">​</tspan>        </text>
      </g>
      <g id="Graphic_44">
        <text transform="translate(-47.800914 316.54704)" fill="#1f008b" style="white-space: pre;">
          <tspan font-family="Century Gothic" font-size="30" font-weight="700" fill="#1f008b" x="0" y="30">NUMERIC</tspan>
          <tspan font-family="Century Gothic" font-size="30" font-weight="700" fill="#1f008b" x="27.597656" y="67">DATA</tspan>
        </text>
      </g>
    </g>
  </g>
</svg>