<?xml version="1.0" encoding="utf-8"?>
<svg version="1.1" viewBox="-621 -220 1535 825" width="1535" height="825" xmlns="http://www.w3.org/2000/svg">
  <g id="Canvas_1" stroke-dasharray="none" stroke="none" fill-opacity="1" stroke-opacity="1" fill="none">
    <title>Canvas 1</title>
    <g id="Canvas_1_Layer_1">
      <title>Layer 1</title>
      <g id="Graphic_16">
        <path d="M -602 -216 L 98 -216 C 106.28427 -216 113 -209.28427 113 -201 L 113 474 C 113 482.28427 106.28427 489 98 489 L -602 489 C -610.2843 489 -617 482.28427 -617 474 L -617 -201 C -617 -209.28427 -610.2843 -216 -602 -216 Z" fill="white"/>
        <path d="M -602 -216 L 98 -216 C 106.28427 -216 113 -209.28427 113 -201 L 113 474 C 113 482.28427 106.28427 489 98 489 L -602 489 C -610.2843 489 -617 482.28427 -617 474 L -617 -201 C -617 -209.28427 -610.2843 -216 -602 -216 Z" stroke="#02329a" stroke-linecap="round" stroke-linejoin="round" stroke-dasharray="16.0,16.0" stroke-width="8"/>
      </g>
      <g id="Graphic_15">
        <path d="M 195 -216 L 895 -216 C 903.2843 -216 910 -209.28427 910 -201 L 910 474 C 910 482.28427 903.2843 489 895 489 L 195 489 C 186.71573 489 180 482.28427 180 474 L 180 -201 C 180 -209.28427 186.71573 -216 195 -216 Z" fill="white"/>
        <path d="M 195 -216 L 895 -216 C 903.2843 -216 910 -209.28427 910 -201 L 910 474 C 910 482.28427 903.2843 489 895 489 L 195 489 C 186.71573 489 180 482.28427 180 474 L 180 -201 C 180 -209.28427 186.71573 -216 195 -216 Z" stroke="#02329a" stroke-linecap="round" stroke-linejoin="round" stroke-dasharray="16.0,16.0" stroke-width="8"/>
      </g>
      <g id="Graphic_14">
        <path d="M 554 -137 L 859 -137 C 862.3137 -137 865 -134.31371 865 -131 L 865 283 C 865 286.3137 862.3137 289 859 289 L 554 289 C 550.6863 289 548 286.3137 548 283 L 548 -131 C 548 -134.31371 550.6863 -137 554 -137 Z" fill="#aa97fe"/>
        <path d="M 554 -137 L 859 -137 C 862.3137 -137 865 -134.31371 865 -131 L 865 283 C 865 286.3137 862.3137 289 859 289 L 554 289 C 550.6863 289 548 286.3137 548 283 L 548 -131 C 548 -134.31371 550.6863 -137 554 -137 Z" stroke="#02329a" stroke-linecap="round" stroke-linejoin="round" stroke-width="1"/>
      </g>
      <g id="Graphic_13">
        <path d="M 231 111 L 493 111 C 496.3137 111 499 113.68629 499 117 L 499 283 C 499 286.3137 496.3137 289 493 289 L 231 289 C 227.6863 289 225 286.3137 225 283 L 225 117 C 225 113.68629 227.6863 111 231 111 Z" fill="#a4f8fd"/>
        <path d="M 231 111 L 493 111 C 496.3137 111 499 113.68629 499 117 L 499 283 C 499 286.3137 496.3137 289 493 289 L 231 289 C 227.6863 289 225 286.3137 225 283 L 225 117 C 225 113.68629 227.6863 111 231 111 Z" stroke="#02329a" stroke-linecap="round" stroke-linejoin="round" stroke-width="1"/>
      </g>
      <g id="Graphic_12">
        <path d="M -552.5 -137 L 48.5 -137 C 51.81371 -137 54.5 -134.31371 54.5 -131 L 54.5 283 C 54.5 286.3137 51.81371 289 48.5 289 L -552.5 289 C -555.8137 289 -558.5 286.3137 -558.5 283 L -558.5 -131 C -558.5 -134.31371 -555.8137 -137 -552.5 -137 Z" fill="#a4f8fd"/>
        <path d="M -552.5 -137 L 48.5 -137 C 51.81371 -137 54.5 -134.31371 54.5 -131 L 54.5 283 C 54.5 286.3137 51.81371 289 48.5 289 L -552.5 289 C -555.8137 289 -558.5 286.3137 -558.5 283 L -558.5 -131 C -558.5 -134.31371 -555.8137 -137 -552.5 -137 Z" stroke="#02329a" stroke-linecap="round" stroke-linejoin="round" stroke-width="1"/>
      </g>
      <g id="Graphic_11">
        <path d="M -298.5 -102 L 13.5 -102 C 16.813708 -102 19.5 -99.31371 19.5 -96 L 19.5 52 C 19.5 55.31371 16.813708 58 13.5 58 L -298.5 58 C -301.8137 58 -304.5 55.31371 -304.5 52 L -304.5 -96 C -304.5 -99.31371 -301.8137 -102 -298.5 -102 Z" fill="#aa97fe"/>
        <path d="M -298.5 -102 L 13.5 -102 C 16.813708 -102 19.5 -99.31371 19.5 -96 L 19.5 52 C 19.5 55.31371 16.813708 58 13.5 58 L -298.5 58 C -301.8137 58 -304.5 55.31371 -304.5 52 L -304.5 -96 C -304.5 -99.31371 -301.8137 -102 -298.5 -102 Z" stroke="#02329a" stroke-linecap="round" stroke-linejoin="round" stroke-width="1"/>
      </g>
      <g id="Graphic_10">
        <text transform="translate(585.8994 39.5)" fill="#250060" style="white-space: pre;">
          <tspan font-family="Century Gothic" font-size="60" font-weight="700" fill="#250060" x="0" y="60">Memory</tspan>
        </text>
      </g>
      <g id="Graphic_9">
        <text transform="translate(-263.1006 -58.5)" fill="#250060" style="white-space: pre;">
          <tspan font-family="Century Gothic" font-size="60" font-weight="700" fill="#250060" x="0" y="60">Memory</tspan>
        </text>
      </g>
      <g id="Graphic_8">
        <text transform="translate(-314.40234 168)" fill="#250060" style="white-space: pre;"><tspan x="0" dy="1em">​</tspan>          <tspan font-family="Century Gothic" font-size="60" font-weight="700" fill="#250060" x="0" y="60">JVM</tspan><tspan x="0" dy="1em">​</tspan>        </text>
      </g>
      <g id="Graphic_7">
        <text transform="translate(294 172)" fill="#250060" style="white-space: pre;"><tspan x="0" dy="1em">​</tspan>          <tspan font-family="Century Gothic" font-size="60" font-weight="700" fill="#250060" x="0" y="60">JVM</tspan><tspan x="0" dy="1em">​</tspan>        </text>
      </g>
      <g id="Graphic_6">
        <text transform="translate(471.80176 381)" fill="#250060" style="white-space: pre;">
          <tspan font-family="Century Gothic" font-size="60" font-weight="700" fill="#250060" x="0" y="60">Linux</tspan>
        </text>
      </g>
      <g id="Graphic_5">
        <text transform="translate(-325.19824 381)" fill="#250060" style="white-space: pre;">
          <tspan font-family="Century Gothic" font-size="60" font-weight="700" fill="#250060" x="0" y="60">Linux</tspan>
        </text>
      </g>
      <g id="Graphic_4">
        <text transform="translate(-516.0088 527)" fill="#250060" style="white-space: pre;">
          <tspan font-family="Century Gothic" font-size="60" font-weight="700" fill="#250060" x="0" y="60">On-Heap Memory</tspan>
        </text>
      </g>
      <g id="Graphic_3">
        <text transform="translate(282.20703 514)" fill="#250060" style="white-space: pre;">
          <tspan font-family="Century Gothic" font-size="60" font-weight="700" fill="#250060" x="0" y="60">Off-Heap Memory</tspan>
        </text>
      </g>
    </g>
  </g>
</svg>