<?xml version="1.0" encoding="utf-8"?>
<svg version="1.1" viewBox="-734 -262 1825 1114" width="1825" height="1114" xmlns="http://www.w3.org/2000/svg">
  <g id="Canvas_1" stroke-dasharray="none" stroke="none" fill-opacity="1" stroke-opacity="1" fill="none">
    <title>Canvas 1</title>
    <g id="Canvas_1_Layer_1">
      <title>Layer 1</title>
      <g id="Graphic_27">
        <path d="M -729 -261 L -282 -261 C -279.79086 -261 -278 -259.20914 -278 -257 L -278 10 C -278 12.209139 -279.79086 14 -282 14 L -729 14 C -731.2091 14 -733 12.209139 -733 10 L -733 -257 C -733 -259.20914 -731.2091 -261 -729 -261 Z" fill="#ebdea6"/>
        <path d="M -729 -261 L -282 -261 C -279.79086 -261 -278 -259.20914 -278 -257 L -278 10 C -278 12.209139 -279.79086 14 -282 14 L -729 14 C -731.2091 14 -733 12.209139 -733 10 L -733 -257 C -733 -259.20914 -731.2091 -261 -729 -261 Z" stroke="#02329a" stroke-linecap="round" stroke-linejoin="round" stroke-width="1"/>
      </g>
      <g id="Graphic_26">
        <path d="M 639 -261 L 1086 -261 C 1088.2091 -261 1090 -259.20914 1090 -257 L 1090 10 C 1090 12.209139 1088.2091 14 1086 14 L 639 14 C 636.79086 14 635 12.209139 635 10 L 635 -257 C 635 -259.20914 636.79086 -261 639 -261 Z" fill="#aa97fe"/>
        <path d="M 639 -261 L 1086 -261 C 1088.2091 -261 1090 -259.20914 1090 -257 L 1090 10 C 1090 12.209139 1088.2091 14 1086 14 L 639 14 C 636.79086 14 635 12.209139 635 10 L 635 -257 C 635 -259.20914 636.79086 -261 639 -261 Z" stroke="#02329a" stroke-linecap="round" stroke-linejoin="round" stroke-width="1"/>
      </g>
      <g id="Graphic_25">
        <path d="M -45 -261 L 402 -261 C 404.20914 -261 406 -259.20914 406 -257 L 406 10 C 406 12.209139 404.20914 14 402 14 L -45 14 C -47.20914 14 -49 12.209139 -49 10 L -49 -257 C -49 -259.20914 -47.20914 -261 -45 -261 Z" fill="#e3a92e"/>
        <path d="M -45 -261 L 402 -261 C 404.20914 -261 406 -259.20914 406 -257 L 406 10 C 406 12.209139 404.20914 14 402 14 L -45 14 C -47.20914 14 -49 12.209139 -49 10 L -49 -257 C -49 -259.20914 -47.20914 -261 -45 -261 Z" stroke="#02329a" stroke-linecap="round" stroke-linejoin="round" stroke-width="1"/>
      </g>
      <g id="Graphic_24">
        <path d="M 427 -105.33 L 427 -141.67 C 427 -142.22228 427.4477 -142.67 428 -142.67 L 550 -142.67 C 550.5523 -142.67 551 -143.11772 551 -143.67 L 551 -160.0608 C 551 -160.61309 551.4477 -161.0608 552 -161.0608 C 552.1834 -161.0608 552.3632 -161.01038 552.5199 -160.91505 L 612.5963 -124.35425 C 613.0681 -124.06713 613.2178 -123.45192 612.9307 -122.98013 C 612.84756 -122.84354 612.7329 -122.72888 612.5963 -122.64575 L 552.5199 -86.08495 C 552.0481 -85.79783 551.4329 -85.94754 551.14575 -86.41933 C 551.0504 -86.57597 551 -86.75582 551 -86.9392 L 551 -103.33 C 551 -103.88228 550.5523 -104.33 550 -104.33 L 428 -104.33 C 427.4477 -104.33 427 -104.77772 427 -105.33 Z" fill="#a4f8fd"/>
        <path d="M 427 -105.33 L 427 -141.67 C 427 -142.22228 427.4477 -142.67 428 -142.67 L 550 -142.67 C 550.5523 -142.67 551 -143.11772 551 -143.67 L 551 -160.0608 C 551 -160.61309 551.4477 -161.0608 552 -161.0608 C 552.1834 -161.0608 552.3632 -161.01038 552.5199 -160.91505 L 612.5963 -124.35425 C 613.0681 -124.06713 613.2178 -123.45192 612.9307 -122.98013 C 612.84756 -122.84354 612.7329 -122.72888 612.5963 -122.64575 L 552.5199 -86.08495 C 552.0481 -85.79783 551.4329 -85.94754 551.14575 -86.41933 C 551.0504 -86.57597 551 -86.75582 551 -86.9392 L 551 -103.33 C 551 -103.88228 550.5523 -104.33 550 -104.33 L 428 -104.33 C 427.4477 -104.33 427 -104.77772 427 -105.33 Z" stroke="#02329a" stroke-linecap="round" stroke-linejoin="round" stroke-width="1"/>
      </g>
      <g id="Graphic_23">
        <text transform="translate(749.0918 -196.5)" fill="#250060" style="white-space: pre;">
          <tspan font-family="Century Gothic" font-size="60" font-weight="700" fill="#250060" x="0" y="60">DataSet</tspan>
          <tspan font-family="Century Gothic" font-size="60" font-weight="700" fill="#250060" x="23.408203" y="133">(2016)</tspan>
        </text>
      </g>
      <g id="Graphic_22">
        <text transform="translate(-595.5 -196.5)" fill="#250060" style="white-space: pre;">
          <tspan font-family="Century Gothic" font-size="60" font-weight="700" fill="#250060" x="30.585938" y="60">RDD</tspan>
          <tspan font-family="Century Gothic" font-size="60" font-weight="700" fill="#250060" x="0" y="133">(2011)</tspan>
        </text>
      </g>
      <g id="Graphic_21">
        <text transform="translate(4.491211 -196.5)" fill="#250060" style="white-space: pre;"><tspan x="0" dy="1em">​</tspan>          <tspan font-family="Century Gothic" font-size="60" font-weight="700" fill="#250060" x="0" y="60">DataFrames</tspan><tspan x="0" dy="1em">​</tspan>          <tspan font-family="Century Gothic" font-size="60" font-weight="700" fill="#250060" x="95.40527" y="133">(2013)</tspan><tspan x="0" dy="1em">​</tspan>        </text>
      </g>
      <g id="Graphic_20">
        <path d="M -257 -105.33 L -257 -141.67 C -257 -142.22228 -256.5523 -142.67 -256 -142.67 L -134 -142.67 C -133.44772 -142.67 -133 -143.11772 -133 -143.67 L -133 -160.0608 C -133 -160.61309 -132.55228 -161.0608 -132 -161.0608 C -131.81662 -161.0608 -131.63678 -161.01038 -131.48013 -160.91505 L -71.40369 -124.35425 C -70.9319 -124.06713 -70.7822 -123.45192 -71.06931 -122.98013 C -71.15244 -122.84354 -71.2671 -122.72888 -71.40369 -122.64575 L -131.48013 -86.08495 C -131.95192 -85.79783 -132.56713 -85.94754 -132.85425 -86.41933 C -132.94958 -86.57597 -133 -86.75582 -133 -86.9392 L -133 -103.33 C -133 -103.88228 -133.44772 -104.33 -134 -104.33 L -256 -104.33 C -256.5523 -104.33 -257 -104.77772 -257 -105.33 Z" fill="#a4f8fd"/>
        <path d="M -257 -105.33 L -257 -141.67 C -257 -142.22228 -256.5523 -142.67 -256 -142.67 L -134 -142.67 C -133.44772 -142.67 -133 -143.11772 -133 -143.67 L -133 -160.0608 C -133 -160.61309 -132.55228 -161.0608 -132 -161.0608 C -131.81662 -161.0608 -131.63678 -161.01038 -131.48013 -160.91505 L -71.40369 -124.35425 C -70.9319 -124.06713 -70.7822 -123.45192 -71.06931 -122.98013 C -71.15244 -122.84354 -71.2671 -122.72888 -71.40369 -122.64575 L -131.48013 -86.08495 C -131.95192 -85.79783 -132.56713 -85.94754 -132.85425 -86.41933 C -132.94958 -86.57597 -133 -86.75582 -133 -86.9392 L -133 -103.33 C -133 -103.88228 -133.44772 -104.33 -134 -104.33 L -256 -104.33 C -256.5523 -104.33 -257 -104.77772 -257 -105.33 Z" stroke="#02329a" stroke-linecap="round" stroke-linejoin="round" stroke-width="1"/>
      </g>
      <g id="Graphic_19">
        <path d="M 651.4341 203.26104 C 912.6298 350.4886 912.6298 589.1914 651.4341 736.419 C 390.2397 883.6473 -33.239718 883.6473 -294.4341 736.419 C -555.6298 589.1914 -555.6298 350.4886 -294.4341 203.26104 C -33.239718 56.032736 390.2397 56.032736 651.4341 203.26104" fill="white"/>
        <path d="M 651.4341 203.26104 C 912.6298 350.4886 912.6298 589.1914 651.4341 736.419 C 390.2397 883.6473 -33.239718 883.6473 -294.4341 736.419 C -555.6298 589.1914 -555.6298 350.4886 -294.4341 203.26104 C -33.239718 56.032736 390.2397 56.032736 651.4341 203.26104" stroke="#02329a" stroke-linecap="round" stroke-linejoin="round" stroke-width="9"/>
      </g>
      <g id="Graphic_18">
        <path d="M 652.16 299.9342 C 745.6191 393.39277 745.6191 544.91897 652.16 638.37756 C 558.7014 731.8366 407.1752 731.8366 313.7166 638.37756 C 220.25755 544.91897 220.25755 393.39277 313.7166 299.9342 C 407.1752 206.47511 558.7014 206.47511 652.16 299.9342" fill="#c0c0ff"/>
        <path d="M 652.16 299.9342 C 745.6191 393.39277 745.6191 544.91897 652.16 638.37756 C 558.7014 731.8366 407.1752 731.8366 313.7166 638.37756 C 220.25755 544.91897 220.25755 393.39277 313.7166 299.9342 C 407.1752 206.47511 558.7014 206.47511 652.16 299.9342" stroke="#02329a" stroke-linecap="round" stroke-linejoin="round" stroke-width="1"/>
      </g>
      <g id="Graphic_17">
        <path d="M 43.283385 301.30244 C 136.74245 394.76103 136.74245 546.2872 43.283385 639.7458 C -50.175206 733.2049 -201.7014 733.2049 -295.16 639.7458 C -388.61906 546.2872 -388.61906 394.76103 -295.16 301.30244 C -201.7014 207.84338 -50.175206 207.84338 43.283385 301.30244" fill="#fbdbdb"/>
        <path d="M 43.283385 301.30244 C 136.74245 394.76103 136.74245 546.2872 43.283385 639.7458 C -50.175206 733.2049 -201.7014 733.2049 -295.16 639.7458 C -388.61906 546.2872 -388.61906 394.76103 -295.16 301.30244 C -201.7014 207.84338 -50.175206 207.84338 43.283385 301.30244" stroke="#02329a" stroke-linecap="round" stroke-linejoin="round" stroke-width="1"/>
      </g>
      <g id="Graphic_16">
        <text transform="translate(51.893555 114.00118)" fill="#250060" style="white-space: pre;">
          <tspan font-family="Century Gothic" font-size="60" font-weight="700" fill="#250060" x="0" y="60">DataSets</tspan>
        </text>
      </g>
      <g id="Graphic_15">
        <text transform="translate(-185.35236 310.7636)" fill="#250060" style="white-space: pre;">
          <tspan font-family="Century Gothic" font-size="60" font-weight="700" fill="#250060" x="0" y="60">RDD</tspan>
        </text>
      </g>
      <g id="Graphic_14">
        <text transform="translate(314.93537 310.7636)" fill="#250060" style="white-space: pre;">
          <tspan font-family="Century Gothic" font-size="60" font-weight="700" fill="#250060" x="0" y="60">Dataframes</tspan>
        </text>
      </g>
      <g id="Group_10">
        <g id="Graphic_13">
          <circle cx="-272.62587" cy="422.21413" r="11.3741491905867" fill="blue"/>
        </g>
        <g id="Graphic_12">
          <circle cx="-272.62587" cy="494.21413" r="11.3741491905867" fill="blue"/>
        </g>
        <g id="Graphic_11">
          <circle cx="-272.62587" cy="566.2141" r="11.3741491905867" fill="blue"/>
        </g>
      </g>
      <g id="Group_7">
        <g id="Graphic_9">
          <circle cx="338.37413" cy="422.21413" r="11.3741491905867" fill="blue"/>
        </g>
        <g id="Graphic_8">
          <circle cx="338.37413" cy="494.21413" r="11.3741491905867" fill="blue"/>
        </g>
      </g>
      <g id="Graphic_6">
        <text transform="translate(-238.6926 397.0195)" fill="#250060" style="white-space: pre;">
          <tspan font-family="Century Gothic" font-size="40" font-weight="700" fill="#250060" x="0" y="40">Functional</tspan>
        </text>
      </g>
      <g id="Graphic_5">
        <text transform="translate(-238.6926 469.71413)" fill="#250060" style="white-space: pre;">
          <tspan font-family="Century Gothic" font-size="40" font-weight="700" fill="#250060" x="0" y="40">Type Safe</tspan>
        </text>
      </g>
      <g id="Graphic_4">
        <text transform="translate(-242.4426 542.4088)" fill="#250060" style="white-space: pre;">
          <tspan font-family="Century Gothic" font-size="40" font-weight="700" fill="#250060" x="5.595703" y="40">Direct API </tspan>
          <tspan font-family="Century Gothic" font-size="40" font-weight="700" fill="#250060" x="0" y="89">access</tspan>
        </text>
      </g>
      <g id="Graphic_3">
        <text transform="translate(377.0039 402.84)" fill="#250060" style="white-space: pre;">
          <tspan font-family="Century Gothic" font-size="40" font-weight="700" fill="#250060" x="0" y="40">Relational</tspan>
        </text>
      </g>
      <g id="Graphic_2">
        <text transform="translate(377.0039 470.53464)" fill="#250060" style="white-space: pre;">
          <tspan font-family="Century Gothic" font-size="40" font-weight="700" fill="#250060" x="0" y="40">Catalyst query</tspan>
          <tspan font-family="Century Gothic" font-size="40" font-weight="700" fill="#250060" x="0" y="89">optimizer</tspan>
        </text>
      </g>
    </g>
  </g>
</svg>