<?xml version="1.0" encoding="utf-8"?>
<!-- Generator: Adobe Illustrator 22.1.0, SVG Export Plug-In . SVG Version: 6.00 Build 0)  -->
<svg version="1.1" id="Layer_1" xmlns="http://www.w3.org/2000/svg" xmlns:xlink="http://www.w3.org/1999/xlink" x="0px" y="0px"
	 viewBox="0 0 1362 300" style="enable-background:new 0 0 1362 300;" xml:space="preserve">
<style type="text/css">
	.st0{fill:none;stroke:#140064;stroke-width:4.4077;stroke-miterlimit:10;}
	.st1{fill:none;stroke:#140064;stroke-width:4;stroke-miterlimit:10;}
	.st2{fill:#B2DDF5;stroke:#B2DDF5;stroke-width:4;stroke-miterlimit:10;}
	.st3{fill:#D96EAD;stroke:#D96EAD;stroke-width:4;stroke-miterlimit:10;}
	.st4{fill:none;stroke:#1D0087;stroke-width:4;stroke-miterlimit:10;}
	.st5{fill:none;}
	.st6{fill:#140064;stroke:#140064;stroke-width:1.4798;stroke-miterlimit:10;}
	.st7{fill:#140064;stroke:#140064;stroke-width:1.0178;stroke-miterlimit:10;}
	.st8{fill:#D96EAD;stroke:#D96EAD;stroke-width:1.411;stroke-miterlimit:10;}
	.st9{fill:#B2DDF5;stroke:#B2DDF5;stroke-width:1.6041;stroke-miterlimit:10;}
	.st10{fill:#2500BB;stroke:#2500BB;stroke-width:1.6456;stroke-miterlimit:10;}
	.st11{fill:#2500BB;stroke:#2500BB;stroke-width:1.7507;stroke-miterlimit:10;}
	.st12{fill:#2500BB;stroke:#2500BB;stroke-width:1.0178;stroke-miterlimit:10;}
	.st13{fill:#AC97FF;}
	.st14{fill:none;stroke:#250064;stroke-width:2;stroke-linecap:round;stroke-linejoin:round;}
	.st15{fill:#ECDEA4;}
	.st16{fill:none;stroke:#250064;stroke-width:2;stroke-linecap:round;stroke-linejoin:round;stroke-dasharray:4,4;}
	.st17{fill:url(#SVGID_1_);}
	.st18{fill:none;stroke:#250064;stroke-linecap:round;stroke-linejoin:round;}
	.st19{fill:#EDEDED;}
	.st20{fill:#2500BB;stroke:#2500BB;stroke-width:1.8676;stroke-miterlimit:10;}
	.st21{fill:#EEEEEE;}
	.st22{fill:#290064;}
	.st23{font-family:'CenturyGothic-Bold';}
	.st24{font-size:32px;}
	.st25{font-family:'ArialMT';}
	.st26{font-size:12px;}
</style>
<g id="Canvas_1">
	<title>Canvas 1</title>
	<g id="Canvas_x5F_1:_Layer_1">
		<title>Layer 1</title>
		<line class="st0" x1="224" y1="37.5" x2="313.4" y2="37.5"/>
		<path class="st1" d="M223,100.5"/>
		<line class="st2" x1="508.5" y1="100.5" x2="564.5" y2="100.5"/>
		<line class="st3" x1="508" y1="162.5" x2="564" y2="162.5"/>
		<line class="st4" x1="736.5" y1="131.5" x2="760.5" y2="131.5"/>
		<line class="st4" x1="961" y1="132.5" x2="1164" y2="132.5"/>
		<path class="st4" d="M415.5,205.5v47.2c0,8.2,6.6,14.9,14.8,14.9l427.3,0.9c8.2,0,14.9-6.6,14.9-14.9V182"/>
		<g id="Line_11">
			<path class="st5" d=""/>
			<g>
				<path class="st6" d="M324,38l-16.8-8l0,16L324,38z"/>
			</g>
			<path marker-end="url(#FilledArrow_Marker)" class="st6" d="M307.2,38"/>
		</g>
		<g id="Line_12">
			<path class="st5" d=""/>
			<g>
				<path class="st7" d="M308,100.9"/>
			</g>
		</g>
		<g id="Line_13">
			<g>
				<path class="st8" d="M576,163.2l-18.1-6.8l0,13.5L576,163.2z"/>
			</g>
			<path marker-end="url(#FilledArrow_Marker_2)" class="st8" d="M557.9,163.3"/>
		</g>
		<g id="Line_14">
			<g>
				<path class="st9" d="M578,100.3l-20.6-7.6l0.1,15.4L578,100.3z"/>
			</g>
			<path marker-end="url(#FilledArrow_Marker_3)" class="st9" d="M557.5,100.4"/>
		</g>
		<g id="Line_15">
			<path class="st5" d=""/>
			<g>
				<path class="st10" d="M782,132.5l-21-8l-0.1,15.8L782,132.5z"/>
			</g>
			<path marker-end="url(#FilledArrow_Marker_4)" class="st10" d="M760.9,132.5"/>
		</g>
		<g id="Line_16">
			<path class="st5" d=""/>
			<g>
				<path class="st11" d="M1181.4,132.9l-22.4-8.4v16.8L1181.4,132.9z"/>
			</g>
			<path marker-end="url(#FilledArrow_Marker_4)" class="st12" d="M1170.7,132.9"/>
		</g>
		<g id="Graphic_3">
			<path class="st13" d="M7,11h210.7c3.3,0,6,2.7,6,6v110.7c0,3.3-2.7,6-6,6H7c-3.3,0-6-2.7-6-6V17C1,13.7,3.7,11,7,11z"/>
			<path class="st14" d="M7,11h210.7c3.3,0,6,2.7,6,6v110.7c0,3.3-2.7,6-6,6H7c-3.3,0-6-2.7-6-6V17C1,13.7,3.7,11,7,11z"/>
		</g>
		<g id="Graphic_4">
			<path class="st13" d="M328.7,16.5h174.1c3.3,0,6,2.7,6,6v34.2c0,3.3-2.7,6-6,6H328.7c-3.3,0-6-2.7-6-6V22.5
				C322.7,19.2,325.4,16.5,328.7,16.5z"/>
			<path class="st14" d="M328.7,16.5h174.1c3.3,0,6,2.7,6,6v34.2c0,3.3-2.7,6-6,6H328.7c-3.3,0-6-2.7-6-6V22.5
				C322.7,19.2,325.4,16.5,328.7,16.5z"/>
		</g>
		<g id="Graphic_5">
			<path class="st13" d="M328.7,77.9h174.1c3.3,0,6,2.7,6,6v34.2c0,3.3-2.7,6-6,6H328.7c-3.3,0-6-2.7-6-6V83.9
				C322.7,80.6,325.4,77.9,328.7,77.9z"/>
			<path class="st14" d="M328.7,77.9h174.1c3.3,0,6,2.7,6,6v34.2c0,3.3-2.7,6-6,6H328.7c-3.3,0-6-2.7-6-6V83.9
				C322.7,80.6,325.4,77.9,328.7,77.9z"/>
		</g>
		<g id="Graphic_6">
			<path class="st15" d="M328.7,139.2h174.1c3.3,0,6,2.7,6,6v34.2c0,3.3-2.7,6-6,6H328.7c-3.3,0-6-2.7-6-6v-34.2
				C322.7,141.9,325.4,139.2,328.7,139.2z"/>
			<path class="st16" d="M328.7,139.2h174.1c3.3,0,6,2.7,6,6v34.2c0,3.3-2.7,6-6,6H328.7c-3.3,0-6-2.7-6-6v-34.2
				C322.7,141.9,325.4,139.2,328.7,139.2z"/>
		</g>
		<g id="Graphic_7">
			
				<linearGradient id="SVGID_1_" gradientUnits="userSpaceOnUse" x1="181.9821" y1="501.1795" x2="182.9821" y2="501.1795" gradientTransform="matrix(1.023426e-14 167.1382 167.1382 -1.023426e-14 -83122.7188 -30368.2812)">
				<stop  offset="0" style="stop-color:#A6EEF5"/>
				<stop  offset="1" style="stop-color:#FFB199"/>
			</linearGradient>
			<path class="st17" d="M647.5,51.3l86.4,75.6c2.5,2.2,2.7,6,0.6,8.5c-0.2,0.2-0.4,0.4-0.6,0.6l-86.4,75.6c-2.3,2-5.6,2-7.9,0
				l-86.4-75.6c-2.5-2.2-2.7-6-0.6-8.5c0.2-0.2,0.4-0.4,0.6-0.6l86.4-75.6C641.8,49.3,645.2,49.3,647.5,51.3z"/>
			<path class="st18" d="M647.5,51.3l86.4,75.6c2.5,2.2,2.7,6,0.6,8.5c-0.2,0.2-0.4,0.4-0.6,0.6l-86.4,75.6c-2.3,2-5.6,2-7.9,0
				l-86.4-75.6c-2.5-2.2-2.7-6-0.6-8.5c0.2-0.2,0.4-0.4,0.6-0.6l86.4-75.6C641.8,49.3,645.2,49.3,647.5,51.3z"/>
		</g>
		<g id="Graphic_8">
			<path class="st15" d="M787.5,82.9h167.5c3.3,0,6,2.7,6,6v87c0,3.3-2.7,6-6,6H787.5c-3.3,0-6-2.7-6-6v-87
				C781.5,85.6,784.1,82.9,787.5,82.9z"/>
			<path class="st14" d="M787.5,82.9h167.5c3.3,0,6,2.7,6,6v87c0,3.3-2.7,6-6,6H787.5c-3.3,0-6-2.7-6-6v-87
				C781.5,85.6,784.1,82.9,787.5,82.9z"/>
		</g>
		<g id="Graphic_9">
			<path class="st15" d="M1189.1,82.9h167.5c3.3,0,6,2.7,6,6v87c0,3.3-2.7,6-6,6h-167.5c-3.3,0-6-2.7-6-6v-87
				C1183.1,85.6,1185.7,82.9,1189.1,82.9z"/>
			<path class="st14" d="M1189.1,82.9h167.5c3.3,0,6,2.7,6,6v87c0,3.3-2.7,6-6,6h-167.5c-3.3,0-6-2.7-6-6v-87
				C1183.1,85.6,1185.7,82.9,1189.1,82.9z"/>
		</g>
		<g id="Graphic_10">
			<path class="st19" d="M1025.9,109.3h92.2c3.3,0,6,2.7,6,6v34.2c0,3.3-2.7,6-6,6h-92.2c-3.3,0-6-2.7-6-6v-34.2
				C1019.9,111.9,1022.5,109.3,1025.9,109.3z"/>
			<path class="st18" d="M1025.9,109.3h92.2c3.3,0,6,2.7,6,6v34.2c0,3.3-2.7,6-6,6h-92.2c-3.3,0-6-2.7-6-6v-34.2
				C1019.9,111.9,1022.5,109.3,1025.9,109.3z"/>
		</g>
		<g id="Line_17">
			<path class="st5" d=""/>
			<g>
				<path class="st20" d="M415.8,185l-8.9,23.9l17.9-0.1L415.8,185z"/>
			</g>
			<path marker-end="url(#FilledArrow_Marker_4)" class="st20" d="M415.9,208.9"/>
		</g>
		<g id="Graphic_18">
			<path class="st21" d="M554,244.1h174.1c3.3,0,6,2.7,6,6v34.2c0,3.3-2.7,6-6,6H554c-3.3,0-6-2.7-6-6v-34.2
				C548,246.8,550.7,244.1,554,244.1z"/>
			<path class="st18" d="M554,244.1h174.1c3.3,0,6,2.7,6,6v34.2c0,3.3-2.7,6-6,6H554c-3.3,0-6-2.7-6-6v-34.2
				C548,246.8,550.7,244.1,554,244.1z"/>
		</g>
		<g id="Graphic_19">
			<text transform="matrix(1 0 0 1 11.5523 84.8618)" class="st22 st23 st24">Training data</text>
		</g>
		<g id="Graphic_20">
			<text transform="matrix(1 0 0 1 386.9047 52.1006)" class="st22 st23 st24">text</text>
		</g>
		<g id="Graphic_21">
			<text transform="matrix(1 0 0 1 376.6625 113.4625)" class="st22 st23 st24">label</text>
		</g>
		<g id="Graphic_22">
			<text transform="matrix(1 0 0 1 376.6625 174.8243)" class="st22 st23 st24">label</text>
		</g>
		<g id="Graphic_23">
			<text transform="matrix(1 0 0 1 566.3898 143.9309)" class="st22 st23 st24">GRADIENT</text>
		</g>
		<g id="Graphic_24">
			<text transform="matrix(1 0 0 1 579.5874 279.7333)" class="st22 st23 st24">PREDICT</text>
		</g>
		<g id="Graphic_25">
			<text transform="matrix(1 0 0 1 821.9056 144.8495)" class="st22 st23 st24">Model</text>
		</g>
		<g id="Graphic_26">
			<text transform="matrix(1 0 0 1 1032.3076 144.8495)" class="st22 st23 st24">SAVE</text>
		</g>
		<g id="Graphic_27">
			<text transform="matrix(1 0 0 1 1205.2568 125.3495)" class="st22 st23 st24">Updated</text>
			<text transform="matrix(1 0 0 1 1340.3193 125.3495)" class="st22 st25 st26"> </text>
			<text transform="matrix(1 0 0 1 1223.5068 164.3495)" class="st22 st23 st24">Model</text>
		</g>
		<line class="st0" x1="224.3" y1="100.5" x2="313.7" y2="100.5"/>
		<path class="st6" d="M321.3,101l-16.8-8l0,16L321.3,101"/>
		<path marker-end="url(#FilledArrow_Marker)" class="st6" d="M373.2,127"/>
	</g>
</g>
</svg>
