<?xml version="1.0" encoding="UTF-8" standalone="no"?>
<!DOCTYPE svg PUBLIC "-//W3C//DTD SVG 1.1//EN" "http://www.w3.org/Graphics/SVG/1.1/DTD/svg11.dtd">
<svg xmlns:dc="http://purl.org/dc/elements/1.1/" xmlns:xl="http://www.w3.org/1999/xlink" xmlns="http://www.w3.org/2000/svg" version="1.1" viewBox="-176 -182 948 949" width="948" height="949">
  <defs/>
  <metadata> Produced by OmniGraffle 7.18.5\n2021-05-18 08:22:22 +0000</metadata>
  <g id="Canvas_1" stroke-dasharray="none" stroke="none" fill-opacity="1" fill="none" stroke-opacity="1">
    <title>Canvas 1</title>
    <g id="Canvas_1_Layer_1">
      <title>Layer 1</title>
      <g id="Group_28">
        <g id="Graphic_27">
          <path d="M 85.04078 82.1253 C 56.37512 111.12319 34.353812 144.93823 19.712492 181.73137 L 5.403389 175.95315 C 20.804065 137.28535 43.95254 101.74989 74.065725 71.28076 Z" fill="#e3a92e"/>
        </g>
        <g id="Graphic_26">
          <path d="M 19.712492 181.73137 C 5.877986 216.51934 -1.3596195 253.92945 -1.3596195 292.4786 L -16.784025 292.4786 C -16.784025 251.91242 -9.166742 212.53272 5.403389 175.95315 Z" fill="#a4f8fd"/>
        </g>
        <g id="Graphic_25">
          <path d="M 177.64654 18.244534 C 144.00947 33.004504 113.06574 54.076615 86.31033 80.83203 C 85.88319 81.25916 85.45606 81.69817 85.04078 82.1253 L 74.065725 71.28076 C 74.51659 70.82989 74.95559 70.379025 75.40646 69.92816 C 103.51447 41.820145 136.01251 19.68019 171.34627 4.160865 Z" fill="#ebdea6"/>
        </g>
        <g id="Graphic_24">
          <path d="M 592.52746 181.13812 L 578.0997 186.64345 C 563.6601 148.34346 541.28284 113.14022 511.81036 83.0745 L 522.77355 72.22995 C 553.7766 103.84999 577.3166 140.8567 592.52746 181.13812 Z" fill="#a4f8fd"/>
        </g>
        <g id="Graphic_23">
          <path d="M 612.69784 292.4786 L 597.2734 292.4786 C 597.2734 255.7448 590.70026 220.0195 578.0997 186.64345 L 592.52746 181.14999 C 605.7806 216.2583 612.69784 253.83453 612.69784 292.4786 Z" fill="#aa97fe"/>
        </g>
        <g id="Graphic_22">
          <path d="M 175.34475 565.6923 L 169.04447 579.7878 C 134.60059 564.3278 102.90936 542.5438 75.40646 515.02905 C 75.29968 514.92226 75.18103 514.8036 75.08611 514.69683 L 86.0493 503.86415 L 86.31033 504.1252 C 112.46063 530.2755 142.59755 550.99164 175.34475 565.6923 Z" fill="#e3a92e"/>
        </g>
        <g id="Graphic_21">
          <path d="M 86.0493 503.86415 L 75.08611 514.69683 C 43.59659 483.12426 19.629437 446.04636 4.0863823 405.6344 L 18.50227 400.14096 C 33.297834 438.57146 56.102225 473.834 86.0493 503.86415 Z" fill="#aa97fe"/>
        </g>
        <g id="Graphic_20">
          <path d="M 521.7532 513.7595 C 521.34976 514.18664 520.9226 514.6138 520.50735 515.02905 C 493.396 542.1523 462.2031 563.71085 428.31687 579.13525 L 422.0166 565.0397 C 454.20614 550.38653 483.8447 529.8958 509.6035 504.1252 C 509.995 503.73364 510.39843 503.33023 510.79 502.9268 Z" fill="#ebdea6"/>
        </g>
        <g id="Graphic_19">
          <path d="M 428.31687 579.13525 C 387.9049 597.53776 343.67247 607.2195 297.9569 607.2195 L 297.9569 591.7951 C 341.4656 591.7951 383.57422 582.5761 422.0166 565.0397 Z" fill="#aa97fe"/>
        </g>
        <g id="Graphic_18">
          <path d="M 589.229 412.172 C 573.82834 449.6533 551.09514 484.10905 521.7532 513.7595 L 510.79 502.9268 C 538.67256 474.7476 560.2786 442.0004 574.9199 406.3819 Z" fill="#a4f8fd"/>
        </g>
        <g id="Graphic_17">
          <path d="M 522.77355 72.22995 L 511.81036 83.0745 C 511.0866 82.32701 510.351 81.57952 509.6035 80.83203 C 483.2396 54.46816 452.7942 33.62148 419.72666 18.88524 L 426.02693 4.801571 C 460.7912 20.285301 492.779 42.19982 520.50735 69.92816 C 521.2667 70.68751 522.02606 71.45873 522.77355 72.22995 Z" fill="#e3a92e"/>
        </g>
        <g id="Graphic_16">
          <path d="M 426.02693 4.801571 L 419.72666 18.88524 C 381.90127 2.0370427 340.61132 -6.826058 297.9569 -6.826058 L 297.9569 -22.250464 C 342.80633 -22.250464 386.24383 -12.924631 426.02693 4.801571 Z" fill="#ebdea6"/>
        </g>
        <g id="Graphic_15">
          <path d="M 297.9569 591.7951 L 297.9569 607.2195 C 252.78713 607.2195 209.06487 597.7632 169.04447 579.7878 L 175.34475 565.6923 C 213.40743 582.8015 254.994 591.7951 297.9569 591.7951 Z" fill="#a4f8fd"/>
        </g>
        <g id="Graphic_14">
          <path d="M 297.9569 -22.250464 L 297.9569 -6.826058 C 255.84828 -6.826058 215.0804 1.811609 177.64654 18.244534 L 171.34627 4.160865 C 210.73782 -13.16193 253.65327 -22.250464 297.9569 -22.250464 Z" fill="#aa97fe"/>
        </g>
        <g id="Graphic_13">
          <path d="M 612.69784 292.4786 C 612.69784 334.20755 604.6297 374.70255 589.229 412.172 L 574.9199 406.3819 C 589.58496 370.73967 597.2734 332.1905 597.2734 292.4786 Z" fill="#e3a92e"/>
        </g>
        <g id="Graphic_12">
          <path d="M 18.50227 400.14096 L 4.0863823 405.6344 C -9.617609 370.0159 -16.784025 331.79897 -16.784025 292.4786 L -1.3596195 292.4786 C -1.3596195 329.88872 5.450849 366.25472 18.50227 400.14096 Z" fill="#ebdea6"/>
        </g>
      </g>
      <g id="Graphic_6">
        <circle cx="297.9569" cy="-101.77624" r="79.5259002702601" fill="#aa97fe"/>
      </g>
      <g id="Graphic_5">
        <circle cx="-96.3098" cy="292.48454" r="79.5259002702601" fill="#ebdea6"/>
      </g>
      <g id="Graphic_4">
        <circle cx="692.2236" cy="292.48454" r="79.5259002702601" fill="#e3a92e"/>
      </g>
      <g id="Graphic_3">
        <circle cx="297.9569" cy="686.7453" r="79.5259002702601" fill="#a4f8fd"/>
      </g>
    </g>
  </g>
</svg>
