<?xml version="1.0" encoding="utf-8"?>
<svg version="1.2" width="215.9mm" height="279.4mm" viewBox="0 0 21590 27940" preserveAspectRatio="xMidYMid" fill-rule="evenodd" stroke-width="28.222" stroke-linejoin="round" xmlns="http://www.w3.org/2000/svg">
  <defs class="ClipPathGroup">
    <clipPath id="presentation_clip_path" clipPathUnits="userSpaceOnUse">
      <rect x="0" y="0" width="21590" height="27940"/>
    </clipPath>
  </defs>
  <defs class="TextShapeIndex">
    <g/>
  </defs>
  <defs class="EmbeddedBulletChars">
    <g id="bullet-char-template-57356" transform="scale(0.00048828125,-0.00048828125)">
      <path d="M 580,1141 L 1163,571 580,0 -4,571 580,1141 Z"/>
    </g>
    <g id="bullet-char-template-57354" transform="scale(0.00048828125,-0.00048828125)">
      <path d="M 8,1128 L 1137,1128 1137,0 8,0 8,1128 Z"/>
    </g>
    <g id="bullet-char-template-10146" transform="scale(0.00048828125,-0.00048828125)">
      <path d="M 174,0 L 602,739 174,1481 1456,739 174,0 Z M 1358,739 L 309,1346 659,739 1358,739 Z"/>
    </g>
    <g id="bullet-char-template-10132" transform="scale(0.00048828125,-0.00048828125)">
      <path d="M 2015,739 L 1276,0 717,0 1260,543 174,543 174,936 1260,936 717,1481 1274,1481 2015,739 Z"/>
    </g>
    <g id="bullet-char-template-10007" transform="scale(0.00048828125,-0.00048828125)">
      <path d="M 0,-2 C -7,14 -16,27 -25,37 L 356,567 C 262,823 215,952 215,954 215,979 228,992 255,992 264,992 276,990 289,987 310,991 331,999 354,1012 L 381,999 492,748 772,1049 836,1024 860,1049 C 881,1039 901,1025 922,1006 886,937 835,863 770,784 769,783 710,716 594,584 L 774,223 C 774,196 753,168 711,139 L 727,119 C 717,90 699,76 672,76 641,76 570,178 457,381 L 164,-76 C 142,-110 111,-127 72,-127 30,-127 9,-110 8,-76 1,-67 -2,-52 -2,-32 -2,-23 -1,-13 0,-2 Z"/>
    </g>
    <g id="bullet-char-template-10004" transform="scale(0.00048828125,-0.00048828125)">
      <path d="M 285,-33 C 182,-33 111,30 74,156 52,228 41,333 41,471 41,549 55,616 82,672 116,743 169,778 240,778 293,778 328,747 346,684 L 369,508 C 377,444 397,411 428,410 L 1163,1116 C 1174,1127 1196,1133 1229,1133 1271,1133 1292,1118 1292,1087 L 1292,965 C 1292,929 1282,901 1262,881 L 442,47 C 390,-6 338,-33 285,-33 Z"/>
    </g>
    <g id="bullet-char-template-9679" transform="scale(0.00048828125,-0.00048828125)">
      <path d="M 813,0 C 632,0 489,54 383,161 276,268 223,411 223,592 223,773 276,916 383,1023 489,1130 632,1184 813,1184 992,1184 1136,1130 1245,1023 1353,916 1407,772 1407,592 1407,412 1353,268 1245,161 1136,54 992,0 813,0 Z"/>
    </g>
    <g id="bullet-char-template-8226" transform="scale(0.00048828125,-0.00048828125)">
      <path d="M 346,457 C 273,457 209,483 155,535 101,586 74,649 74,723 74,796 101,859 155,911 209,963 273,989 346,989 419,989 480,963 531,910 582,859 608,796 608,723 608,648 583,586 532,535 482,483 420,457 346,457 Z"/>
    </g>
    <g id="bullet-char-template-8211" transform="scale(0.00048828125,-0.00048828125)">
      <path d="M -4,459 L 1135,459 1135,606 -4,606 -4,459 Z"/>
    </g>
    <g id="bullet-char-template-61548" transform="scale(0.00048828125,-0.00048828125)">
      <path d="M 173,740 C 173,903 231,1043 346,1159 462,1274 601,1332 765,1332 928,1332 1067,1274 1183,1159 1299,1043 1357,903 1357,740 1357,577 1299,437 1183,322 1067,206 928,148 765,148 601,148 462,206 346,322 231,437 173,577 173,740 Z"/>
    </g>
  </defs>
  <g>
    <g id="id2" class="Master_Slide">
      <g id="bg-id2" class="Background"/>
      <g id="bo-id2" class="BackgroundObjects"/>
    </g>
  </g>
  <g class="SlideGroup">
    <g>
      <g id="container-id1">
        <g id="id1" class="Slide" clip-path="url(#presentation_clip_path)">
          <g class="Page">
            <g class="com.sun.star.drawing.LineShape">
              <g id="id3">
                <rect class="BoundingBox" stroke="none" fill="none" x="3221" y="3221" width="3" height="7623"/>
                <path fill="none" stroke="rgb(0,0,0)" d="M 3222,3222 L 3222,10842"/>
              </g>
            </g>
            <g class="com.sun.star.drawing.LineShape">
              <g id="id4">
                <rect class="BoundingBox" stroke="none" fill="none" x="3221" y="10841" width="13973" height="3"/>
                <path fill="none" stroke="rgb(0,0,0)" d="M 3222,10842 L 17192,10842"/>
              </g>
            </g>
            <g class="com.sun.star.drawing.OpenBezierShape">
              <g id="id5">
                <rect class="BoundingBox" stroke="none" fill="none" x="4220" y="3562" width="13461" height="2085"/>
                <path fill="none" stroke="rgb(255,128,0)" stroke-width="106" stroke-linejoin="round" d="M 4274,4803 C 4776,4326 5208,4910 5740,4885 6193,4864 6505,4693 7083,4967 7549,5186 7826,4300 8426,4356 8896,4400 9318,3897 9851,4153 10597,4509 10086,3006 11235,3908 11646,4231 12163,4216 12619,4560 12986,4835 13560,4669 14003,4478 14566,4236 15053,5121 15550,4437 15942,3898 16461,4302 16812,4518 L 17219,4640 17627,4600"/>
              </g>
            </g>
            <g class="com.sun.star.drawing.TextShape">
              <g id="id6">
                <rect class="BoundingBox" stroke="none" fill="none" x="14017" y="3212" width="3763" height="989"/>
                <text class="TextShape" style="white-space: pre;"><tspan class="TextParagraph" font-family="Ubuntu" font-size="635px" font-weight="700"><tspan class="TextPosition" x="14267" y="3925"><tspan fill="rgb(255,128,0)" stroke="none">facebook</tspan></tspan></tspan></text>
              </g>
            </g>
            <g class="com.sun.star.drawing.OpenBezierShape">
              <g id="id7">
                <rect class="BoundingBox" stroke="none" fill="none" x="4669" y="5511" width="13092" height="1564"/>
                <path fill="none" stroke="rgb(128,0,128)" stroke-width="106" stroke-linejoin="round" d="M 4722,6024 C 5340,6523 5977,5667 6635,6269 6989,6593 7593,6511 7938,6839 8475,7352 8800,6641 9078,6391 9560,5956 9966,6499 10421,6757 11051,7114 11625,6968 11846,6472 12007,6109 12235,5358 12741,5617 13250,5878 13564,6554 14207,6554 14688,6554 14941,7035 15549,6839 16090,6664 16623,5787 17137,6594 L 17626,6676 17707,6635"/>
              </g>
            </g>
            <g class="com.sun.star.drawing.TextShape">
              <g id="id8">
                <rect class="BoundingBox" stroke="none" fill="none" x="14652" y="5434" width="2967" height="989"/>
                <text class="TextShape" style="white-space: pre;"><tspan class="TextParagraph" font-family="Ubuntu" font-size="635px" font-weight="700"><tspan class="TextPosition" x="14902" y="6147"><tspan fill="rgb(128,0,128)" stroke="none">twitter</tspan></tspan></tspan></text>
              </g>
            </g>
            <g class="com.sun.star.drawing.OpenBezierShape">
              <g id="id9">
                <rect class="BoundingBox" stroke="none" fill="none" x="4480" y="7296" width="11423" height="2331"/>
                <path fill="none" stroke="rgb(0,169,51)" stroke-width="106" stroke-linejoin="round" d="M 4533,9516 C 5008,9350 5518,9198 5876,8914 6221,8641 6307,8166 6853,8055 7401,7943 7615,8257 8157,8427 8738,8610 8928,8949 9500,9229 9940,9446 10266,8735 10313,8399 10360,8061 10333,7706 10639,7454 11104,7069 11659,7855 11901,8141 12300,8614 12989,8863 13530,9229 13843,9442 14405,9738 14833,9458 L 15239,9401 15727,9373 15848,9344"/>
              </g>
            </g>
            <g class="com.sun.star.drawing.TextShape">
              <g id="id10">
                <rect class="BoundingBox" stroke="none" fill="none" x="14017" y="8292" width="3449" height="989"/>
                <text class="TextShape" style="white-space: pre;"><tspan class="TextParagraph" font-family="Ubuntu" font-size="635px" font-weight="700"><tspan class="TextPosition" x="14267" y="9005"><tspan fill="rgb(0,169,51)" stroke="none">youtube</tspan></tspan></tspan></text>
              </g>
            </g>
            <g class="com.sun.star.drawing.TextShape">
              <g id="id11">
                <rect class="BoundingBox" stroke="none" fill="none" x="1952" y="2270" width="5769" height="989"/>
                <text class="TextShape" style="white-space: pre;"><tspan class="TextParagraph" font-family="Ubuntu" font-size="635px" font-weight="700"><tspan class="TextPosition" x="2202" y="2983"><tspan fill="rgb(0,0,0)" stroke="none">Clicks / minute</tspan></tspan></tspan></text>
              </g>
            </g>
            <g class="com.sun.star.drawing.TextShape">
              <g id="id12">
                <rect class="BoundingBox" stroke="none" fill="none" x="15941" y="11160" width="2116" height="989"/>
                <text class="TextShape" style="white-space: pre;"><tspan class="TextParagraph" font-family="Ubuntu" font-size="635px" font-weight="700"><tspan class="TextPosition" x="16191" y="11873"><tspan fill="rgb(0,0,0)" stroke="none">time</tspan></tspan></tspan></text>
              </g>
            </g>
          </g>
        </g>
      </g>
    </g>
  </g>
</svg>