<?xml version="1.0" encoding="utf-8"?>
<svg version="1.1" viewBox="-5 246 1812 336" width="1812" height="336" xmlns="http://www.w3.org/2000/svg" xmlns:bx="https://boxy-svg.com">
  <defs>
    <filter id="Shadow" filterUnits="userSpaceOnUse" x="-722.3" y="106.9">
      <feGaussianBlur in="SourceAlpha" result="blur" stdDeviation="4.796"/>
      <feOffset in="blur" result="offset" dx="1" dy="9"/>
      <feFlood flood-color="#6c68e9" flood-opacity=".2950973" result="flood"/>
      <feComposite in="flood" in2="offset" operator="in" result="color"/>
      <feMerge>
        <feMergeNode in="color"/>
        <feMergeNode in="SourceGraphic"/>
      </feMerge>
    </filter>
  </defs>
  <g id="Canvas_1" stroke="none" stroke-dasharray="none" fill-opacity="1" fill="none" stroke-opacity="1" transform="matrix(1, 0, 0, 1, -2.52896, 241.422897)" style="">
    <title>Canvas 1</title>
    <g id="Canvas_1_Layer_1" style="">
      <title>Layer 1</title>
      <g id="Graphic_9">
        <path d="M 340 333.668 L 776.98115 333.668 C 780.2949 333.668 782.98115 336.3543 782.98115 339.668 L 782.98115 488.2581 C 782.98115 491.57183 780.2949 494.2581 776.98115 494.2581 L 340 494.2581 C 336.6863 494.2581 334 491.57183 334 488.2581 L 334 339.668 C 334 336.3543 336.6863 333.668 340 333.668 Z" fill="#a4f8fd"/>
        <path d="M 340 333.668 L 776.98115 333.668 C 780.2949 333.668 782.98115 336.3543 782.98115 339.668 L 782.98115 488.2581 C 782.98115 491.57183 780.2949 494.2581 776.98115 494.2581 L 340 494.2581 C 336.6863 494.2581 334 491.57183 334 488.2581 L 334 339.668 C 334 336.3543 336.6863 333.668 340 333.668 Z" stroke="#2f008e" stroke-linecap="round" stroke-linejoin="round" stroke-width="2"/>
      </g>
      <g id="Graphic_8">
        <path d="M 801.8856 432.7907 L 801.8856 395.13544 C 801.8856 394.03087 802.78105 393.13544 803.8856 393.13544 L 1273.7116 393.13544 C 1274.8162 393.13544 1275.7116 392.24 1275.7116 391.13544 L 1275.7116 362.9378 C 1275.7116 361.83322 1276.607 360.9378 1277.7116 360.9378 C 1278.296 360.9378 1278.8513 361.19347 1279.2313 361.63758 L 1322.8876 412.66285 C 1323.528 413.41137 1323.528 414.51476 1322.8876 415.2633 L 1279.2313 466.28855 C 1278.5132 467.12785 1277.2507 467.2261 1276.4114 466.508 C 1275.9673 466.12805 1275.7116 465.5728 1275.7116 464.98834 L 1275.7116 436.7907 C 1275.7116 435.6861 1274.8162 434.7907 1273.7116 434.7907 L 803.8856 434.7907 C 802.78105 434.7907 801.8856 433.89526 801.8856 432.7907 Z" fill="#aa97fe"/>
        <path d="M 801.8856 432.7907 L 801.8856 395.13544 C 801.8856 394.03087 802.78105 393.13544 803.8856 393.13544 L 1273.7116 393.13544 C 1274.8162 393.13544 1275.7116 392.24 1275.7116 391.13544 L 1275.7116 362.9378 C 1275.7116 361.83322 1276.607 360.9378 1277.7116 360.9378 C 1278.296 360.9378 1278.8513 361.19347 1279.2313 361.63758 L 1322.8876 412.66285 C 1323.528 413.41137 1323.528 414.51476 1322.8876 415.2633 L 1279.2313 466.28855 C 1278.5132 467.12785 1277.2507 467.2261 1276.4114 466.508 C 1275.9673 466.12805 1275.7116 465.5728 1275.7116 464.98834 L 1275.7116 436.7907 C 1275.7116 435.6861 1274.8162 434.7907 1273.7116 434.7907 L 803.8856 434.7907 C 802.78105 434.7907 801.8856 433.89526 801.8856 432.7907 Z" stroke="#2f008e" stroke-linecap="round" stroke-linejoin="round" stroke-width="2"/>
      </g>
      <g id="Graphic_7">
        <text transform="translate(500.09214 389.46306)" fill="#2b0090" style="white-space: pre;">
          <tspan font-family="Century Gothic" font-size="40" font-weight="700" fill="#2b0090" x="0" y="40">Ingest</tspan>
        </text>
      </g>
      <g id="Group_28">
        <g id="Graphic_6">
          <rect x="877.5933" y="246.4047" width="318.09847" height="335.11674" id="path"/>
          <clipPath id="clip_path">
            <use transform="matrix(1, 0, 0, 1, 0, 0)"/>
          </clipPath>
          <g clip-path="url(#clip_path)">
            <image width="2e3" height="2107" transform="translate(877.5933 246.4047) scale(.15904923)"/>
          </g>
        </g>
        <g id="Graphic_5" style="" transform="matrix(1.507915, 0, 0, 1.504192, -471.2099, -206.92186)">
          <path style="fill: rgb(245, 213, 6);" transform="matrix(-0.432478, -1.188223, 1.188223, -0.432478, 1238.097046, 1438.613892)" d="M 868.597139783 73.56959765 A 74.277 74.277 0 1 1 817 52.723 L 817 127 Z" bx:shape="pie 817 127 0 74.277 44 360 1@80fd3814"/>
          <text fill="#2b0090" style="white-space: pre;" x="946.948" y="428.617">
            <tspan font-family="Century Gothic" font-size="40" font-weight="700" fill="#2b0090" x="946.948" y="468.617" style="font-size: 40px; word-spacing: 0px;">Processing</tspan>
          </text>
        </g>
        <g id="Graphic_4" transform="matrix(1, 0, 0, 1, -11.380321, 37.93441)">
          <circle cx="1085.224" cy="314.736" r="15" fill="#4040ff"/>
          <circle cx="1085.224" cy="314.736" r="15" stroke="black" stroke-linecap="round" stroke-linejoin="round" stroke-width="1"/>
        </g>
      </g>
      <g id="Graphic_3">
        <path d="M -4 460.0399 L -4 367.8862 C -4 366.78164 -3.1045695 365.8862 -2 365.8862 L 175.3255 365.8862 C 176.43008 365.8862 177.3255 364.99078 177.3255 363.8862 L 177.3255 337.56972 C 177.3255 336.46515 178.22094 335.56972 179.3255 335.56972 C 179.74454 335.56972 180.153 335.70134 180.4932 335.946 L 286.72323 412.33933 C 287.62 412.9842 287.82418 414.234 287.1793 415.13074 C 287.05295 415.30644 286.89892 415.46046 286.72323 415.5868 L 180.4932 491.98014 C 179.59643 492.62504 178.34666 492.42085 177.70177 491.5241 C 177.45713 491.1839 177.3255 490.77544 177.3255 490.3564 L 177.3255 464.0399 C 177.3255 462.93535 176.43008 462.0399 175.3255 462.0399 L -2 462.0399 C -3.1045695 462.0399 -4 461.1445 -4 460.0399 Z" fill="#fdd0ca"/>
        <path d="M -4 460.0399 L -4 367.8862 C -4 366.78164 -3.1045695 365.8862 -2 365.8862 L 175.3255 365.8862 C 176.43008 365.8862 177.3255 364.99078 177.3255 363.8862 L 177.3255 337.56972 C 177.3255 336.46515 178.22094 335.56972 179.3255 335.56972 C 179.74454 335.56972 180.153 335.70134 180.4932 335.946 L 286.72323 412.33933 C 287.62 412.9842 287.82418 414.234 287.1793 415.13074 C 287.05295 415.30644 286.89892 415.46046 286.72323 415.5868 L 180.4932 491.98014 C 179.59643 492.62504 178.34666 492.42085 177.70177 491.5241 C 177.45713 491.1839 177.3255 490.77544 177.3255 490.3564 L 177.3255 464.0399 C 177.3255 462.93535 176.43008 462.0399 175.3255 462.0399 L -2 462.0399 C -3.1045695 462.0399 -4 461.1445 -4 460.0399 Z" stroke="#2f008e" stroke-linecap="round" stroke-linejoin="round" stroke-width="2"/>
      </g>
      <g id="Graphic_2">
        <text transform="translate(60 389.46306)" fill="#2b0090" style="white-space: pre;">
          <tspan font-family="Century Gothic" font-size="40" font-weight="700" fill="#2b0090" x="0" y="40">Data</tspan>
        </text>
      </g>
      <g id="Graphic_12">
        <path d="M 1363 333.668 L 1799.9811 333.668 C 1803.2949 333.668 1805.9811 336.3543 1805.9811 339.668 L 1805.9811 488.2581 C 1805.9811 491.57183 1803.2949 494.2581 1799.9811 494.2581 L 1363 494.2581 C 1359.6863 494.2581 1357 491.57183 1357 488.2581 L 1357 339.668 C 1357 336.3543 1359.6863 333.668 1363 333.668 Z" fill="#e3a92e"/>
        <path d="M 1363 333.668 L 1799.9811 333.668 C 1803.2949 333.668 1805.9811 336.3543 1805.9811 339.668 L 1805.9811 488.2581 C 1805.9811 491.57183 1803.2949 494.2581 1799.9811 494.2581 L 1363 494.2581 C 1359.6863 494.2581 1357 491.57183 1357 488.2581 L 1357 339.668 C 1357 336.3543 1359.6863 333.668 1363 333.668 Z" stroke="#2f008e" stroke-linecap="round" stroke-linejoin="round" stroke-width="2"/>
      </g>
      <g id="Graphic_11">
        <text transform="translate(1506.6859 389.46306)" fill="#2b0090" style="white-space: pre;">
          <tspan font-family="Century Gothic" font-size="40" font-weight="700" fill="#2b0090" x="0" y="40">Storage</tspan>
        </text>
      </g>
    </g>
  </g>
  <g id="Group_30" transform="matrix(0.802115, 0, 0, 0.697142, 613.596313, 192.668686)" style="">
    <g id="g-1" filter="url(#Shadow)">
      <path d="M -271.83667 190 L 86.73219 190 C 98.88246 190 108.7322 199.84974 108.7322 212 L 108.7322 428.262 C 108.7322 440.41226 98.88246 450.262 86.73219 450.262 L -271.83667 450.262 C -283.98694 450.262 -293.83667 440.41226 -293.83667 428.262 L -293.83667 212 C -293.83667 199.84974 -283.98694 190 -271.83667 190 Z" fill="#f9e7e1"/>
    </g>
    <g id="g-2" filter="url(#Shadow)">
      <path d="M -218.65228 447.1079 L -177.02913 519.33706 C -176.75338 519.8156 -176.14192 519.97995 -175.6634 519.7042 C -175.51083 519.6163 -175.38419 519.4896 -175.29627 519.33706 L -133.67312 447.1079 C -133.39737 446.6294 -133.56174 446.01793 -134.04026 445.7422 C -134.1921 445.65467 -134.36429 445.6086 -134.53955 445.6086 L -217.78584 445.6086 C -218.33813 445.6086 -218.78584 446.0563 -218.78584 446.6086 C -218.78584 446.78387 -218.73978 446.95605 -218.65228 447.1079 Z" fill="#f9e7e1"/>
    </g>
  </g>
  <g id="Graphic_23" transform="matrix(1, 0, 0, 1, 623.816162, 78.649223)">
    <text transform="translate(-243.34326 246)" fill="#2b0090" style="white-space: pre;"><tspan x="0" dy="1em">​</tspan>          <tspan font-family="Century Gothic" font-size="40" font-weight="700" fill="#2b0090" x="94.78516" y="40">Kafka<tspan x="0" dy="1em">​</tspan></tspan><tspan font-family="Century Gothic" font-size="40" font-weight="700" fill="#2b0090" x="0" y="138">   Amazon Kinesis</tspan><tspan x="0" dy="1em">​</tspan>        </text>
  </g>
  <g id="Group_31" transform="matrix(0.563397, 0, 0, 0.852013, 918.067688, 5.218656)" style="">
    <g id="Graphic_10" filter="url(#Shadow)">
      <path d="M 171.9905 300 L 530.55936 300 C 542.7096 300 552.55936 309.84974 552.55936 322 L 552.55936 538.262 C 552.55936 550.41226 542.7096 560.262 530.55936 560.262 L 171.9905 560.262 C 159.84023 560.262 149.9905 550.41226 149.9905 538.262 L 149.9905 322 C 149.9905 309.84974 159.84023 300 171.9905 300 Z" fill="#f9e7e1"/>
    </g>
    <g id="g-3" filter="url(#Shadow)">
      <path d="M 225.1749 560.5058 L 266.79804 632.735 C 267.0738 633.2135 267.68525 633.3779 268.16377 633.1021 C 268.31634 633.0142 268.443 632.88756 268.5309 632.735 L 310.15405 560.5058 C 310.4298 560.0273 310.26543 559.41585 309.7869 559.1401 C 309.63506 559.0526 309.46288 559.00653 309.28762 559.00653 L 226.04133 559.00653 C 225.48904 559.00653 225.04133 559.45425 225.04133 560.00653 C 225.04133 560.1818 225.0874 560.354 225.1749 560.5058 Z" fill="#f9e7e1"/>
    </g>
  </g>
  <g id="Graphic_33" transform="matrix(1, 0, 0, 1, 751.383545, -50.314144)">
    <text transform="translate(286.47024 328)" fill="#2b0090" style="white-space: pre;">
          <tspan font-family="Century Gothic" font-size="40" font-weight="700" fill="#2b0090" x="0" y="40">Spark</tspan>
          <tspan font-family="Century Gothic" font-size="40" font-weight="700" fill="#2b0090" x="0" y="89">Storm</tspan>
          <tspan font-family="Century Gothic" font-size="40" font-weight="700" fill="#2b0090" x="0" y="138">Flink</tspan>
          <tspan font-family="Century Gothic" font-size="40" font-weight="700" fill="#2b0090" x="0" y="187">Samza</tspan>
        </text>
  </g>
  <g id="Group_32" transform="matrix(0.667051, 0, 0, 0.647785, 984.654419, 93.084045)" style="">
    <g id="g-4" filter="url(#Shadow)">
      <path d="M 659.2329 376.56235 L 1017.8017 376.56235 C 1029.952 376.56235 1039.8017 386.4121 1039.8017 398.56235 L 1039.8017 614.82434 C 1039.8017 626.9746 1029.952 636.82434 1017.8017 636.82434 L 659.2329 636.82434 C 647.0826 636.82434 637.23286 626.9746 637.23286 614.82434 L 637.23286 398.56235 C 637.23286 386.4121 647.0826 376.56235 659.2329 376.56235 Z" fill="#f9e7e1"/>
    </g>
    <g id="g-5" filter="url(#Shadow)">
      <path d="M 712.4173 637.70955 L 754.0404 709.9387 C 754.3162 710.4172 754.9276 710.5816 755.4061 710.30585 C 755.5587 710.2179 755.68535 710.0913 755.7733 709.9387 L 797.3964 637.70955 C 797.6722 637.231 797.5078 636.6196 797.0293 636.3438 C 796.8774 636.2563 796.7052 636.21026 796.53 636.21026 L 713.2837 636.21026 C 712.7314 636.21026 712.2837 636.658 712.2837 637.21026 C 712.2837 637.3855 712.32975 637.5577 712.4173 637.70955 Z" fill="#f9e7e1"/>
    </g>
  </g>
  <g id="Graphic_34" transform="matrix(1, 0, 0, 1, 732.910095, -39.007092)">
    <text transform="translate(720.9196 409)" fill="#2b0090" style="white-space: pre;"><tspan x="0" dy="1em">​</tspan>          <tspan font-family="Century Gothic" font-size="40" font-weight="700" fill="#2b0090" x="0" y="40">-Hadoop</tspan><tspan x="0" dy="1em">​</tspan>          <tspan font-family="Century Gothic" font-size="40" font-weight="700" fill="#2b0090" x="0" y="89">-NoSQL</tspan><tspan x="0" dy="1em">​</tspan>          <tspan x="0" dy="1em">​</tspan>      <tspan x="0" dy="1em">​</tspan>        </text>
  </g>
</svg>