<?xml version="1.0" encoding="utf-8"?>
<svg version="1.1" viewBox="-5 246 1812 336" width="1812" height="336" xmlns="http://www.w3.org/2000/svg" xmlns:bx="https://boxy-svg.com">
  <g id="Canvas_1" stroke="none" stroke-dasharray="none" fill-opacity="1" fill="none" stroke-opacity="1">
    <title>Canvas 1</title>
    <g id="Canvas_1_Layer_1">
      <title>Layer 1</title>
      <g id="Graphic_9">
        <path d="M 340 333.668 L 776.98115 333.668 C 780.2949 333.668 782.98115 336.3543 782.98115 339.668 L 782.98115 488.2581 C 782.98115 491.57183 780.2949 494.2581 776.98115 494.2581 L 340 494.2581 C 336.6863 494.2581 334 491.57183 334 488.2581 L 334 339.668 C 334 336.3543 336.6863 333.668 340 333.668 Z" fill="#a4f8fd"/>
        <path d="M 340 333.668 L 776.98115 333.668 C 780.2949 333.668 782.98115 336.3543 782.98115 339.668 L 782.98115 488.2581 C 782.98115 491.57183 780.2949 494.2581 776.98115 494.2581 L 340 494.2581 C 336.6863 494.2581 334 491.57183 334 488.2581 L 334 339.668 C 334 336.3543 336.6863 333.668 340 333.668 Z" stroke="#2f008e" stroke-linecap="round" stroke-linejoin="round" stroke-width="2"/>
      </g>
      <g id="Graphic_8">
        <path d="M 801.8856 432.7907 L 801.8856 395.13544 C 801.8856 394.03087 802.78105 393.13544 803.8856 393.13544 L 1273.7116 393.13544 C 1274.8162 393.13544 1275.7116 392.24 1275.7116 391.13544 L 1275.7116 362.9378 C 1275.7116 361.83322 1276.607 360.9378 1277.7116 360.9378 C 1278.296 360.9378 1278.8513 361.19347 1279.2313 361.63758 L 1322.8876 412.66285 C 1323.528 413.41137 1323.528 414.51476 1322.8876 415.2633 L 1279.2313 466.28855 C 1278.5132 467.12785 1277.2507 467.2261 1276.4114 466.508 C 1275.9673 466.12805 1275.7116 465.5728 1275.7116 464.98834 L 1275.7116 436.7907 C 1275.7116 435.6861 1274.8162 434.7907 1273.7116 434.7907 L 803.8856 434.7907 C 802.78105 434.7907 801.8856 433.89526 801.8856 432.7907 Z" fill="#aa97fe"/>
        <path d="M 801.8856 432.7907 L 801.8856 395.13544 C 801.8856 394.03087 802.78105 393.13544 803.8856 393.13544 L 1273.7116 393.13544 C 1274.8162 393.13544 1275.7116 392.24 1275.7116 391.13544 L 1275.7116 362.9378 C 1275.7116 361.83322 1276.607 360.9378 1277.7116 360.9378 C 1278.296 360.9378 1278.8513 361.19347 1279.2313 361.63758 L 1322.8876 412.66285 C 1323.528 413.41137 1323.528 414.51476 1322.8876 415.2633 L 1279.2313 466.28855 C 1278.5132 467.12785 1277.2507 467.2261 1276.4114 466.508 C 1275.9673 466.12805 1275.7116 465.5728 1275.7116 464.98834 L 1275.7116 436.7907 C 1275.7116 435.6861 1274.8162 434.7907 1273.7116 434.7907 L 803.8856 434.7907 C 802.78105 434.7907 801.8856 433.89526 801.8856 432.7907 Z" stroke="#2f008e" stroke-linecap="round" stroke-linejoin="round" stroke-width="2"/>
      </g>
      <g id="Graphic_7">
        <text transform="translate(500.09214 389.46306)" fill="#2b0090" style="white-space: pre;">
          <tspan font-family="Century Gothic" font-size="40" font-weight="700" fill="#2b0090" x="0" y="40">Ingest</tspan>
        </text>
      </g>
      <g id="Group_28">
        <g id="Graphic_6">
          <rect x="877.5933" y="246.4047" width="318.09847" height="335.11674" id="path"/>
          <clipPath id="clip_path">
            <use transform="matrix(1, 0, 0, 1, 0, 0)"/>
          </clipPath>
          <g clip-path="url(#clip_path)">
            <image width="2e3" height="2107" transform="translate(877.5933 246.4047) scale(.15904923)"/>
          </g>
        </g>
        <g id="Graphic_5" style="" transform="matrix(1.507915, 0, 0, 1.504192, -471.2099, -206.92186)">
          <path style="fill: rgb(245, 213, 6);" transform="matrix(-0.432478, -1.188223, 1.188223, -0.432478, 1238.097046, 1438.613892)" d="M 868.597139783 73.56959765 A 74.277 74.277 0 1 1 817 52.723 L 817 127 Z" bx:shape="pie 817 127 0 74.277 44 360 1@80fd3814"/>
          <text fill="#2b0090" style="white-space: pre;" x="946.948" y="428.617">
            <tspan font-family="Century Gothic" font-size="40" font-weight="700" fill="#2b0090" x="946.948" y="468.617" style="font-size: 40px; word-spacing: 0px;">Processing</tspan>
          </text>
        </g>
        <g id="Graphic_4" transform="matrix(1, 0, 0, 1, -11.380321, 37.93441)">
          <circle cx="1085.224" cy="314.736" r="15" fill="#4040ff"/>
          <circle cx="1085.224" cy="314.736" r="15" stroke="black" stroke-linecap="round" stroke-linejoin="round" stroke-width="1"/>
        </g>
        <ellipse style="paint-order: stroke; stroke-miterlimit: 1; stroke-width: 5px; stroke: rgba(232, 41, 41, 0.68);" cx="1089.408" cy="435.04" rx="191.569" ry="106.849"/>
      </g>
      <g id="Graphic_3">
        <path d="M -4 460.0399 L -4 367.8862 C -4 366.78164 -3.1045695 365.8862 -2 365.8862 L 175.3255 365.8862 C 176.43008 365.8862 177.3255 364.99078 177.3255 363.8862 L 177.3255 337.56972 C 177.3255 336.46515 178.22094 335.56972 179.3255 335.56972 C 179.74454 335.56972 180.153 335.70134 180.4932 335.946 L 286.72323 412.33933 C 287.62 412.9842 287.82418 414.234 287.1793 415.13074 C 287.05295 415.30644 286.89892 415.46046 286.72323 415.5868 L 180.4932 491.98014 C 179.59643 492.62504 178.34666 492.42085 177.70177 491.5241 C 177.45713 491.1839 177.3255 490.77544 177.3255 490.3564 L 177.3255 464.0399 C 177.3255 462.93535 176.43008 462.0399 175.3255 462.0399 L -2 462.0399 C -3.1045695 462.0399 -4 461.1445 -4 460.0399 Z" fill="#fdd0ca"/>
        <path d="M -4 460.0399 L -4 367.8862 C -4 366.78164 -3.1045695 365.8862 -2 365.8862 L 175.3255 365.8862 C 176.43008 365.8862 177.3255 364.99078 177.3255 363.8862 L 177.3255 337.56972 C 177.3255 336.46515 178.22094 335.56972 179.3255 335.56972 C 179.74454 335.56972 180.153 335.70134 180.4932 335.946 L 286.72323 412.33933 C 287.62 412.9842 287.82418 414.234 287.1793 415.13074 C 287.05295 415.30644 286.89892 415.46046 286.72323 415.5868 L 180.4932 491.98014 C 179.59643 492.62504 178.34666 492.42085 177.70177 491.5241 C 177.45713 491.1839 177.3255 490.77544 177.3255 490.3564 L 177.3255 464.0399 C 177.3255 462.93535 176.43008 462.0399 175.3255 462.0399 L -2 462.0399 C -3.1045695 462.0399 -4 461.1445 -4 460.0399 Z" stroke="#2f008e" stroke-linecap="round" stroke-linejoin="round" stroke-width="2"/>
      </g>
      <g id="Graphic_2">
        <text transform="translate(60 389.46306)" fill="#2b0090" style="white-space: pre;">
          <tspan font-family="Century Gothic" font-size="40" font-weight="700" fill="#2b0090" x="0" y="40">Data</tspan>
        </text>
      </g>
      <g id="Graphic_12">
        <path d="M 1363 333.668 L 1799.9811 333.668 C 1803.2949 333.668 1805.9811 336.3543 1805.9811 339.668 L 1805.9811 488.2581 C 1805.9811 491.57183 1803.2949 494.2581 1799.9811 494.2581 L 1363 494.2581 C 1359.6863 494.2581 1357 491.57183 1357 488.2581 L 1357 339.668 C 1357 336.3543 1359.6863 333.668 1363 333.668 Z" fill="#e3a92e"/>
        <path d="M 1363 333.668 L 1799.9811 333.668 C 1803.2949 333.668 1805.9811 336.3543 1805.9811 339.668 L 1805.9811 488.2581 C 1805.9811 491.57183 1803.2949 494.2581 1799.9811 494.2581 L 1363 494.2581 C 1359.6863 494.2581 1357 491.57183 1357 488.2581 L 1357 339.668 C 1357 336.3543 1359.6863 333.668 1363 333.668 Z" stroke="#2f008e" stroke-linecap="round" stroke-linejoin="round" stroke-width="2"/>
      </g>
      <g id="Graphic_11">
        <text transform="translate(1506.6859 389.46306)" fill="#2b0090" style="white-space: pre;">
          <tspan font-family="Century Gothic" font-size="40" font-weight="700" fill="#2b0090" x="0" y="40">Storage</tspan>
        </text>
      </g>
    </g>
  </g>
</svg>